<?xml version="1.0" encoding="utf-8" standalone="no"?>
<!DOCTYPE svg PUBLIC "-//W3C//DTD SVG 1.1//EN"
  "http://www.w3.org/Graphics/SVG/1.1/DTD/svg11.dtd">
<svg xmlns:xlink="http://www.w3.org/1999/xlink" width="576pt" height="432pt" viewBox="0 0 576 432" xmlns="http://www.w3.org/2000/svg" version="1.1">
 <metadata>
  <rdf:RDF xmlns:dc="http://purl.org/dc/elements/1.1/" xmlns:cc="http://creativecommons.org/ns#" xmlns:rdf="http://www.w3.org/1999/02/22-rdf-syntax-ns#">
   <cc:Work>
    <dc:type rdf:resource="http://purl.org/dc/dcmitype/StillImage"/>
    <dc:date>2025-07-12T13:40:04.464959</dc:date>
    <dc:format>image/svg+xml</dc:format>
    <dc:creator>
     <cc:Agent>
      <dc:title>Matplotlib v3.10.3, https://matplotlib.org/</dc:title>
     </cc:Agent>
    </dc:creator>
   </cc:Work>
  </rdf:RDF>
 </metadata>
 <defs>
  <style type="text/css">*{stroke-linejoin: round; stroke-linecap: butt}</style>
 </defs>
 <g id="figure_1">
  <g id="patch_1">
   <path d="M 0 432 
L 576 432 
L 576 0 
L 0 0 
z
" style="fill: #ffffff"/>
  </g>
  <g id="axes_1">
   <g id="patch_2">
    <path d="M 72 366.96 
L 518.4 366.96 
L 518.4 69.36 
L 72 69.36 
z
" style="fill: #ffffff"/>
   </g>
   <g id="PathCollection_1">
    <defs>
     <path id="m53a6f0c1ee" d="M -3 3 
L 3 -3 
M -3 -3 
L 3 3 
" style="stroke: #333333; stroke-width: 1.5"/>
    </defs>
    <g clip-path="url(#p19ed1cdbba)">
     <use xlink:href="#m53a6f0c1ee" x="295.2" y="247.92" style="fill: #333333; stroke: #333333; stroke-width: 1.5"/>
    </g>
   </g>
   <g id="matplotlib.axis_1">
    <g id="xtick_1">
     <g id="line2d_1">
      <defs>
       <path id="m2459139b50" d="M 0 0 
L 0 3.5 
" style="stroke: #000000; stroke-width: 0.8"/>
      </defs>
      <g>
       <use xlink:href="#m2459139b50" x="72" y="366.96" style="stroke: #000000; stroke-width: 0.8"/>
      </g>
     </g>
     <g id="text_1">
      <!-- −15 -->
      <g transform="translate(61.447656 381.558438) scale(0.1 -0.1)">
       <defs>
        <path id="DejaVuSans-2212" d="M 678 2272 
L 4684 2272 
L 4684 1741 
L 678 1741 
L 678 2272 
z
" transform="scale(0.015625)"/>
        <path id="DejaVuSans-31" d="M 794 531 
L 1825 531 
L 1825 4091 
L 703 3866 
L 703 4441 
L 1819 4666 
L 2450 4666 
L 2450 531 
L 3481 531 
L 3481 0 
L 794 0 
L 794 531 
z
" transform="scale(0.015625)"/>
        <path id="DejaVuSans-35" d="M 691 4666 
L 3169 4666 
L 3169 4134 
L 1269 4134 
L 1269 2991 
Q 1406 3038 1543 3061 
Q 1681 3084 1819 3084 
Q 2600 3084 3056 2656 
Q 3513 2228 3513 1497 
Q 3513 744 3044 326 
Q 2575 -91 1722 -91 
Q 1428 -91 1123 -41 
Q 819 9 494 109 
L 494 744 
Q 775 591 1075 516 
Q 1375 441 1709 441 
Q 2250 441 2565 725 
Q 2881 1009 2881 1497 
Q 2881 1984 2565 2268 
Q 2250 2553 1709 2553 
Q 1456 2553 1204 2497 
Q 953 2441 691 2322 
L 691 4666 
z
" transform="scale(0.015625)"/>
       </defs>
       <use xlink:href="#DejaVuSans-2212"/>
       <use xlink:href="#DejaVuSans-31" transform="translate(83.789062 0)"/>
       <use xlink:href="#DejaVuSans-35" transform="translate(147.412109 0)"/>
      </g>
     </g>
    </g>
    <g id="xtick_2">
     <g id="line2d_2">
      <g>
       <use xlink:href="#m2459139b50" x="146.4" y="366.96" style="stroke: #000000; stroke-width: 0.8"/>
      </g>
     </g>
     <g id="text_2">
      <!-- −10 -->
      <g transform="translate(135.847656 381.558438) scale(0.1 -0.1)">
       <defs>
        <path id="DejaVuSans-30" d="M 2034 4250 
Q 1547 4250 1301 3770 
Q 1056 3291 1056 2328 
Q 1056 1369 1301 889 
Q 1547 409 2034 409 
Q 2525 409 2770 889 
Q 3016 1369 3016 2328 
Q 3016 3291 2770 3770 
Q 2525 4250 2034 4250 
z
M 2034 4750 
Q 2819 4750 3233 4129 
Q 3647 3509 3647 2328 
Q 3647 1150 3233 529 
Q 2819 -91 2034 -91 
Q 1250 -91 836 529 
Q 422 1150 422 2328 
Q 422 3509 836 4129 
Q 1250 4750 2034 4750 
z
" transform="scale(0.015625)"/>
       </defs>
       <use xlink:href="#DejaVuSans-2212"/>
       <use xlink:href="#DejaVuSans-31" transform="translate(83.789062 0)"/>
       <use xlink:href="#DejaVuSans-30" transform="translate(147.412109 0)"/>
      </g>
     </g>
    </g>
    <g id="xtick_3">
     <g id="line2d_3">
      <g>
       <use xlink:href="#m2459139b50" x="220.8" y="366.96" style="stroke: #000000; stroke-width: 0.8"/>
      </g>
     </g>
     <g id="text_3">
      <!-- −5 -->
      <g transform="translate(213.428906 381.558438) scale(0.1 -0.1)">
       <use xlink:href="#DejaVuSans-2212"/>
       <use xlink:href="#DejaVuSans-35" transform="translate(83.789062 0)"/>
      </g>
     </g>
    </g>
    <g id="xtick_4">
     <g id="line2d_4">
      <g>
       <use xlink:href="#m2459139b50" x="295.2" y="366.96" style="stroke: #000000; stroke-width: 0.8"/>
      </g>
     </g>
     <g id="text_4">
      <!-- 0 -->
      <g transform="translate(292.01875 381.558438) scale(0.1 -0.1)">
       <use xlink:href="#DejaVuSans-30"/>
      </g>
     </g>
    </g>
    <g id="xtick_5">
     <g id="line2d_5">
      <g>
       <use xlink:href="#m2459139b50" x="369.6" y="366.96" style="stroke: #000000; stroke-width: 0.8"/>
      </g>
     </g>
     <g id="text_5">
      <!-- 5 -->
      <g transform="translate(366.41875 381.558438) scale(0.1 -0.1)">
       <use xlink:href="#DejaVuSans-35"/>
      </g>
     </g>
    </g>
    <g id="xtick_6">
     <g id="line2d_6">
      <g>
       <use xlink:href="#m2459139b50" x="444" y="366.96" style="stroke: #000000; stroke-width: 0.8"/>
      </g>
     </g>
     <g id="text_6">
      <!-- 10 -->
      <g transform="translate(437.6375 381.558438) scale(0.1 -0.1)">
       <use xlink:href="#DejaVuSans-31"/>
       <use xlink:href="#DejaVuSans-30" transform="translate(63.623047 0)"/>
      </g>
     </g>
    </g>
    <g id="xtick_7">
     <g id="line2d_7">
      <g>
       <use xlink:href="#m2459139b50" x="518.4" y="366.96" style="stroke: #000000; stroke-width: 0.8"/>
      </g>
     </g>
     <g id="text_7">
      <!-- 15 -->
      <g transform="translate(512.0375 381.558438) scale(0.1 -0.1)">
       <use xlink:href="#DejaVuSans-31"/>
       <use xlink:href="#DejaVuSans-35" transform="translate(63.623047 0)"/>
      </g>
     </g>
    </g>
    <g id="text_8">
     <!-- $z$ [$R_E$] -->
     <g transform="translate(281.25 395.236563) scale(0.1 -0.1)">
      <defs>
       <path id="DejaVuSans-Oblique-7a" d="M 744 3500 
L 3475 3500 
L 3372 2975 
L 738 459 
L 2913 459 
L 2822 0 
L -19 0 
L 84 525 
L 2719 3041 
L 653 3041 
L 744 3500 
z
" transform="scale(0.015625)"/>
       <path id="DejaVuSans-20" transform="scale(0.015625)"/>
       <path id="DejaVuSans-5b" d="M 550 4863 
L 1875 4863 
L 1875 4416 
L 1125 4416 
L 1125 -397 
L 1875 -397 
L 1875 -844 
L 550 -844 
L 550 4863 
z
" transform="scale(0.015625)"/>
       <path id="DejaVuSans-Oblique-52" d="M 1613 4147 
L 1294 2491 
L 2106 2491 
Q 2584 2491 2879 2755 
Q 3175 3019 3175 3444 
Q 3175 3784 2976 3965 
Q 2778 4147 2406 4147 
L 1613 4147 
z
M 2772 2241 
Q 2972 2194 3105 2009 
Q 3238 1825 3413 1275 
L 3809 0 
L 3144 0 
L 2778 1197 
Q 2638 1659 2453 1815 
Q 2269 1972 1888 1972 
L 1191 1972 
L 806 0 
L 172 0 
L 1081 4666 
L 2503 4666 
Q 3150 4666 3495 4373 
Q 3841 4081 3841 3531 
Q 3841 3044 3547 2687 
Q 3253 2331 2772 2241 
z
" transform="scale(0.015625)"/>
       <path id="DejaVuSans-Oblique-45" d="M 1081 4666 
L 4031 4666 
L 3928 4134 
L 1606 4134 
L 1338 2753 
L 3566 2753 
L 3463 2222 
L 1234 2222 
L 909 531 
L 3284 531 
L 3181 0 
L 172 0 
L 1081 4666 
z
" transform="scale(0.015625)"/>
       <path id="DejaVuSans-5d" d="M 1947 4863 
L 1947 -844 
L 622 -844 
L 622 -397 
L 1369 -397 
L 1369 4416 
L 622 4416 
L 622 4863 
L 1947 4863 
z
" transform="scale(0.015625)"/>
      </defs>
      <use xlink:href="#DejaVuSans-Oblique-7a" transform="translate(0 0.015625)"/>
      <use xlink:href="#DejaVuSans-20" transform="translate(52.490234 0.015625)"/>
      <use xlink:href="#DejaVuSans-5b" transform="translate(84.277344 0.015625)"/>
      <use xlink:href="#DejaVuSans-Oblique-52" transform="translate(123.291016 0.015625)"/>
      <use xlink:href="#DejaVuSans-Oblique-45" transform="translate(192.773438 -16.390625) scale(0.7)"/>
      <use xlink:href="#DejaVuSans-5d" transform="translate(239.736328 0.015625)"/>
     </g>
    </g>
   </g>
   <g id="matplotlib.axis_2">
    <g id="ytick_1">
     <g id="line2d_8">
      <defs>
       <path id="m3c3a9e64d7" d="M 0 0 
L -3.5 0 
" style="stroke: #000000; stroke-width: 0.8"/>
      </defs>
      <g>
       <use xlink:href="#m3c3a9e64d7" x="72" y="366.96" style="stroke: #000000; stroke-width: 0.8"/>
      </g>
     </g>
     <g id="text_9">
      <!-- −10 -->
      <g transform="translate(43.895313 370.759219) scale(0.1 -0.1)">
       <use xlink:href="#DejaVuSans-2212"/>
       <use xlink:href="#DejaVuSans-31" transform="translate(83.789062 0)"/>
       <use xlink:href="#DejaVuSans-30" transform="translate(147.412109 0)"/>
      </g>
     </g>
    </g>
    <g id="ytick_2">
     <g id="line2d_9">
      <g>
       <use xlink:href="#m3c3a9e64d7" x="72" y="307.44" style="stroke: #000000; stroke-width: 0.8"/>
      </g>
     </g>
     <g id="text_10">
      <!-- −5 -->
      <g transform="translate(50.257812 311.239219) scale(0.1 -0.1)">
       <use xlink:href="#DejaVuSans-2212"/>
       <use xlink:href="#DejaVuSans-35" transform="translate(83.789062 0)"/>
      </g>
     </g>
    </g>
    <g id="ytick_3">
     <g id="line2d_10">
      <g>
       <use xlink:href="#m3c3a9e64d7" x="72" y="247.92" style="stroke: #000000; stroke-width: 0.8"/>
      </g>
     </g>
     <g id="text_11">
      <!-- 0 -->
      <g transform="translate(58.6375 251.719219) scale(0.1 -0.1)">
       <use xlink:href="#DejaVuSans-30"/>
      </g>
     </g>
    </g>
    <g id="ytick_4">
     <g id="line2d_11">
      <g>
       <use xlink:href="#m3c3a9e64d7" x="72" y="188.4" style="stroke: #000000; stroke-width: 0.8"/>
      </g>
     </g>
     <g id="text_12">
      <!-- 5 -->
      <g transform="translate(58.6375 192.199219) scale(0.1 -0.1)">
       <use xlink:href="#DejaVuSans-35"/>
      </g>
     </g>
    </g>
    <g id="ytick_5">
     <g id="line2d_12">
      <g>
       <use xlink:href="#m3c3a9e64d7" x="72" y="128.88" style="stroke: #000000; stroke-width: 0.8"/>
      </g>
     </g>
     <g id="text_13">
      <!-- 10 -->
      <g transform="translate(52.275 132.679219) scale(0.1 -0.1)">
       <use xlink:href="#DejaVuSans-31"/>
       <use xlink:href="#DejaVuSans-30" transform="translate(63.623047 0)"/>
      </g>
     </g>
    </g>
    <g id="ytick_6">
     <g id="line2d_13">
      <g>
       <use xlink:href="#m3c3a9e64d7" x="72" y="69.36" style="stroke: #000000; stroke-width: 0.8"/>
      </g>
     </g>
     <g id="text_14">
      <!-- 15 -->
      <g transform="translate(52.275 73.159219) scale(0.1 -0.1)">
       <use xlink:href="#DejaVuSans-31"/>
       <use xlink:href="#DejaVuSans-35" transform="translate(63.623047 0)"/>
      </g>
     </g>
    </g>
    <g id="text_15">
     <!-- $x$ [$R_E$] -->
     <g transform="translate(37.815625 232.46) rotate(-90) scale(0.1 -0.1)">
      <defs>
       <path id="DejaVuSans-Oblique-78" d="M 3841 3500 
L 2234 1784 
L 3219 0 
L 2559 0 
L 1819 1388 
L 531 0 
L -166 0 
L 1556 1844 
L 641 3500 
L 1300 3500 
L 1972 2234 
L 3144 3500 
L 3841 3500 
z
" transform="scale(0.015625)"/>
      </defs>
      <use xlink:href="#DejaVuSans-Oblique-78" transform="translate(0 0.015625)"/>
      <use xlink:href="#DejaVuSans-20" transform="translate(59.179688 0.015625)"/>
      <use xlink:href="#DejaVuSans-5b" transform="translate(90.966797 0.015625)"/>
      <use xlink:href="#DejaVuSans-Oblique-52" transform="translate(129.980469 0.015625)"/>
      <use xlink:href="#DejaVuSans-Oblique-45" transform="translate(199.462891 -16.390625) scale(0.7)"/>
      <use xlink:href="#DejaVuSans-5d" transform="translate(246.425781 0.015625)"/>
     </g>
    </g>
   </g>
   <g id="line2d_14">
    <path d="M -1 298.223931 
L 4.962309 290.088755 
L 11.211173 281.884117 
L 17.400055 274.072645 
L 23.537379 266.630488 
L 29.631663 259.536396 
L 35.691615 252.771532 
L 41.726243 246.319341 
L 47.744972 240.165448 
L 53.757761 234.297607 
L 59.77523 228.705692 
L 65.808802 223.381721 
L 71.87085 218.31994 
L 77.974854 213.516946 
L 84.135575 208.971866 
L 90.369242 204.686598 
L 96.69374 200.666119 
L 103.128831 196.918871 
L 109.696366 193.457229 
L 116.420523 190.298082 
L 123.328046 187.463521 
L 130.448486 184.981665 
L 134.098614 183.883678 
L 137.814451 182.887652 
L 141.600587 181.999269 
L 145.461836 181.224803 
L 149.403235 180.571175 
L 153.430052 180.046002 
L 157.547793 179.657657 
L 161.762207 179.415329 
L 162.869875 175.214922 
L 163.629039 173.184579 
L 164.529911 171.211051 
L 165.561147 169.293584 
L 166.712268 167.431327 
L 167.973598 165.623354 
L 170.791846 162.166263 
L 173.952394 158.913914 
L 177.401224 155.857509 
L 181.092432 152.988124 
L 184.987065 150.29692 
L 189.052106 147.775297 
L 193.259613 145.414995 
L 197.585967 143.208176 
L 202.011242 141.14746 
L 206.518646 139.22596 
L 213.403489 136.59089 
L 220.403441 134.235288 
L 227.489074 132.142052 
L 234.637995 130.296327 
L 241.833279 128.685318 
L 249.062238 127.298095 
L 256.315465 126.125407 
L 263.586082 125.15949 
L 270.869159 124.39391 
L 278.16126 123.823404 
L 285.460094 123.443756 
L 292.764246 123.251676 
L 295.2 123.228884 
L 295.2 124.342457 
L 302.430346 124.644319 
L 309.632632 125.154405 
L 316.800992 125.877352 
L 323.928098 126.818532 
L 331.004904 127.984061 
L 338.020325 129.380792 
L 344.960883 131.016303 
L 351.81028 132.898857 
L 358.548906 135.037348 
L 365.153272 137.441203 
L 371.595348 140.120261 
L 375.783691 142.064156 
L 379.873861 144.137822 
L 383.853153 146.344204 
L 387.707376 148.686152 
L 391.420698 151.166364 
L 394.975479 153.78732 
L 398.352088 156.551192 
L 401.5287 159.459759 
L 404.481084 162.514284 
L 407.182367 165.71539 
L 409.602775 169.062907 
L 411.709359 172.555694 
L 413.465701 176.19144 
L 414.831586 179.966426 
L 415.354418 181.904523 
L 416.114639 185.844501 
L 420.230434 185.916851 
L 424.298619 186.112547 
L 428.320331 186.42688 
L 432.296761 186.855437 
L 440.11874 188.038988 
L 447.774838 189.633396 
L 455.275747 191.612872 
L 462.632425 193.955319 
L 469.855958 196.642043 
L 476.95747 199.657493 
L 483.948032 202.989039 
L 490.838613 206.626774 
L 497.640027 210.563343 
L 504.362907 214.793804 
L 511.017686 219.31551 
L 517.61459 224.128018 
L 524.163637 229.23302 
L 530.674648 234.634304 
L 537.157264 240.337732 
L 543.620966 246.351249 
L 550.075104 252.684913 
L 556.528927 259.350957 
L 562.991628 266.363878 
L 569.472375 273.740552 
L 577 282.75825 
L 577 282.75825 
" clip-path="url(#p19ed1cdbba)" style="fill: none; stroke-dasharray: 9.6,2.4,1.5,2.4; stroke-dashoffset: 0; stroke: #333333; stroke-width: 1.5"/>
   </g>
   <g id="line2d_15">
    <path d="M -1 299.400338 
L 4.529888 291.884264 
L 10.832689 283.628557 
L 17.073447 275.772309 
L 23.259726 268.29129 
L 29.399016 261.163826 
L 35.498823 254.370593 
L 41.566756 247.894451 
L 47.610636 241.720317 
L 53.638607 235.835083 
L 59.659265 230.227562 
L 65.681804 224.888491 
L 71.71619 219.810567 
L 77.773359 214.988542 
L 83.865463 210.419376 
L 90.006156 206.102465 
L 96.210946 202.039961 
L 102.497628 198.2372 
L 107.599676 195.387979 
L 112.779378 192.717437 
L 118.050537 190.234445 
L 123.428956 187.950445 
L 128.932823 185.879947 
L 134.583171 184.041154 
L 138.931621 182.82757 
L 143.38793 181.768509 
L 147.965386 180.877523 
L 152.679 180.170527 
L 157.545784 179.666209 
L 160.884837 179.45329 
L 161.896916 179.030909 
L 162.454946 176.470225 
L 163.213547 173.973564 
L 164.160005 171.543132 
L 165.282097 169.180714 
L 166.568095 166.887705 
L 168.518368 163.940064 
L 170.714817 161.119143 
L 173.133677 158.425519 
L 175.752686 155.858926 
L 178.551055 153.41835 
L 181.509435 151.102128 
L 185.405219 148.378282 
L 189.491013 145.839849 
L 193.73794 143.480526 
L 198.120163 141.293308 
L 202.614735 139.270689 
L 208.128228 137.049787 
L 213.744396 135.040863 
L 219.437989 133.230204 
L 226.150831 131.350614 
L 232.914649 129.70279 
L 239.709652 128.268471 
L 247.495457 126.87008 
L 255.289431 125.709332 
L 263.083611 124.770486 
L 270.874467 124.042372 
L 278.661355 123.51813 
L 286.445155 123.194412 
L 294.227278 123.070022 
L 302.009215 123.144657 
L 309.792245 123.420279 
L 317.575126 123.910842 
L 324.379057 124.537854 
L 331.166544 125.37194 
L 337.922368 126.434297 
L 343.67308 127.541499 
L 349.371346 128.841992 
L 355.000285 130.345643 
L 360.541062 132.060964 
L 365.973017 133.995043 
L 371.273775 136.153462 
L 375.573608 138.126448 
L 379.751059 140.259461 
L 383.790819 142.553089 
L 387.676977 145.007038 
L 391.393077 147.620098 
L 394.922185 150.390103 
L 398.246952 153.313892 
L 401.349683 156.387273 
L 404.212416 159.604987 
L 406.317608 162.278841 
L 408.248238 165.037243 
L 409.994943 167.87594 
L 411.548377 170.790198 
L 412.899239 173.774791 
L 414.038311 176.823995 
L 414.956487 179.931581 
L 415.64481 183.090808 
L 416.004927 185.489775 
L 416.967394 185.849474 
L 421.846237 185.995073 
L 426.622962 186.329569 
L 431.306249 186.840123 
L 435.903991 187.515474 
L 441.913585 188.655409 
L 447.799177 190.05081 
L 453.574446 191.684862 
L 459.251626 193.543552 
L 464.84171 195.615276 
L 470.354617 197.890513 
L 475.79934 200.361564 
L 481.184071 203.022327 
L 486.516308 205.868122 
L 491.802947 208.895537 
L 498.356794 212.931866 
L 504.860805 217.246388 
L 511.325547 221.839307 
L 517.76083 226.712983 
L 524.175844 231.871817 
L 530.579283 237.322171 
L 536.979449 243.072334 
L 543.384344 249.132525 
L 549.801762 255.514927 
L 556.239367 262.233755 
L 562.704762 269.305367 
L 569.20557 276.748395 
L 575.749496 284.583926 
L 577 286.121316 
L 577 286.121316 
" clip-path="url(#p19ed1cdbba)" style="fill: none; stroke: #333333; stroke-width: 1.5; stroke-linecap: square"/>
   </g>
   <g id="patch_3">
    <path d="M 72 366.96 
L 72 69.36 
" style="fill: none; stroke: #000000; stroke-width: 0.8; stroke-linejoin: miter; stroke-linecap: square"/>
   </g>
   <g id="patch_4">
    <path d="M 518.4 366.96 
L 518.4 69.36 
" style="fill: none; stroke: #000000; stroke-width: 0.8; stroke-linejoin: miter; stroke-linecap: square"/>
   </g>
   <g id="patch_5">
    <path d="M 72 366.96 
L 518.4 366.96 
" style="fill: none; stroke: #000000; stroke-width: 0.8; stroke-linejoin: miter; stroke-linecap: square"/>
   </g>
   <g id="patch_6">
    <path d="M 72 69.36 
L 518.4 69.36 
" style="fill: none; stroke: #000000; stroke-width: 0.8; stroke-linejoin: miter; stroke-linecap: square"/>
   </g>
   <g id="text_16">
    <!-- Liu12 cusps model vs mine -->
    <g transform="translate(213.597187 20.474625) scale(0.12 -0.12)">
     <defs>
      <path id="DejaVuSans-4c" d="M 628 4666 
L 1259 4666 
L 1259 531 
L 3531 531 
L 3531 0 
L 628 0 
L 628 4666 
z
" transform="scale(0.015625)"/>
      <path id="DejaVuSans-69" d="M 603 3500 
L 1178 3500 
L 1178 0 
L 603 0 
L 603 3500 
z
M 603 4863 
L 1178 4863 
L 1178 4134 
L 603 4134 
L 603 4863 
z
" transform="scale(0.015625)"/>
      <path id="DejaVuSans-75" d="M 544 1381 
L 544 3500 
L 1119 3500 
L 1119 1403 
Q 1119 906 1312 657 
Q 1506 409 1894 409 
Q 2359 409 2629 706 
Q 2900 1003 2900 1516 
L 2900 3500 
L 3475 3500 
L 3475 0 
L 2900 0 
L 2900 538 
Q 2691 219 2414 64 
Q 2138 -91 1772 -91 
Q 1169 -91 856 284 
Q 544 659 544 1381 
z
M 1991 3584 
L 1991 3584 
z
" transform="scale(0.015625)"/>
      <path id="DejaVuSans-32" d="M 1228 531 
L 3431 531 
L 3431 0 
L 469 0 
L 469 531 
Q 828 903 1448 1529 
Q 2069 2156 2228 2338 
Q 2531 2678 2651 2914 
Q 2772 3150 2772 3378 
Q 2772 3750 2511 3984 
Q 2250 4219 1831 4219 
Q 1534 4219 1204 4116 
Q 875 4013 500 3803 
L 500 4441 
Q 881 4594 1212 4672 
Q 1544 4750 1819 4750 
Q 2544 4750 2975 4387 
Q 3406 4025 3406 3419 
Q 3406 3131 3298 2873 
Q 3191 2616 2906 2266 
Q 2828 2175 2409 1742 
Q 1991 1309 1228 531 
z
" transform="scale(0.015625)"/>
      <path id="DejaVuSans-63" d="M 3122 3366 
L 3122 2828 
Q 2878 2963 2633 3030 
Q 2388 3097 2138 3097 
Q 1578 3097 1268 2742 
Q 959 2388 959 1747 
Q 959 1106 1268 751 
Q 1578 397 2138 397 
Q 2388 397 2633 464 
Q 2878 531 3122 666 
L 3122 134 
Q 2881 22 2623 -34 
Q 2366 -91 2075 -91 
Q 1284 -91 818 406 
Q 353 903 353 1747 
Q 353 2603 823 3093 
Q 1294 3584 2113 3584 
Q 2378 3584 2631 3529 
Q 2884 3475 3122 3366 
z
" transform="scale(0.015625)"/>
      <path id="DejaVuSans-73" d="M 2834 3397 
L 2834 2853 
Q 2591 2978 2328 3040 
Q 2066 3103 1784 3103 
Q 1356 3103 1142 2972 
Q 928 2841 928 2578 
Q 928 2378 1081 2264 
Q 1234 2150 1697 2047 
L 1894 2003 
Q 2506 1872 2764 1633 
Q 3022 1394 3022 966 
Q 3022 478 2636 193 
Q 2250 -91 1575 -91 
Q 1294 -91 989 -36 
Q 684 19 347 128 
L 347 722 
Q 666 556 975 473 
Q 1284 391 1588 391 
Q 1994 391 2212 530 
Q 2431 669 2431 922 
Q 2431 1156 2273 1281 
Q 2116 1406 1581 1522 
L 1381 1569 
Q 847 1681 609 1914 
Q 372 2147 372 2553 
Q 372 3047 722 3315 
Q 1072 3584 1716 3584 
Q 2034 3584 2315 3537 
Q 2597 3491 2834 3397 
z
" transform="scale(0.015625)"/>
      <path id="DejaVuSans-70" d="M 1159 525 
L 1159 -1331 
L 581 -1331 
L 581 3500 
L 1159 3500 
L 1159 2969 
Q 1341 3281 1617 3432 
Q 1894 3584 2278 3584 
Q 2916 3584 3314 3078 
Q 3713 2572 3713 1747 
Q 3713 922 3314 415 
Q 2916 -91 2278 -91 
Q 1894 -91 1617 61 
Q 1341 213 1159 525 
z
M 3116 1747 
Q 3116 2381 2855 2742 
Q 2594 3103 2138 3103 
Q 1681 3103 1420 2742 
Q 1159 2381 1159 1747 
Q 1159 1113 1420 752 
Q 1681 391 2138 391 
Q 2594 391 2855 752 
Q 3116 1113 3116 1747 
z
" transform="scale(0.015625)"/>
      <path id="DejaVuSans-6d" d="M 3328 2828 
Q 3544 3216 3844 3400 
Q 4144 3584 4550 3584 
Q 5097 3584 5394 3201 
Q 5691 2819 5691 2113 
L 5691 0 
L 5113 0 
L 5113 2094 
Q 5113 2597 4934 2840 
Q 4756 3084 4391 3084 
Q 3944 3084 3684 2787 
Q 3425 2491 3425 1978 
L 3425 0 
L 2847 0 
L 2847 2094 
Q 2847 2600 2669 2842 
Q 2491 3084 2119 3084 
Q 1678 3084 1418 2786 
Q 1159 2488 1159 1978 
L 1159 0 
L 581 0 
L 581 3500 
L 1159 3500 
L 1159 2956 
Q 1356 3278 1631 3431 
Q 1906 3584 2284 3584 
Q 2666 3584 2933 3390 
Q 3200 3197 3328 2828 
z
" transform="scale(0.015625)"/>
      <path id="DejaVuSans-6f" d="M 1959 3097 
Q 1497 3097 1228 2736 
Q 959 2375 959 1747 
Q 959 1119 1226 758 
Q 1494 397 1959 397 
Q 2419 397 2687 759 
Q 2956 1122 2956 1747 
Q 2956 2369 2687 2733 
Q 2419 3097 1959 3097 
z
M 1959 3584 
Q 2709 3584 3137 3096 
Q 3566 2609 3566 1747 
Q 3566 888 3137 398 
Q 2709 -91 1959 -91 
Q 1206 -91 779 398 
Q 353 888 353 1747 
Q 353 2609 779 3096 
Q 1206 3584 1959 3584 
z
" transform="scale(0.015625)"/>
      <path id="DejaVuSans-64" d="M 2906 2969 
L 2906 4863 
L 3481 4863 
L 3481 0 
L 2906 0 
L 2906 525 
Q 2725 213 2448 61 
Q 2172 -91 1784 -91 
Q 1150 -91 751 415 
Q 353 922 353 1747 
Q 353 2572 751 3078 
Q 1150 3584 1784 3584 
Q 2172 3584 2448 3432 
Q 2725 3281 2906 2969 
z
M 947 1747 
Q 947 1113 1208 752 
Q 1469 391 1925 391 
Q 2381 391 2643 752 
Q 2906 1113 2906 1747 
Q 2906 2381 2643 2742 
Q 2381 3103 1925 3103 
Q 1469 3103 1208 2742 
Q 947 2381 947 1747 
z
" transform="scale(0.015625)"/>
      <path id="DejaVuSans-65" d="M 3597 1894 
L 3597 1613 
L 953 1613 
Q 991 1019 1311 708 
Q 1631 397 2203 397 
Q 2534 397 2845 478 
Q 3156 559 3463 722 
L 3463 178 
Q 3153 47 2828 -22 
Q 2503 -91 2169 -91 
Q 1331 -91 842 396 
Q 353 884 353 1716 
Q 353 2575 817 3079 
Q 1281 3584 2069 3584 
Q 2775 3584 3186 3129 
Q 3597 2675 3597 1894 
z
M 3022 2063 
Q 3016 2534 2758 2815 
Q 2500 3097 2075 3097 
Q 1594 3097 1305 2825 
Q 1016 2553 972 2059 
L 3022 2063 
z
" transform="scale(0.015625)"/>
      <path id="DejaVuSans-6c" d="M 603 4863 
L 1178 4863 
L 1178 0 
L 603 0 
L 603 4863 
z
" transform="scale(0.015625)"/>
      <path id="DejaVuSans-76" d="M 191 3500 
L 800 3500 
L 1894 563 
L 2988 3500 
L 3597 3500 
L 2284 0 
L 1503 0 
L 191 3500 
z
" transform="scale(0.015625)"/>
      <path id="DejaVuSans-6e" d="M 3513 2113 
L 3513 0 
L 2938 0 
L 2938 2094 
Q 2938 2591 2744 2837 
Q 2550 3084 2163 3084 
Q 1697 3084 1428 2787 
Q 1159 2491 1159 1978 
L 1159 0 
L 581 0 
L 581 3500 
L 1159 3500 
L 1159 2956 
Q 1366 3272 1645 3428 
Q 1925 3584 2291 3584 
Q 2894 3584 3203 3211 
Q 3513 2838 3513 2113 
z
" transform="scale(0.015625)"/>
     </defs>
     <use xlink:href="#DejaVuSans-4c"/>
     <use xlink:href="#DejaVuSans-69" transform="translate(55.712891 0)"/>
     <use xlink:href="#DejaVuSans-75" transform="translate(83.496094 0)"/>
     <use xlink:href="#DejaVuSans-31" transform="translate(146.875 0)"/>
     <use xlink:href="#DejaVuSans-32" transform="translate(210.498047 0)"/>
     <use xlink:href="#DejaVuSans-20" transform="translate(274.121094 0)"/>
     <use xlink:href="#DejaVuSans-63" transform="translate(305.908203 0)"/>
     <use xlink:href="#DejaVuSans-75" transform="translate(360.888672 0)"/>
     <use xlink:href="#DejaVuSans-73" transform="translate(424.267578 0)"/>
     <use xlink:href="#DejaVuSans-70" transform="translate(476.367188 0)"/>
     <use xlink:href="#DejaVuSans-73" transform="translate(539.84375 0)"/>
     <use xlink:href="#DejaVuSans-20" transform="translate(591.943359 0)"/>
     <use xlink:href="#DejaVuSans-6d" transform="translate(623.730469 0)"/>
     <use xlink:href="#DejaVuSans-6f" transform="translate(721.142578 0)"/>
     <use xlink:href="#DejaVuSans-64" transform="translate(782.324219 0)"/>
     <use xlink:href="#DejaVuSans-65" transform="translate(845.800781 0)"/>
     <use xlink:href="#DejaVuSans-6c" transform="translate(907.324219 0)"/>
     <use xlink:href="#DejaVuSans-20" transform="translate(935.107422 0)"/>
     <use xlink:href="#DejaVuSans-76" transform="translate(966.894531 0)"/>
     <use xlink:href="#DejaVuSans-73" transform="translate(1026.074219 0)"/>
     <use xlink:href="#DejaVuSans-20" transform="translate(1078.173828 0)"/>
     <use xlink:href="#DejaVuSans-6d" transform="translate(1109.960938 0)"/>
     <use xlink:href="#DejaVuSans-69" transform="translate(1207.373047 0)"/>
     <use xlink:href="#DejaVuSans-6e" transform="translate(1235.15625 0)"/>
     <use xlink:href="#DejaVuSans-65" transform="translate(1298.535156 0)"/>
    </g>
    <!-- $\dfrac{d_N}{d_S} = 1.5$, $\ell_N = \ell_S = 1$ and $\dfrac{s_N}{s_S} = 1.5$ -->
    <g transform="translate(197.76 42.69825) scale(0.12 -0.12)">
     <defs>
      <path id="DejaVuSans-Oblique-64" d="M 2675 525 
Q 2444 222 2128 65 
Q 1813 -91 1428 -91 
Q 903 -91 598 267 
Q 294 625 294 1247 
Q 294 1766 478 2236 
Q 663 2706 1013 3078 
Q 1244 3325 1534 3454 
Q 1825 3584 2144 3584 
Q 2481 3584 2739 3421 
Q 2997 3259 3138 2956 
L 3513 4863 
L 4091 4863 
L 3144 0 
L 2566 0 
L 2675 525 
z
M 891 1350 
Q 891 897 1095 644 
Q 1300 391 1663 391 
Q 1931 391 2161 520 
Q 2391 650 2566 903 
Q 2750 1166 2856 1509 
Q 2963 1853 2963 2188 
Q 2963 2622 2758 2865 
Q 2553 3109 2194 3109 
Q 1922 3109 1687 2981 
Q 1453 2853 1288 2613 
Q 1106 2353 998 2009 
Q 891 1666 891 1350 
z
" transform="scale(0.015625)"/>
      <path id="DejaVuSans-Oblique-4e" d="M 1081 4666 
L 1931 4666 
L 3219 666 
L 4000 4666 
L 4616 4666 
L 3706 0 
L 2853 0 
L 1569 4025 
L 788 0 
L 172 0 
L 1081 4666 
z
" transform="scale(0.015625)"/>
      <path id="DejaVuSans-Oblique-53" d="M 3859 4513 
L 3738 3897 
Q 3422 4066 3111 4152 
Q 2800 4238 2509 4238 
Q 1944 4238 1609 3991 
Q 1275 3744 1275 3334 
Q 1275 3109 1398 2989 
Q 1522 2869 2034 2731 
L 2413 2638 
Q 3053 2472 3303 2217 
Q 3553 1963 3553 1503 
Q 3553 797 2998 353 
Q 2444 -91 1538 -91 
Q 1166 -91 791 -17 
Q 416 56 38 206 
L 166 856 
Q 513 641 861 531 
Q 1209 422 1556 422 
Q 2147 422 2503 684 
Q 2859 947 2859 1369 
Q 2859 1650 2717 1795 
Q 2575 1941 2106 2059 
L 1728 2156 
Q 1081 2325 845 2545 
Q 609 2766 609 3163 
Q 609 3859 1145 4304 
Q 1681 4750 2541 4750 
Q 2875 4750 3203 4690 
Q 3531 4631 3859 4513 
z
" transform="scale(0.015625)"/>
      <path id="DejaVuSans-3d" d="M 678 2906 
L 4684 2906 
L 4684 2381 
L 678 2381 
L 678 2906 
z
M 678 1631 
L 4684 1631 
L 4684 1100 
L 678 1100 
L 678 1631 
z
" transform="scale(0.015625)"/>
      <path id="DejaVuSans-2e" d="M 684 794 
L 1344 794 
L 1344 0 
L 684 0 
L 684 794 
z
" transform="scale(0.015625)"/>
      <path id="DejaVuSans-2c" d="M 750 794 
L 1409 794 
L 1409 256 
L 897 -744 
L 494 -744 
L 750 256 
L 750 794 
z
" transform="scale(0.015625)"/>
      <path id="DejaVuSans-Oblique-2113" d="M 950 838 
Q 1078 213 1350 213 
Q 1531 213 1766 572 
L 2181 572 
Q 1994 253 1775 88 
Q 1538 -91 1319 -91 
Q 831 -91 634 344 
L 400 0 
L -88 0 
Q 250 459 500 888 
Q 469 1131 469 1397 
Q 469 1872 566 2347 
Q 931 4131 1256 4497 
Q 1481 4750 1866 4750 
Q 2256 4750 2256 4209 
Q 2253 3966 2197 3675 
Q 1972 2484 950 838 
z
M 947 1656 
Q 1531 2744 1709 3613 
Q 1803 4072 1803 4191 
Q 1803 4406 1725 4406 
Q 1384 4134 1081 2516 
Q 997 2063 947 1656 
z
" transform="scale(0.015625)"/>
      <path id="DejaVuSans-61" d="M 2194 1759 
Q 1497 1759 1228 1600 
Q 959 1441 959 1056 
Q 959 750 1161 570 
Q 1363 391 1709 391 
Q 2188 391 2477 730 
Q 2766 1069 2766 1631 
L 2766 1759 
L 2194 1759 
z
M 3341 1997 
L 3341 0 
L 2766 0 
L 2766 531 
Q 2569 213 2275 61 
Q 1981 -91 1556 -91 
Q 1019 -91 701 211 
Q 384 513 384 1019 
Q 384 1609 779 1909 
Q 1175 2209 1959 2209 
L 2766 2209 
L 2766 2266 
Q 2766 2663 2505 2880 
Q 2244 3097 1772 3097 
Q 1472 3097 1187 3025 
Q 903 2953 641 2809 
L 641 3341 
Q 956 3463 1253 3523 
Q 1550 3584 1831 3584 
Q 2591 3584 2966 3190 
Q 3341 2797 3341 1997 
z
" transform="scale(0.015625)"/>
      <path id="DejaVuSans-Oblique-73" d="M 3200 3397 
L 3091 2853 
Q 2863 2978 2609 3040 
Q 2356 3103 2088 3103 
Q 1634 3103 1373 2948 
Q 1113 2794 1113 2528 
Q 1113 2219 1719 2053 
Q 1766 2041 1788 2034 
L 1972 1978 
Q 2547 1819 2739 1644 
Q 2931 1469 2931 1166 
Q 2931 609 2489 259 
Q 2047 -91 1331 -91 
Q 1053 -91 747 -37 
Q 441 16 72 128 
L 184 722 
Q 500 559 806 475 
Q 1113 391 1394 391 
Q 1816 391 2080 572 
Q 2344 753 2344 1031 
Q 2344 1331 1650 1516 
L 1591 1531 
L 1394 1581 
Q 956 1697 753 1886 
Q 550 2075 550 2369 
Q 550 2928 970 3256 
Q 1391 3584 2113 3584 
Q 2397 3584 2667 3537 
Q 2938 3491 3200 3397 
z
" transform="scale(0.015625)"/>
     </defs>
     <use xlink:href="#DejaVuSans-Oblique-64" transform="translate(0 61.015625)"/>
     <use xlink:href="#DejaVuSans-Oblique-4e" transform="translate(63.476562 44.609375) scale(0.7)"/>
     <use xlink:href="#DejaVuSans-Oblique-64" transform="translate(4 -62.625)"/>
     <use xlink:href="#DejaVuSans-Oblique-53" transform="translate(67.476562 -79.03125) scale(0.7)"/>
     <use xlink:href="#DejaVuSans-3d" transform="translate(150.556641 0.8125)"/>
     <use xlink:href="#DejaVuSans-31" transform="translate(253.828125 0.8125)"/>
     <use xlink:href="#DejaVuSans-2e" transform="translate(317.451172 0.8125)"/>
     <use xlink:href="#DejaVuSans-35" transform="translate(349.238281 0.8125)"/>
     <use xlink:href="#DejaVuSans-2c" transform="translate(412.861328 0.8125)"/>
     <use xlink:href="#DejaVuSans-20" transform="translate(444.648438 0.8125)"/>
     <use xlink:href="#DejaVuSans-Oblique-2113" transform="translate(476.435547 0.8125)"/>
     <use xlink:href="#DejaVuSans-Oblique-4e" transform="translate(517.744141 -15.59375) scale(0.7)"/>
     <use xlink:href="#DejaVuSans-3d" transform="translate(592.324219 0.8125)"/>
     <use xlink:href="#DejaVuSans-Oblique-2113" transform="translate(695.595703 0.8125)"/>
     <use xlink:href="#DejaVuSans-Oblique-53" transform="translate(736.904297 -15.59375) scale(0.7)"/>
     <use xlink:href="#DejaVuSans-3d" transform="translate(803.554688 0.8125)"/>
     <use xlink:href="#DejaVuSans-31" transform="translate(906.826172 0.8125)"/>
     <use xlink:href="#DejaVuSans-20" transform="translate(970.449219 0.8125)"/>
     <use xlink:href="#DejaVuSans-61" transform="translate(1002.236328 0.8125)"/>
     <use xlink:href="#DejaVuSans-6e" transform="translate(1063.515625 0.8125)"/>
     <use xlink:href="#DejaVuSans-64" transform="translate(1126.894531 0.8125)"/>
     <use xlink:href="#DejaVuSans-20" transform="translate(1190.371094 0.8125)"/>
     <use xlink:href="#DejaVuSans-Oblique-73" transform="translate(1222.158203 61.015625)"/>
     <use xlink:href="#DejaVuSans-Oblique-4e" transform="translate(1274.257812 44.609375) scale(0.7)"/>
     <use xlink:href="#DejaVuSans-Oblique-73" transform="translate(1226.158203 -42.640625)"/>
     <use xlink:href="#DejaVuSans-Oblique-53" transform="translate(1278.257812 -59.046875) scale(0.7)"/>
     <use xlink:href="#DejaVuSans-3d" transform="translate(1361.337891 0.8125)"/>
     <use xlink:href="#DejaVuSans-31" transform="translate(1464.609375 0.8125)"/>
     <use xlink:href="#DejaVuSans-2e" transform="translate(1528.232422 0.8125)"/>
     <use xlink:href="#DejaVuSans-35" transform="translate(1560.019531 0.8125)"/>
     <path d="M 0 19.609375 
L 0 25.859375 
L 118.574219 25.859375 
L 118.574219 19.609375 
L 0 19.609375 
z
"/>
     <path d="M 1222.158203 19.609375 
L 1222.158203 25.859375 
L 1329.355469 25.859375 
L 1329.355469 19.609375 
L 1222.158203 19.609375 
z
"/>
    </g>
    <!--  -->
    <g transform="translate(295.2 63.36) scale(0.12 -0.12)"/>
   </g>
   <g id="legend_1">
    <g id="patch_7">
     <path d="M 385.889062 121.394375 
L 511.4 121.394375 
Q 513.4 121.394375 513.4 119.394375 
L 513.4 76.36 
Q 513.4 74.36 511.4 74.36 
L 385.889062 74.36 
Q 383.889062 74.36 383.889062 76.36 
L 383.889062 119.394375 
Q 383.889062 121.394375 385.889062 121.394375 
z
" style="fill: #ffffff; opacity: 0.8; stroke: #cccccc; stroke-linejoin: miter"/>
    </g>
    <g id="line2d_16">
     <path d="M 387.889062 82.458438 
L 397.889062 82.458438 
L 407.889062 82.458438 
" style="fill: none; stroke-dasharray: 9.6,2.4,1.5,2.4; stroke-dashoffset: 0; stroke: #333333; stroke-width: 1.5"/>
    </g>
    <g id="text_17">
     <!-- Liu12 cusps model -->
     <g transform="translate(415.889062 85.958438) scale(0.1 -0.1)">
      <use xlink:href="#DejaVuSans-4c"/>
      <use xlink:href="#DejaVuSans-69" transform="translate(55.712891 0)"/>
      <use xlink:href="#DejaVuSans-75" transform="translate(83.496094 0)"/>
      <use xlink:href="#DejaVuSans-31" transform="translate(146.875 0)"/>
      <use xlink:href="#DejaVuSans-32" transform="translate(210.498047 0)"/>
      <use xlink:href="#DejaVuSans-20" transform="translate(274.121094 0)"/>
      <use xlink:href="#DejaVuSans-63" transform="translate(305.908203 0)"/>
      <use xlink:href="#DejaVuSans-75" transform="translate(360.888672 0)"/>
      <use xlink:href="#DejaVuSans-73" transform="translate(424.267578 0)"/>
      <use xlink:href="#DejaVuSans-70" transform="translate(476.367188 0)"/>
      <use xlink:href="#DejaVuSans-73" transform="translate(539.84375 0)"/>
      <use xlink:href="#DejaVuSans-20" transform="translate(591.943359 0)"/>
      <use xlink:href="#DejaVuSans-6d" transform="translate(623.730469 0)"/>
      <use xlink:href="#DejaVuSans-6f" transform="translate(721.142578 0)"/>
      <use xlink:href="#DejaVuSans-64" transform="translate(782.324219 0)"/>
      <use xlink:href="#DejaVuSans-65" transform="translate(845.800781 0)"/>
      <use xlink:href="#DejaVuSans-6c" transform="translate(907.324219 0)"/>
     </g>
    </g>
    <g id="line2d_17">
     <path d="M 387.889062 97.136563 
L 397.889062 97.136563 
L 407.889062 97.136563 
" style="fill: none; stroke: #333333; stroke-width: 1.5; stroke-linecap: square"/>
    </g>
    <g id="text_18">
     <!-- My cusps model -->
     <g transform="translate(415.889062 100.636563) scale(0.1 -0.1)">
      <defs>
       <path id="DejaVuSans-4d" d="M 628 4666 
L 1569 4666 
L 2759 1491 
L 3956 4666 
L 4897 4666 
L 4897 0 
L 4281 0 
L 4281 4097 
L 3078 897 
L 2444 897 
L 1241 4097 
L 1241 0 
L 628 0 
L 628 4666 
z
" transform="scale(0.015625)"/>
       <path id="DejaVuSans-79" d="M 2059 -325 
Q 1816 -950 1584 -1140 
Q 1353 -1331 966 -1331 
L 506 -1331 
L 506 -850 
L 844 -850 
Q 1081 -850 1212 -737 
Q 1344 -625 1503 -206 
L 1606 56 
L 191 3500 
L 800 3500 
L 1894 763 
L 2988 3500 
L 3597 3500 
L 2059 -325 
z
" transform="scale(0.015625)"/>
      </defs>
      <use xlink:href="#DejaVuSans-4d"/>
      <use xlink:href="#DejaVuSans-79" transform="translate(86.279297 0)"/>
      <use xlink:href="#DejaVuSans-20" transform="translate(145.458984 0)"/>
      <use xlink:href="#DejaVuSans-63" transform="translate(177.246094 0)"/>
      <use xlink:href="#DejaVuSans-75" transform="translate(232.226562 0)"/>
      <use xlink:href="#DejaVuSans-73" transform="translate(295.605469 0)"/>
      <use xlink:href="#DejaVuSans-70" transform="translate(347.705078 0)"/>
      <use xlink:href="#DejaVuSans-73" transform="translate(411.181641 0)"/>
      <use xlink:href="#DejaVuSans-20" transform="translate(463.28125 0)"/>
      <use xlink:href="#DejaVuSans-6d" transform="translate(495.068359 0)"/>
      <use xlink:href="#DejaVuSans-6f" transform="translate(592.480469 0)"/>
      <use xlink:href="#DejaVuSans-64" transform="translate(653.662109 0)"/>
      <use xlink:href="#DejaVuSans-65" transform="translate(717.138672 0)"/>
      <use xlink:href="#DejaVuSans-6c" transform="translate(778.662109 0)"/>
     </g>
    </g>
    <g id="PathCollection_2">
     <g>
      <use xlink:href="#m53a6f0c1ee" x="397.889062" y="112.689687" style="fill: #333333; stroke: #333333; stroke-width: 1.5"/>
     </g>
    </g>
    <g id="text_19">
     <!-- Earth -->
     <g transform="translate(415.889062 115.314687) scale(0.1 -0.1)">
      <defs>
       <path id="DejaVuSans-45" d="M 628 4666 
L 3578 4666 
L 3578 4134 
L 1259 4134 
L 1259 2753 
L 3481 2753 
L 3481 2222 
L 1259 2222 
L 1259 531 
L 3634 531 
L 3634 0 
L 628 0 
L 628 4666 
z
" transform="scale(0.015625)"/>
       <path id="DejaVuSans-72" d="M 2631 2963 
Q 2534 3019 2420 3045 
Q 2306 3072 2169 3072 
Q 1681 3072 1420 2755 
Q 1159 2438 1159 1844 
L 1159 0 
L 581 0 
L 581 3500 
L 1159 3500 
L 1159 2956 
Q 1341 3275 1631 3429 
Q 1922 3584 2338 3584 
Q 2397 3584 2469 3576 
Q 2541 3569 2628 3553 
L 2631 2963 
z
" transform="scale(0.015625)"/>
       <path id="DejaVuSans-74" d="M 1172 4494 
L 1172 3500 
L 2356 3500 
L 2356 3053 
L 1172 3053 
L 1172 1153 
Q 1172 725 1289 603 
Q 1406 481 1766 481 
L 2356 481 
L 2356 0 
L 1766 0 
Q 1100 0 847 248 
Q 594 497 594 1153 
L 594 3053 
L 172 3053 
L 172 3500 
L 594 3500 
L 594 4494 
L 1172 4494 
z
" transform="scale(0.015625)"/>
       <path id="DejaVuSans-68" d="M 3513 2113 
L 3513 0 
L 2938 0 
L 2938 2094 
Q 2938 2591 2744 2837 
Q 2550 3084 2163 3084 
Q 1697 3084 1428 2787 
Q 1159 2491 1159 1978 
L 1159 0 
L 581 0 
L 581 4863 
L 1159 4863 
L 1159 2956 
Q 1366 3272 1645 3428 
Q 1925 3584 2291 3584 
Q 2894 3584 3203 3211 
Q 3513 2838 3513 2113 
z
" transform="scale(0.015625)"/>
      </defs>
      <use xlink:href="#DejaVuSans-45"/>
      <use xlink:href="#DejaVuSans-61" transform="translate(63.183594 0)"/>
      <use xlink:href="#DejaVuSans-72" transform="translate(124.462891 0)"/>
      <use xlink:href="#DejaVuSans-74" transform="translate(165.576172 0)"/>
      <use xlink:href="#DejaVuSans-68" transform="translate(204.785156 0)"/>
     </g>
    </g>
   </g>
  </g>
 </g>
 <defs>
  <clipPath id="p19ed1cdbba">
   <rect x="72" y="69.36" width="446.4" height="297.6"/>
  </clipPath>
 </defs>
</svg>
