<?xml version="1.0" encoding="utf-8" standalone="no"?>
<!DOCTYPE svg PUBLIC "-//W3C//DTD SVG 1.1//EN"
  "http://www.w3.org/Graphics/SVG/1.1/DTD/svg11.dtd">
<svg xmlns:xlink="http://www.w3.org/1999/xlink" width="576pt" height="432pt" viewBox="0 0 576 432" xmlns="http://www.w3.org/2000/svg" version="1.1">
 <metadata>
  <rdf:RDF xmlns:dc="http://purl.org/dc/elements/1.1/" xmlns:cc="http://creativecommons.org/ns#" xmlns:rdf="http://www.w3.org/1999/02/22-rdf-syntax-ns#">
   <cc:Work>
    <dc:type rdf:resource="http://purl.org/dc/dcmitype/StillImage"/>
    <dc:date>2025-07-10T10:17:35.083311</dc:date>
    <dc:format>image/svg+xml</dc:format>
    <dc:creator>
     <cc:Agent>
      <dc:title>Matplotlib v3.10.3, https://matplotlib.org/</dc:title>
     </cc:Agent>
    </dc:creator>
   </cc:Work>
  </rdf:RDF>
 </metadata>
 <defs>
  <style type="text/css">*{stroke-linejoin: round; stroke-linecap: butt}</style>
 </defs>
 <g id="figure_1">
  <g id="patch_1">
   <path d="M 0 432 
L 576 432 
L 576 0 
L 0 0 
z
" style="fill: #ffffff"/>
  </g>
  <g id="axes_1">
   <g id="patch_2">
    <path d="M 72 366.96 
L 518.4 366.96 
L 518.4 69.36 
L 72 69.36 
z
" style="fill: #ffffff"/>
   </g>
   <g id="PathCollection_1">
    <defs>
     <path id="m429a7cf0fe" d="M -3 3 
L 3 -3 
M -3 -3 
L 3 3 
" style="stroke: #333333; stroke-width: 1.5"/>
    </defs>
    <g clip-path="url(#pb0fc8b963f)">
     <use xlink:href="#m429a7cf0fe" x="295.2" y="247.92" style="fill: #333333; stroke: #333333; stroke-width: 1.5"/>
    </g>
   </g>
   <g id="matplotlib.axis_1">
    <g id="xtick_1">
     <g id="line2d_1">
      <defs>
       <path id="m923063c9fb" d="M 0 0 
L 0 3.5 
" style="stroke: #000000; stroke-width: 0.8"/>
      </defs>
      <g>
       <use xlink:href="#m923063c9fb" x="72" y="366.96" style="stroke: #000000; stroke-width: 0.8"/>
      </g>
     </g>
     <g id="text_1">
      <!-- −15 -->
      <g transform="translate(61.447656 381.558438) scale(0.1 -0.1)">
       <defs>
        <path id="DejaVuSans-2212" d="M 678 2272 
L 4684 2272 
L 4684 1741 
L 678 1741 
L 678 2272 
z
" transform="scale(0.015625)"/>
        <path id="DejaVuSans-31" d="M 794 531 
L 1825 531 
L 1825 4091 
L 703 3866 
L 703 4441 
L 1819 4666 
L 2450 4666 
L 2450 531 
L 3481 531 
L 3481 0 
L 794 0 
L 794 531 
z
" transform="scale(0.015625)"/>
        <path id="DejaVuSans-35" d="M 691 4666 
L 3169 4666 
L 3169 4134 
L 1269 4134 
L 1269 2991 
Q 1406 3038 1543 3061 
Q 1681 3084 1819 3084 
Q 2600 3084 3056 2656 
Q 3513 2228 3513 1497 
Q 3513 744 3044 326 
Q 2575 -91 1722 -91 
Q 1428 -91 1123 -41 
Q 819 9 494 109 
L 494 744 
Q 775 591 1075 516 
Q 1375 441 1709 441 
Q 2250 441 2565 725 
Q 2881 1009 2881 1497 
Q 2881 1984 2565 2268 
Q 2250 2553 1709 2553 
Q 1456 2553 1204 2497 
Q 953 2441 691 2322 
L 691 4666 
z
" transform="scale(0.015625)"/>
       </defs>
       <use xlink:href="#DejaVuSans-2212"/>
       <use xlink:href="#DejaVuSans-31" transform="translate(83.789062 0)"/>
       <use xlink:href="#DejaVuSans-35" transform="translate(147.412109 0)"/>
      </g>
     </g>
    </g>
    <g id="xtick_2">
     <g id="line2d_2">
      <g>
       <use xlink:href="#m923063c9fb" x="146.4" y="366.96" style="stroke: #000000; stroke-width: 0.8"/>
      </g>
     </g>
     <g id="text_2">
      <!-- −10 -->
      <g transform="translate(135.847656 381.558438) scale(0.1 -0.1)">
       <defs>
        <path id="DejaVuSans-30" d="M 2034 4250 
Q 1547 4250 1301 3770 
Q 1056 3291 1056 2328 
Q 1056 1369 1301 889 
Q 1547 409 2034 409 
Q 2525 409 2770 889 
Q 3016 1369 3016 2328 
Q 3016 3291 2770 3770 
Q 2525 4250 2034 4250 
z
M 2034 4750 
Q 2819 4750 3233 4129 
Q 3647 3509 3647 2328 
Q 3647 1150 3233 529 
Q 2819 -91 2034 -91 
Q 1250 -91 836 529 
Q 422 1150 422 2328 
Q 422 3509 836 4129 
Q 1250 4750 2034 4750 
z
" transform="scale(0.015625)"/>
       </defs>
       <use xlink:href="#DejaVuSans-2212"/>
       <use xlink:href="#DejaVuSans-31" transform="translate(83.789062 0)"/>
       <use xlink:href="#DejaVuSans-30" transform="translate(147.412109 0)"/>
      </g>
     </g>
    </g>
    <g id="xtick_3">
     <g id="line2d_3">
      <g>
       <use xlink:href="#m923063c9fb" x="220.8" y="366.96" style="stroke: #000000; stroke-width: 0.8"/>
      </g>
     </g>
     <g id="text_3">
      <!-- −5 -->
      <g transform="translate(213.428906 381.558438) scale(0.1 -0.1)">
       <use xlink:href="#DejaVuSans-2212"/>
       <use xlink:href="#DejaVuSans-35" transform="translate(83.789062 0)"/>
      </g>
     </g>
    </g>
    <g id="xtick_4">
     <g id="line2d_4">
      <g>
       <use xlink:href="#m923063c9fb" x="295.2" y="366.96" style="stroke: #000000; stroke-width: 0.8"/>
      </g>
     </g>
     <g id="text_4">
      <!-- 0 -->
      <g transform="translate(292.01875 381.558438) scale(0.1 -0.1)">
       <use xlink:href="#DejaVuSans-30"/>
      </g>
     </g>
    </g>
    <g id="xtick_5">
     <g id="line2d_5">
      <g>
       <use xlink:href="#m923063c9fb" x="369.6" y="366.96" style="stroke: #000000; stroke-width: 0.8"/>
      </g>
     </g>
     <g id="text_5">
      <!-- 5 -->
      <g transform="translate(366.41875 381.558438) scale(0.1 -0.1)">
       <use xlink:href="#DejaVuSans-35"/>
      </g>
     </g>
    </g>
    <g id="xtick_6">
     <g id="line2d_6">
      <g>
       <use xlink:href="#m923063c9fb" x="444" y="366.96" style="stroke: #000000; stroke-width: 0.8"/>
      </g>
     </g>
     <g id="text_6">
      <!-- 10 -->
      <g transform="translate(437.6375 381.558438) scale(0.1 -0.1)">
       <use xlink:href="#DejaVuSans-31"/>
       <use xlink:href="#DejaVuSans-30" transform="translate(63.623047 0)"/>
      </g>
     </g>
    </g>
    <g id="xtick_7">
     <g id="line2d_7">
      <g>
       <use xlink:href="#m923063c9fb" x="518.4" y="366.96" style="stroke: #000000; stroke-width: 0.8"/>
      </g>
     </g>
     <g id="text_7">
      <!-- 15 -->
      <g transform="translate(512.0375 381.558438) scale(0.1 -0.1)">
       <use xlink:href="#DejaVuSans-31"/>
       <use xlink:href="#DejaVuSans-35" transform="translate(63.623047 0)"/>
      </g>
     </g>
    </g>
    <g id="text_8">
     <!-- $z$ [$R_E$] -->
     <g transform="translate(281.25 395.236563) scale(0.1 -0.1)">
      <defs>
       <path id="DejaVuSans-Oblique-7a" d="M 744 3500 
L 3475 3500 
L 3372 2975 
L 738 459 
L 2913 459 
L 2822 0 
L -19 0 
L 84 525 
L 2719 3041 
L 653 3041 
L 744 3500 
z
" transform="scale(0.015625)"/>
       <path id="DejaVuSans-20" transform="scale(0.015625)"/>
       <path id="DejaVuSans-5b" d="M 550 4863 
L 1875 4863 
L 1875 4416 
L 1125 4416 
L 1125 -397 
L 1875 -397 
L 1875 -844 
L 550 -844 
L 550 4863 
z
" transform="scale(0.015625)"/>
       <path id="DejaVuSans-Oblique-52" d="M 1613 4147 
L 1294 2491 
L 2106 2491 
Q 2584 2491 2879 2755 
Q 3175 3019 3175 3444 
Q 3175 3784 2976 3965 
Q 2778 4147 2406 4147 
L 1613 4147 
z
M 2772 2241 
Q 2972 2194 3105 2009 
Q 3238 1825 3413 1275 
L 3809 0 
L 3144 0 
L 2778 1197 
Q 2638 1659 2453 1815 
Q 2269 1972 1888 1972 
L 1191 1972 
L 806 0 
L 172 0 
L 1081 4666 
L 2503 4666 
Q 3150 4666 3495 4373 
Q 3841 4081 3841 3531 
Q 3841 3044 3547 2687 
Q 3253 2331 2772 2241 
z
" transform="scale(0.015625)"/>
       <path id="DejaVuSans-Oblique-45" d="M 1081 4666 
L 4031 4666 
L 3928 4134 
L 1606 4134 
L 1338 2753 
L 3566 2753 
L 3463 2222 
L 1234 2222 
L 909 531 
L 3284 531 
L 3181 0 
L 172 0 
L 1081 4666 
z
" transform="scale(0.015625)"/>
       <path id="DejaVuSans-5d" d="M 1947 4863 
L 1947 -844 
L 622 -844 
L 622 -397 
L 1369 -397 
L 1369 4416 
L 622 4416 
L 622 4863 
L 1947 4863 
z
" transform="scale(0.015625)"/>
      </defs>
      <use xlink:href="#DejaVuSans-Oblique-7a" transform="translate(0 0.015625)"/>
      <use xlink:href="#DejaVuSans-20" transform="translate(52.490234 0.015625)"/>
      <use xlink:href="#DejaVuSans-5b" transform="translate(84.277344 0.015625)"/>
      <use xlink:href="#DejaVuSans-Oblique-52" transform="translate(123.291016 0.015625)"/>
      <use xlink:href="#DejaVuSans-Oblique-45" transform="translate(192.773438 -16.390625) scale(0.7)"/>
      <use xlink:href="#DejaVuSans-5d" transform="translate(239.736328 0.015625)"/>
     </g>
    </g>
   </g>
   <g id="matplotlib.axis_2">
    <g id="ytick_1">
     <g id="line2d_8">
      <defs>
       <path id="m052f5be362" d="M 0 0 
L -3.5 0 
" style="stroke: #000000; stroke-width: 0.8"/>
      </defs>
      <g>
       <use xlink:href="#m052f5be362" x="72" y="366.96" style="stroke: #000000; stroke-width: 0.8"/>
      </g>
     </g>
     <g id="text_9">
      <!-- −10 -->
      <g transform="translate(43.895313 370.759219) scale(0.1 -0.1)">
       <use xlink:href="#DejaVuSans-2212"/>
       <use xlink:href="#DejaVuSans-31" transform="translate(83.789062 0)"/>
       <use xlink:href="#DejaVuSans-30" transform="translate(147.412109 0)"/>
      </g>
     </g>
    </g>
    <g id="ytick_2">
     <g id="line2d_9">
      <g>
       <use xlink:href="#m052f5be362" x="72" y="307.44" style="stroke: #000000; stroke-width: 0.8"/>
      </g>
     </g>
     <g id="text_10">
      <!-- −5 -->
      <g transform="translate(50.257812 311.239219) scale(0.1 -0.1)">
       <use xlink:href="#DejaVuSans-2212"/>
       <use xlink:href="#DejaVuSans-35" transform="translate(83.789062 0)"/>
      </g>
     </g>
    </g>
    <g id="ytick_3">
     <g id="line2d_10">
      <g>
       <use xlink:href="#m052f5be362" x="72" y="247.92" style="stroke: #000000; stroke-width: 0.8"/>
      </g>
     </g>
     <g id="text_11">
      <!-- 0 -->
      <g transform="translate(58.6375 251.719219) scale(0.1 -0.1)">
       <use xlink:href="#DejaVuSans-30"/>
      </g>
     </g>
    </g>
    <g id="ytick_4">
     <g id="line2d_11">
      <g>
       <use xlink:href="#m052f5be362" x="72" y="188.4" style="stroke: #000000; stroke-width: 0.8"/>
      </g>
     </g>
     <g id="text_12">
      <!-- 5 -->
      <g transform="translate(58.6375 192.199219) scale(0.1 -0.1)">
       <use xlink:href="#DejaVuSans-35"/>
      </g>
     </g>
    </g>
    <g id="ytick_5">
     <g id="line2d_12">
      <g>
       <use xlink:href="#m052f5be362" x="72" y="128.88" style="stroke: #000000; stroke-width: 0.8"/>
      </g>
     </g>
     <g id="text_13">
      <!-- 10 -->
      <g transform="translate(52.275 132.679219) scale(0.1 -0.1)">
       <use xlink:href="#DejaVuSans-31"/>
       <use xlink:href="#DejaVuSans-30" transform="translate(63.623047 0)"/>
      </g>
     </g>
    </g>
    <g id="ytick_6">
     <g id="line2d_13">
      <g>
       <use xlink:href="#m052f5be362" x="72" y="69.36" style="stroke: #000000; stroke-width: 0.8"/>
      </g>
     </g>
     <g id="text_14">
      <!-- 15 -->
      <g transform="translate(52.275 73.159219) scale(0.1 -0.1)">
       <use xlink:href="#DejaVuSans-31"/>
       <use xlink:href="#DejaVuSans-35" transform="translate(63.623047 0)"/>
      </g>
     </g>
    </g>
    <g id="text_15">
     <!-- $x$ [$R_E$] -->
     <g transform="translate(37.815625 232.46) rotate(-90) scale(0.1 -0.1)">
      <defs>
       <path id="DejaVuSans-Oblique-78" d="M 3841 3500 
L 2234 1784 
L 3219 0 
L 2559 0 
L 1819 1388 
L 531 0 
L -166 0 
L 1556 1844 
L 641 3500 
L 1300 3500 
L 1972 2234 
L 3144 3500 
L 3841 3500 
z
" transform="scale(0.015625)"/>
      </defs>
      <use xlink:href="#DejaVuSans-Oblique-78" transform="translate(0 0.015625)"/>
      <use xlink:href="#DejaVuSans-20" transform="translate(59.179688 0.015625)"/>
      <use xlink:href="#DejaVuSans-5b" transform="translate(90.966797 0.015625)"/>
      <use xlink:href="#DejaVuSans-Oblique-52" transform="translate(129.980469 0.015625)"/>
      <use xlink:href="#DejaVuSans-Oblique-45" transform="translate(199.462891 -16.390625) scale(0.7)"/>
      <use xlink:href="#DejaVuSans-5d" transform="translate(246.425781 0.015625)"/>
     </g>
    </g>
   </g>
   <g id="line2d_14">
    <path d="M -1 304.649528 
L 4.155191 297.76947 
L 10.802824 289.240184 
L 17.388443 281.145336 
L 23.918483 273.458987 
L 30.398922 266.157907 
L 36.835317 259.221296 
L 43.232828 252.630549 
L 49.596243 246.369039 
L 55.929999 240.421944 
L 62.238193 234.776081 
L 68.524598 229.419776 
L 74.792668 224.342737 
L 81.045542 219.535954 
L 87.28605 214.991607 
L 93.516705 210.702984 
L 99.739705 206.664411 
L 105.956921 202.871194 
L 112.16989 199.319565 
L 118.3798 196.006634 
L 124.587476 192.93035 
L 130.79336 190.089467 
L 136.997489 187.483514 
L 143.19947 185.112764 
L 149.398455 182.978221 
L 155.593106 181.081589 
L 161.781564 179.425266 
L 166.514694 174.823699 
L 171.466496 170.409522 
L 176.644437 166.200417 
L 182.030987 162.199759 
L 187.609493 158.409998 
L 193.364208 154.832776 
L 199.280306 151.469036 
L 205.343884 148.319121 
L 211.541953 145.382875 
L 217.862425 142.659723 
L 224.294089 140.148758 
L 230.826584 137.848814 
L 237.450371 135.758531 
L 244.156698 133.876421 
L 250.937564 132.200922 
L 257.785686 130.730452 
L 264.694461 129.463454 
L 271.657928 128.398437 
L 278.670736 127.53402 
L 285.728107 126.868963 
L 292.8258 126.402204 
L 295.2 126.29053 
L 295.2 132.482048 
L 301.930516 133.166304 
L 308.587897 134.04104 
L 315.167788 135.104729 
L 321.665624 136.35585 
L 328.076646 137.792868 
L 334.395922 139.414201 
L 340.61837 141.218208 
L 346.738779 143.203165 
L 352.751844 145.367245 
L 358.652194 147.708503 
L 364.434434 150.224865 
L 370.093184 152.914114 
L 375.623133 155.773884 
L 381.019087 158.801658 
L 386.276034 161.994768 
L 391.389213 165.350408 
L 396.354185 168.865645 
L 401.166924 172.537446 
L 405.823905 176.362712 
L 410.32221 180.338323 
L 414.659643 184.461201 
L 416.095277 185.854441 
L 422.055016 187.186698 
L 428.064494 188.74054 
L 434.120389 190.517531 
L 440.219761 192.519585 
L 446.360038 194.749 
L 452.539014 197.208499 
L 458.75484 199.901266 
L 465.006023 202.83099 
L 471.29142 206.001911 
L 477.610235 209.418873 
L 483.962018 213.087373 
L 490.346663 217.013628 
L 496.764413 221.20464 
L 503.215857 225.668269 
L 509.70194 230.413319 
L 516.223962 235.449625 
L 522.78359 240.788163 
L 529.382869 246.441161 
L 536.02423 252.42223 
L 542.710507 258.746517 
L 549.444955 265.430864 
L 556.231271 272.494008 
L 563.073616 279.956792 
L 569.97665 287.842414 
L 577 296.244081 
L 577 296.244081 
" clip-path="url(#pb0fc8b963f)" style="fill: none; stroke-dasharray: 9.6,2.4,1.5,2.4; stroke-dashoffset: 0; stroke: #333333; stroke-width: 1.5"/>
   </g>
   <g id="line2d_15">
    <path d="M -1 308.12063 
L 3.749168 301.663231 
L 10.398555 292.98808 
L 16.972053 284.760248 
L 23.476067 276.951738 
L 29.916586 269.537384 
L 36.299227 262.494559 
L 42.629283 255.802917 
L 48.911756 249.444176 
L 55.151397 243.401936 
L 61.352736 237.661514 
L 67.52012 232.20981 
L 73.657737 227.035199 
L 79.76965 222.127432 
L 85.859823 217.477567 
L 91.932152 213.077912 
L 97.990494 208.921984 
L 104.038698 205.004491 
L 110.080637 201.321329 
L 116.120242 197.869597 
L 122.161541 194.647635 
L 128.208699 191.655086 
L 134.26607 188.892983 
L 140.338242 186.363873 
L 146.430108 184.071969 
L 152.546932 182.023363 
L 158.694437 180.226283 
L 163.342485 177.875261 
L 169.659558 171.779284 
L 176.272923 165.944334 
L 183.195235 160.385664 
L 190.43347 155.121171 
L 194.171756 152.605405 
L 197.989211 150.17079 
L 201.885236 147.820057 
L 205.85893 145.556012 
L 209.909094 143.381529 
L 214.034238 141.299541 
L 218.232591 139.31304 
L 222.502097 137.425076 
L 226.840424 135.638759 
L 231.244957 133.95726 
L 235.712805 132.383825 
L 240.240786 130.921779 
L 244.825419 129.574537 
L 249.462913 128.345614 
L 254.149135 127.238623 
L 258.879586 126.257254 
L 263.649359 125.405201 
L 268.453083 124.685992 
L 273.284881 124.102573 
L 278.138331 123.656402 
L 283.006549 123.345442 
L 292.760858 123.078311 
L 297.639124 123.079226 
L 302.5117 123.257262 
L 307.353717 123.75139 
L 312.142071 124.527462 
L 316.862904 125.527557 
L 321.508064 126.707965 
L 326.072628 128.038004 
L 330.553585 129.495845 
L 334.949131 131.065463 
L 339.258277 132.734672 
L 347.616224 136.335345 
L 355.629186 140.240053 
L 363.304134 144.407233 
L 370.652277 148.804852 
L 377.688667 153.407264 
L 384.432047 158.193723 
L 390.904803 163.147758 
L 397.132971 168.257006 
L 403.146251 173.513347 
L 408.97804 178.913222 
L 414.665448 184.458117 
L 419.062529 186.49602 
L 425.001754 187.959852 
L 430.949379 189.660022 
L 436.907831 191.592438 
L 442.87945 193.754434 
L 448.866517 196.144648 
L 454.871283 198.762911 
L 460.895991 201.610181 
L 466.942899 204.688484 
L 473.014299 208.000879 
L 479.112539 211.551448 
L 485.24004 215.345287 
L 491.399315 219.388523 
L 497.592989 223.68834 
L 503.823814 228.253021 
L 510.094694 233.092004 
L 516.4087 238.215946 
L 522.769097 243.636819 
L 529.179361 249.368002 
L 535.643209 255.424408 
L 542.164623 261.822625 
L 548.747879 268.58108 
L 555.397582 275.72023 
L 562.118699 283.262787 
L 568.9166 291.233971 
L 577 301.200632 
L 577 301.200632 
" clip-path="url(#pb0fc8b963f)" style="fill: none; stroke: #333333; stroke-width: 1.5; stroke-linecap: square"/>
   </g>
   <g id="patch_3">
    <path d="M 72 366.96 
L 72 69.36 
" style="fill: none; stroke: #000000; stroke-width: 0.8; stroke-linejoin: miter; stroke-linecap: square"/>
   </g>
   <g id="patch_4">
    <path d="M 518.4 366.96 
L 518.4 69.36 
" style="fill: none; stroke: #000000; stroke-width: 0.8; stroke-linejoin: miter; stroke-linecap: square"/>
   </g>
   <g id="patch_5">
    <path d="M 72 366.96 
L 518.4 366.96 
" style="fill: none; stroke: #000000; stroke-width: 0.8; stroke-linejoin: miter; stroke-linecap: square"/>
   </g>
   <g id="patch_6">
    <path d="M 72 69.36 
L 518.4 69.36 
" style="fill: none; stroke: #000000; stroke-width: 0.8; stroke-linejoin: miter; stroke-linecap: square"/>
   </g>
   <g id="text_16">
    <!-- Liu12 cusps model vs mine -->
    <g transform="translate(213.597187 20.474625) scale(0.12 -0.12)">
     <defs>
      <path id="DejaVuSans-4c" d="M 628 4666 
L 1259 4666 
L 1259 531 
L 3531 531 
L 3531 0 
L 628 0 
L 628 4666 
z
" transform="scale(0.015625)"/>
      <path id="DejaVuSans-69" d="M 603 3500 
L 1178 3500 
L 1178 0 
L 603 0 
L 603 3500 
z
M 603 4863 
L 1178 4863 
L 1178 4134 
L 603 4134 
L 603 4863 
z
" transform="scale(0.015625)"/>
      <path id="DejaVuSans-75" d="M 544 1381 
L 544 3500 
L 1119 3500 
L 1119 1403 
Q 1119 906 1312 657 
Q 1506 409 1894 409 
Q 2359 409 2629 706 
Q 2900 1003 2900 1516 
L 2900 3500 
L 3475 3500 
L 3475 0 
L 2900 0 
L 2900 538 
Q 2691 219 2414 64 
Q 2138 -91 1772 -91 
Q 1169 -91 856 284 
Q 544 659 544 1381 
z
M 1991 3584 
L 1991 3584 
z
" transform="scale(0.015625)"/>
      <path id="DejaVuSans-32" d="M 1228 531 
L 3431 531 
L 3431 0 
L 469 0 
L 469 531 
Q 828 903 1448 1529 
Q 2069 2156 2228 2338 
Q 2531 2678 2651 2914 
Q 2772 3150 2772 3378 
Q 2772 3750 2511 3984 
Q 2250 4219 1831 4219 
Q 1534 4219 1204 4116 
Q 875 4013 500 3803 
L 500 4441 
Q 881 4594 1212 4672 
Q 1544 4750 1819 4750 
Q 2544 4750 2975 4387 
Q 3406 4025 3406 3419 
Q 3406 3131 3298 2873 
Q 3191 2616 2906 2266 
Q 2828 2175 2409 1742 
Q 1991 1309 1228 531 
z
" transform="scale(0.015625)"/>
      <path id="DejaVuSans-63" d="M 3122 3366 
L 3122 2828 
Q 2878 2963 2633 3030 
Q 2388 3097 2138 3097 
Q 1578 3097 1268 2742 
Q 959 2388 959 1747 
Q 959 1106 1268 751 
Q 1578 397 2138 397 
Q 2388 397 2633 464 
Q 2878 531 3122 666 
L 3122 134 
Q 2881 22 2623 -34 
Q 2366 -91 2075 -91 
Q 1284 -91 818 406 
Q 353 903 353 1747 
Q 353 2603 823 3093 
Q 1294 3584 2113 3584 
Q 2378 3584 2631 3529 
Q 2884 3475 3122 3366 
z
" transform="scale(0.015625)"/>
      <path id="DejaVuSans-73" d="M 2834 3397 
L 2834 2853 
Q 2591 2978 2328 3040 
Q 2066 3103 1784 3103 
Q 1356 3103 1142 2972 
Q 928 2841 928 2578 
Q 928 2378 1081 2264 
Q 1234 2150 1697 2047 
L 1894 2003 
Q 2506 1872 2764 1633 
Q 3022 1394 3022 966 
Q 3022 478 2636 193 
Q 2250 -91 1575 -91 
Q 1294 -91 989 -36 
Q 684 19 347 128 
L 347 722 
Q 666 556 975 473 
Q 1284 391 1588 391 
Q 1994 391 2212 530 
Q 2431 669 2431 922 
Q 2431 1156 2273 1281 
Q 2116 1406 1581 1522 
L 1381 1569 
Q 847 1681 609 1914 
Q 372 2147 372 2553 
Q 372 3047 722 3315 
Q 1072 3584 1716 3584 
Q 2034 3584 2315 3537 
Q 2597 3491 2834 3397 
z
" transform="scale(0.015625)"/>
      <path id="DejaVuSans-70" d="M 1159 525 
L 1159 -1331 
L 581 -1331 
L 581 3500 
L 1159 3500 
L 1159 2969 
Q 1341 3281 1617 3432 
Q 1894 3584 2278 3584 
Q 2916 3584 3314 3078 
Q 3713 2572 3713 1747 
Q 3713 922 3314 415 
Q 2916 -91 2278 -91 
Q 1894 -91 1617 61 
Q 1341 213 1159 525 
z
M 3116 1747 
Q 3116 2381 2855 2742 
Q 2594 3103 2138 3103 
Q 1681 3103 1420 2742 
Q 1159 2381 1159 1747 
Q 1159 1113 1420 752 
Q 1681 391 2138 391 
Q 2594 391 2855 752 
Q 3116 1113 3116 1747 
z
" transform="scale(0.015625)"/>
      <path id="DejaVuSans-6d" d="M 3328 2828 
Q 3544 3216 3844 3400 
Q 4144 3584 4550 3584 
Q 5097 3584 5394 3201 
Q 5691 2819 5691 2113 
L 5691 0 
L 5113 0 
L 5113 2094 
Q 5113 2597 4934 2840 
Q 4756 3084 4391 3084 
Q 3944 3084 3684 2787 
Q 3425 2491 3425 1978 
L 3425 0 
L 2847 0 
L 2847 2094 
Q 2847 2600 2669 2842 
Q 2491 3084 2119 3084 
Q 1678 3084 1418 2786 
Q 1159 2488 1159 1978 
L 1159 0 
L 581 0 
L 581 3500 
L 1159 3500 
L 1159 2956 
Q 1356 3278 1631 3431 
Q 1906 3584 2284 3584 
Q 2666 3584 2933 3390 
Q 3200 3197 3328 2828 
z
" transform="scale(0.015625)"/>
      <path id="DejaVuSans-6f" d="M 1959 3097 
Q 1497 3097 1228 2736 
Q 959 2375 959 1747 
Q 959 1119 1226 758 
Q 1494 397 1959 397 
Q 2419 397 2687 759 
Q 2956 1122 2956 1747 
Q 2956 2369 2687 2733 
Q 2419 3097 1959 3097 
z
M 1959 3584 
Q 2709 3584 3137 3096 
Q 3566 2609 3566 1747 
Q 3566 888 3137 398 
Q 2709 -91 1959 -91 
Q 1206 -91 779 398 
Q 353 888 353 1747 
Q 353 2609 779 3096 
Q 1206 3584 1959 3584 
z
" transform="scale(0.015625)"/>
      <path id="DejaVuSans-64" d="M 2906 2969 
L 2906 4863 
L 3481 4863 
L 3481 0 
L 2906 0 
L 2906 525 
Q 2725 213 2448 61 
Q 2172 -91 1784 -91 
Q 1150 -91 751 415 
Q 353 922 353 1747 
Q 353 2572 751 3078 
Q 1150 3584 1784 3584 
Q 2172 3584 2448 3432 
Q 2725 3281 2906 2969 
z
M 947 1747 
Q 947 1113 1208 752 
Q 1469 391 1925 391 
Q 2381 391 2643 752 
Q 2906 1113 2906 1747 
Q 2906 2381 2643 2742 
Q 2381 3103 1925 3103 
Q 1469 3103 1208 2742 
Q 947 2381 947 1747 
z
" transform="scale(0.015625)"/>
      <path id="DejaVuSans-65" d="M 3597 1894 
L 3597 1613 
L 953 1613 
Q 991 1019 1311 708 
Q 1631 397 2203 397 
Q 2534 397 2845 478 
Q 3156 559 3463 722 
L 3463 178 
Q 3153 47 2828 -22 
Q 2503 -91 2169 -91 
Q 1331 -91 842 396 
Q 353 884 353 1716 
Q 353 2575 817 3079 
Q 1281 3584 2069 3584 
Q 2775 3584 3186 3129 
Q 3597 2675 3597 1894 
z
M 3022 2063 
Q 3016 2534 2758 2815 
Q 2500 3097 2075 3097 
Q 1594 3097 1305 2825 
Q 1016 2553 972 2059 
L 3022 2063 
z
" transform="scale(0.015625)"/>
      <path id="DejaVuSans-6c" d="M 603 4863 
L 1178 4863 
L 1178 0 
L 603 0 
L 603 4863 
z
" transform="scale(0.015625)"/>
      <path id="DejaVuSans-76" d="M 191 3500 
L 800 3500 
L 1894 563 
L 2988 3500 
L 3597 3500 
L 2284 0 
L 1503 0 
L 191 3500 
z
" transform="scale(0.015625)"/>
      <path id="DejaVuSans-6e" d="M 3513 2113 
L 3513 0 
L 2938 0 
L 2938 2094 
Q 2938 2591 2744 2837 
Q 2550 3084 2163 3084 
Q 1697 3084 1428 2787 
Q 1159 2491 1159 1978 
L 1159 0 
L 581 0 
L 581 3500 
L 1159 3500 
L 1159 2956 
Q 1366 3272 1645 3428 
Q 1925 3584 2291 3584 
Q 2894 3584 3203 3211 
Q 3513 2838 3513 2113 
z
" transform="scale(0.015625)"/>
     </defs>
     <use xlink:href="#DejaVuSans-4c"/>
     <use xlink:href="#DejaVuSans-69" transform="translate(55.712891 0)"/>
     <use xlink:href="#DejaVuSans-75" transform="translate(83.496094 0)"/>
     <use xlink:href="#DejaVuSans-31" transform="translate(146.875 0)"/>
     <use xlink:href="#DejaVuSans-32" transform="translate(210.498047 0)"/>
     <use xlink:href="#DejaVuSans-20" transform="translate(274.121094 0)"/>
     <use xlink:href="#DejaVuSans-63" transform="translate(305.908203 0)"/>
     <use xlink:href="#DejaVuSans-75" transform="translate(360.888672 0)"/>
     <use xlink:href="#DejaVuSans-73" transform="translate(424.267578 0)"/>
     <use xlink:href="#DejaVuSans-70" transform="translate(476.367188 0)"/>
     <use xlink:href="#DejaVuSans-73" transform="translate(539.84375 0)"/>
     <use xlink:href="#DejaVuSans-20" transform="translate(591.943359 0)"/>
     <use xlink:href="#DejaVuSans-6d" transform="translate(623.730469 0)"/>
     <use xlink:href="#DejaVuSans-6f" transform="translate(721.142578 0)"/>
     <use xlink:href="#DejaVuSans-64" transform="translate(782.324219 0)"/>
     <use xlink:href="#DejaVuSans-65" transform="translate(845.800781 0)"/>
     <use xlink:href="#DejaVuSans-6c" transform="translate(907.324219 0)"/>
     <use xlink:href="#DejaVuSans-20" transform="translate(935.107422 0)"/>
     <use xlink:href="#DejaVuSans-76" transform="translate(966.894531 0)"/>
     <use xlink:href="#DejaVuSans-73" transform="translate(1026.074219 0)"/>
     <use xlink:href="#DejaVuSans-20" transform="translate(1078.173828 0)"/>
     <use xlink:href="#DejaVuSans-6d" transform="translate(1109.960938 0)"/>
     <use xlink:href="#DejaVuSans-69" transform="translate(1207.373047 0)"/>
     <use xlink:href="#DejaVuSans-6e" transform="translate(1235.15625 0)"/>
     <use xlink:href="#DejaVuSans-65" transform="translate(1298.535156 0)"/>
    </g>
    <!-- $\dfrac{d_N}{d_S} = 1.5$, $\ell_N = \ell_S = 0.2$ and $\dfrac{s_N}{s_S} = 1.5$ -->
    <g transform="translate(192.36 42.69825) scale(0.12 -0.12)">
     <defs>
      <path id="DejaVuSans-Oblique-64" d="M 2675 525 
Q 2444 222 2128 65 
Q 1813 -91 1428 -91 
Q 903 -91 598 267 
Q 294 625 294 1247 
Q 294 1766 478 2236 
Q 663 2706 1013 3078 
Q 1244 3325 1534 3454 
Q 1825 3584 2144 3584 
Q 2481 3584 2739 3421 
Q 2997 3259 3138 2956 
L 3513 4863 
L 4091 4863 
L 3144 0 
L 2566 0 
L 2675 525 
z
M 891 1350 
Q 891 897 1095 644 
Q 1300 391 1663 391 
Q 1931 391 2161 520 
Q 2391 650 2566 903 
Q 2750 1166 2856 1509 
Q 2963 1853 2963 2188 
Q 2963 2622 2758 2865 
Q 2553 3109 2194 3109 
Q 1922 3109 1687 2981 
Q 1453 2853 1288 2613 
Q 1106 2353 998 2009 
Q 891 1666 891 1350 
z
" transform="scale(0.015625)"/>
      <path id="DejaVuSans-Oblique-4e" d="M 1081 4666 
L 1931 4666 
L 3219 666 
L 4000 4666 
L 4616 4666 
L 3706 0 
L 2853 0 
L 1569 4025 
L 788 0 
L 172 0 
L 1081 4666 
z
" transform="scale(0.015625)"/>
      <path id="DejaVuSans-Oblique-53" d="M 3859 4513 
L 3738 3897 
Q 3422 4066 3111 4152 
Q 2800 4238 2509 4238 
Q 1944 4238 1609 3991 
Q 1275 3744 1275 3334 
Q 1275 3109 1398 2989 
Q 1522 2869 2034 2731 
L 2413 2638 
Q 3053 2472 3303 2217 
Q 3553 1963 3553 1503 
Q 3553 797 2998 353 
Q 2444 -91 1538 -91 
Q 1166 -91 791 -17 
Q 416 56 38 206 
L 166 856 
Q 513 641 861 531 
Q 1209 422 1556 422 
Q 2147 422 2503 684 
Q 2859 947 2859 1369 
Q 2859 1650 2717 1795 
Q 2575 1941 2106 2059 
L 1728 2156 
Q 1081 2325 845 2545 
Q 609 2766 609 3163 
Q 609 3859 1145 4304 
Q 1681 4750 2541 4750 
Q 2875 4750 3203 4690 
Q 3531 4631 3859 4513 
z
" transform="scale(0.015625)"/>
      <path id="DejaVuSans-3d" d="M 678 2906 
L 4684 2906 
L 4684 2381 
L 678 2381 
L 678 2906 
z
M 678 1631 
L 4684 1631 
L 4684 1100 
L 678 1100 
L 678 1631 
z
" transform="scale(0.015625)"/>
      <path id="DejaVuSans-2e" d="M 684 794 
L 1344 794 
L 1344 0 
L 684 0 
L 684 794 
z
" transform="scale(0.015625)"/>
      <path id="DejaVuSans-2c" d="M 750 794 
L 1409 794 
L 1409 256 
L 897 -744 
L 494 -744 
L 750 256 
L 750 794 
z
" transform="scale(0.015625)"/>
      <path id="DejaVuSans-Oblique-2113" d="M 950 838 
Q 1078 213 1350 213 
Q 1531 213 1766 572 
L 2181 572 
Q 1994 253 1775 88 
Q 1538 -91 1319 -91 
Q 831 -91 634 344 
L 400 0 
L -88 0 
Q 250 459 500 888 
Q 469 1131 469 1397 
Q 469 1872 566 2347 
Q 931 4131 1256 4497 
Q 1481 4750 1866 4750 
Q 2256 4750 2256 4209 
Q 2253 3966 2197 3675 
Q 1972 2484 950 838 
z
M 947 1656 
Q 1531 2744 1709 3613 
Q 1803 4072 1803 4191 
Q 1803 4406 1725 4406 
Q 1384 4134 1081 2516 
Q 997 2063 947 1656 
z
" transform="scale(0.015625)"/>
      <path id="DejaVuSans-61" d="M 2194 1759 
Q 1497 1759 1228 1600 
Q 959 1441 959 1056 
Q 959 750 1161 570 
Q 1363 391 1709 391 
Q 2188 391 2477 730 
Q 2766 1069 2766 1631 
L 2766 1759 
L 2194 1759 
z
M 3341 1997 
L 3341 0 
L 2766 0 
L 2766 531 
Q 2569 213 2275 61 
Q 1981 -91 1556 -91 
Q 1019 -91 701 211 
Q 384 513 384 1019 
Q 384 1609 779 1909 
Q 1175 2209 1959 2209 
L 2766 2209 
L 2766 2266 
Q 2766 2663 2505 2880 
Q 2244 3097 1772 3097 
Q 1472 3097 1187 3025 
Q 903 2953 641 2809 
L 641 3341 
Q 956 3463 1253 3523 
Q 1550 3584 1831 3584 
Q 2591 3584 2966 3190 
Q 3341 2797 3341 1997 
z
" transform="scale(0.015625)"/>
      <path id="DejaVuSans-Oblique-73" d="M 3200 3397 
L 3091 2853 
Q 2863 2978 2609 3040 
Q 2356 3103 2088 3103 
Q 1634 3103 1373 2948 
Q 1113 2794 1113 2528 
Q 1113 2219 1719 2053 
Q 1766 2041 1788 2034 
L 1972 1978 
Q 2547 1819 2739 1644 
Q 2931 1469 2931 1166 
Q 2931 609 2489 259 
Q 2047 -91 1331 -91 
Q 1053 -91 747 -37 
Q 441 16 72 128 
L 184 722 
Q 500 559 806 475 
Q 1113 391 1394 391 
Q 1816 391 2080 572 
Q 2344 753 2344 1031 
Q 2344 1331 1650 1516 
L 1591 1531 
L 1394 1581 
Q 956 1697 753 1886 
Q 550 2075 550 2369 
Q 550 2928 970 3256 
Q 1391 3584 2113 3584 
Q 2397 3584 2667 3537 
Q 2938 3491 3200 3397 
z
" transform="scale(0.015625)"/>
     </defs>
     <use xlink:href="#DejaVuSans-Oblique-64" transform="translate(0 61.015625)"/>
     <use xlink:href="#DejaVuSans-Oblique-4e" transform="translate(63.476562 44.609375) scale(0.7)"/>
     <use xlink:href="#DejaVuSans-Oblique-64" transform="translate(4 -62.625)"/>
     <use xlink:href="#DejaVuSans-Oblique-53" transform="translate(67.476562 -79.03125) scale(0.7)"/>
     <use xlink:href="#DejaVuSans-3d" transform="translate(150.556641 0.8125)"/>
     <use xlink:href="#DejaVuSans-31" transform="translate(253.828125 0.8125)"/>
     <use xlink:href="#DejaVuSans-2e" transform="translate(317.451172 0.8125)"/>
     <use xlink:href="#DejaVuSans-35" transform="translate(349.238281 0.8125)"/>
     <use xlink:href="#DejaVuSans-2c" transform="translate(412.861328 0.8125)"/>
     <use xlink:href="#DejaVuSans-20" transform="translate(444.648438 0.8125)"/>
     <use xlink:href="#DejaVuSans-Oblique-2113" transform="translate(476.435547 0.8125)"/>
     <use xlink:href="#DejaVuSans-Oblique-4e" transform="translate(517.744141 -15.59375) scale(0.7)"/>
     <use xlink:href="#DejaVuSans-3d" transform="translate(592.324219 0.8125)"/>
     <use xlink:href="#DejaVuSans-Oblique-2113" transform="translate(695.595703 0.8125)"/>
     <use xlink:href="#DejaVuSans-Oblique-53" transform="translate(736.904297 -15.59375) scale(0.7)"/>
     <use xlink:href="#DejaVuSans-3d" transform="translate(803.554688 0.8125)"/>
     <use xlink:href="#DejaVuSans-30" transform="translate(906.826172 0.8125)"/>
     <use xlink:href="#DejaVuSans-2e" transform="translate(970.449219 0.8125)"/>
     <use xlink:href="#DejaVuSans-32" transform="translate(996.736328 0.8125)"/>
     <use xlink:href="#DejaVuSans-20" transform="translate(1060.359375 0.8125)"/>
     <use xlink:href="#DejaVuSans-61" transform="translate(1092.146484 0.8125)"/>
     <use xlink:href="#DejaVuSans-6e" transform="translate(1153.425781 0.8125)"/>
     <use xlink:href="#DejaVuSans-64" transform="translate(1216.804688 0.8125)"/>
     <use xlink:href="#DejaVuSans-20" transform="translate(1280.28125 0.8125)"/>
     <use xlink:href="#DejaVuSans-Oblique-73" transform="translate(1312.068359 61.015625)"/>
     <use xlink:href="#DejaVuSans-Oblique-4e" transform="translate(1364.167969 44.609375) scale(0.7)"/>
     <use xlink:href="#DejaVuSans-Oblique-73" transform="translate(1316.068359 -42.640625)"/>
     <use xlink:href="#DejaVuSans-Oblique-53" transform="translate(1368.167969 -59.046875) scale(0.7)"/>
     <use xlink:href="#DejaVuSans-3d" transform="translate(1451.248047 0.8125)"/>
     <use xlink:href="#DejaVuSans-31" transform="translate(1554.519531 0.8125)"/>
     <use xlink:href="#DejaVuSans-2e" transform="translate(1618.142578 0.8125)"/>
     <use xlink:href="#DejaVuSans-35" transform="translate(1649.929688 0.8125)"/>
     <path d="M 0 19.609375 
L 0 25.859375 
L 118.574219 25.859375 
L 118.574219 19.609375 
L 0 19.609375 
z
"/>
     <path d="M 1312.068359 19.609375 
L 1312.068359 25.859375 
L 1419.265625 25.859375 
L 1419.265625 19.609375 
L 1312.068359 19.609375 
z
"/>
    </g>
    <!--  -->
    <g transform="translate(295.2 63.36) scale(0.12 -0.12)"/>
   </g>
   <g id="legend_1">
    <g id="patch_7">
     <path d="M 385.889062 121.394375 
L 511.4 121.394375 
Q 513.4 121.394375 513.4 119.394375 
L 513.4 76.36 
Q 513.4 74.36 511.4 74.36 
L 385.889062 74.36 
Q 383.889062 74.36 383.889062 76.36 
L 383.889062 119.394375 
Q 383.889062 121.394375 385.889062 121.394375 
z
" style="fill: #ffffff; opacity: 0.8; stroke: #cccccc; stroke-linejoin: miter"/>
    </g>
    <g id="line2d_16">
     <path d="M 387.889062 82.458438 
L 397.889062 82.458438 
L 407.889062 82.458438 
" style="fill: none; stroke-dasharray: 9.6,2.4,1.5,2.4; stroke-dashoffset: 0; stroke: #333333; stroke-width: 1.5"/>
    </g>
    <g id="text_17">
     <!-- Liu12 cusps model -->
     <g transform="translate(415.889062 85.958438) scale(0.1 -0.1)">
      <use xlink:href="#DejaVuSans-4c"/>
      <use xlink:href="#DejaVuSans-69" transform="translate(55.712891 0)"/>
      <use xlink:href="#DejaVuSans-75" transform="translate(83.496094 0)"/>
      <use xlink:href="#DejaVuSans-31" transform="translate(146.875 0)"/>
      <use xlink:href="#DejaVuSans-32" transform="translate(210.498047 0)"/>
      <use xlink:href="#DejaVuSans-20" transform="translate(274.121094 0)"/>
      <use xlink:href="#DejaVuSans-63" transform="translate(305.908203 0)"/>
      <use xlink:href="#DejaVuSans-75" transform="translate(360.888672 0)"/>
      <use xlink:href="#DejaVuSans-73" transform="translate(424.267578 0)"/>
      <use xlink:href="#DejaVuSans-70" transform="translate(476.367188 0)"/>
      <use xlink:href="#DejaVuSans-73" transform="translate(539.84375 0)"/>
      <use xlink:href="#DejaVuSans-20" transform="translate(591.943359 0)"/>
      <use xlink:href="#DejaVuSans-6d" transform="translate(623.730469 0)"/>
      <use xlink:href="#DejaVuSans-6f" transform="translate(721.142578 0)"/>
      <use xlink:href="#DejaVuSans-64" transform="translate(782.324219 0)"/>
      <use xlink:href="#DejaVuSans-65" transform="translate(845.800781 0)"/>
      <use xlink:href="#DejaVuSans-6c" transform="translate(907.324219 0)"/>
     </g>
    </g>
    <g id="line2d_17">
     <path d="M 387.889062 97.136563 
L 397.889062 97.136563 
L 407.889062 97.136563 
" style="fill: none; stroke: #333333; stroke-width: 1.5; stroke-linecap: square"/>
    </g>
    <g id="text_18">
     <!-- My cusps model -->
     <g transform="translate(415.889062 100.636563) scale(0.1 -0.1)">
      <defs>
       <path id="DejaVuSans-4d" d="M 628 4666 
L 1569 4666 
L 2759 1491 
L 3956 4666 
L 4897 4666 
L 4897 0 
L 4281 0 
L 4281 4097 
L 3078 897 
L 2444 897 
L 1241 4097 
L 1241 0 
L 628 0 
L 628 4666 
z
" transform="scale(0.015625)"/>
       <path id="DejaVuSans-79" d="M 2059 -325 
Q 1816 -950 1584 -1140 
Q 1353 -1331 966 -1331 
L 506 -1331 
L 506 -850 
L 844 -850 
Q 1081 -850 1212 -737 
Q 1344 -625 1503 -206 
L 1606 56 
L 191 3500 
L 800 3500 
L 1894 763 
L 2988 3500 
L 3597 3500 
L 2059 -325 
z
" transform="scale(0.015625)"/>
      </defs>
      <use xlink:href="#DejaVuSans-4d"/>
      <use xlink:href="#DejaVuSans-79" transform="translate(86.279297 0)"/>
      <use xlink:href="#DejaVuSans-20" transform="translate(145.458984 0)"/>
      <use xlink:href="#DejaVuSans-63" transform="translate(177.246094 0)"/>
      <use xlink:href="#DejaVuSans-75" transform="translate(232.226562 0)"/>
      <use xlink:href="#DejaVuSans-73" transform="translate(295.605469 0)"/>
      <use xlink:href="#DejaVuSans-70" transform="translate(347.705078 0)"/>
      <use xlink:href="#DejaVuSans-73" transform="translate(411.181641 0)"/>
      <use xlink:href="#DejaVuSans-20" transform="translate(463.28125 0)"/>
      <use xlink:href="#DejaVuSans-6d" transform="translate(495.068359 0)"/>
      <use xlink:href="#DejaVuSans-6f" transform="translate(592.480469 0)"/>
      <use xlink:href="#DejaVuSans-64" transform="translate(653.662109 0)"/>
      <use xlink:href="#DejaVuSans-65" transform="translate(717.138672 0)"/>
      <use xlink:href="#DejaVuSans-6c" transform="translate(778.662109 0)"/>
     </g>
    </g>
    <g id="PathCollection_2">
     <g>
      <use xlink:href="#m429a7cf0fe" x="397.889062" y="112.689687" style="fill: #333333; stroke: #333333; stroke-width: 1.5"/>
     </g>
    </g>
    <g id="text_19">
     <!-- Earth -->
     <g transform="translate(415.889062 115.314687) scale(0.1 -0.1)">
      <defs>
       <path id="DejaVuSans-45" d="M 628 4666 
L 3578 4666 
L 3578 4134 
L 1259 4134 
L 1259 2753 
L 3481 2753 
L 3481 2222 
L 1259 2222 
L 1259 531 
L 3634 531 
L 3634 0 
L 628 0 
L 628 4666 
z
" transform="scale(0.015625)"/>
       <path id="DejaVuSans-72" d="M 2631 2963 
Q 2534 3019 2420 3045 
Q 2306 3072 2169 3072 
Q 1681 3072 1420 2755 
Q 1159 2438 1159 1844 
L 1159 0 
L 581 0 
L 581 3500 
L 1159 3500 
L 1159 2956 
Q 1341 3275 1631 3429 
Q 1922 3584 2338 3584 
Q 2397 3584 2469 3576 
Q 2541 3569 2628 3553 
L 2631 2963 
z
" transform="scale(0.015625)"/>
       <path id="DejaVuSans-74" d="M 1172 4494 
L 1172 3500 
L 2356 3500 
L 2356 3053 
L 1172 3053 
L 1172 1153 
Q 1172 725 1289 603 
Q 1406 481 1766 481 
L 2356 481 
L 2356 0 
L 1766 0 
Q 1100 0 847 248 
Q 594 497 594 1153 
L 594 3053 
L 172 3053 
L 172 3500 
L 594 3500 
L 594 4494 
L 1172 4494 
z
" transform="scale(0.015625)"/>
       <path id="DejaVuSans-68" d="M 3513 2113 
L 3513 0 
L 2938 0 
L 2938 2094 
Q 2938 2591 2744 2837 
Q 2550 3084 2163 3084 
Q 1697 3084 1428 2787 
Q 1159 2491 1159 1978 
L 1159 0 
L 581 0 
L 581 4863 
L 1159 4863 
L 1159 2956 
Q 1366 3272 1645 3428 
Q 1925 3584 2291 3584 
Q 2894 3584 3203 3211 
Q 3513 2838 3513 2113 
z
" transform="scale(0.015625)"/>
      </defs>
      <use xlink:href="#DejaVuSans-45"/>
      <use xlink:href="#DejaVuSans-61" transform="translate(63.183594 0)"/>
      <use xlink:href="#DejaVuSans-72" transform="translate(124.462891 0)"/>
      <use xlink:href="#DejaVuSans-74" transform="translate(165.576172 0)"/>
      <use xlink:href="#DejaVuSans-68" transform="translate(204.785156 0)"/>
     </g>
    </g>
   </g>
  </g>
 </g>
 <defs>
  <clipPath id="pb0fc8b963f">
   <rect x="72" y="69.36" width="446.4" height="297.6"/>
  </clipPath>
 </defs>
</svg>
