<?xml version="1.0" encoding="utf-8" standalone="no"?>
<!DOCTYPE svg PUBLIC "-//W3C//DTD SVG 1.1//EN"
  "http://www.w3.org/Graphics/SVG/1.1/DTD/svg11.dtd">
<svg xmlns:xlink="http://www.w3.org/1999/xlink" width="576pt" height="432pt" viewBox="0 0 576 432" xmlns="http://www.w3.org/2000/svg" version="1.1">
 <metadata>
  <rdf:RDF xmlns:dc="http://purl.org/dc/elements/1.1/" xmlns:cc="http://creativecommons.org/ns#" xmlns:rdf="http://www.w3.org/1999/02/22-rdf-syntax-ns#">
   <cc:Work>
    <dc:type rdf:resource="http://purl.org/dc/dcmitype/StillImage"/>
    <dc:date>2025-07-18T14:21:12.228473</dc:date>
    <dc:format>image/svg+xml</dc:format>
    <dc:creator>
     <cc:Agent>
      <dc:title>Matplotlib v3.10.3, https://matplotlib.org/</dc:title>
     </cc:Agent>
    </dc:creator>
   </cc:Work>
  </rdf:RDF>
 </metadata>
 <defs>
  <style type="text/css">*{stroke-linejoin: round; stroke-linecap: butt}</style>
 </defs>
 <g id="figure_1">
  <g id="patch_1">
   <path d="M 0 432 
L 576 432 
L 576 0 
L 0 0 
z
" style="fill: #ffffff"/>
  </g>
  <g id="axes_1">
   <g id="patch_2">
    <path d="M 72 366.96 
L 518.4 366.96 
L 518.4 69.36 
L 72 69.36 
z
" style="fill: #ffffff"/>
   </g>
   <g id="PathCollection_1">
    <defs>
     <path id="m2b668b1160" d="M -3 3 
L 3 -3 
M -3 -3 
L 3 3 
" style="stroke: #333333; stroke-width: 1.5"/>
    </defs>
    <g clip-path="url(#p4a9d3ad859)">
     <use xlink:href="#m2b668b1160" x="295.2" y="247.92" style="fill: #333333; stroke: #333333; stroke-width: 1.5"/>
    </g>
   </g>
   <g id="matplotlib.axis_1">
    <g id="xtick_1">
     <g id="line2d_1">
      <defs>
       <path id="m9994ee4c7d" d="M 0 0 
L 0 3.5 
" style="stroke: #000000; stroke-width: 0.8"/>
      </defs>
      <g>
       <use xlink:href="#m9994ee4c7d" x="72" y="366.96" style="stroke: #000000; stroke-width: 0.8"/>
      </g>
     </g>
     <g id="text_1">
      <!-- −15 -->
      <g transform="translate(61.447656 381.558438) scale(0.1 -0.1)">
       <defs>
        <path id="DejaVuSans-2212" d="M 678 2272 
L 4684 2272 
L 4684 1741 
L 678 1741 
L 678 2272 
z
" transform="scale(0.015625)"/>
        <path id="DejaVuSans-31" d="M 794 531 
L 1825 531 
L 1825 4091 
L 703 3866 
L 703 4441 
L 1819 4666 
L 2450 4666 
L 2450 531 
L 3481 531 
L 3481 0 
L 794 0 
L 794 531 
z
" transform="scale(0.015625)"/>
        <path id="DejaVuSans-35" d="M 691 4666 
L 3169 4666 
L 3169 4134 
L 1269 4134 
L 1269 2991 
Q 1406 3038 1543 3061 
Q 1681 3084 1819 3084 
Q 2600 3084 3056 2656 
Q 3513 2228 3513 1497 
Q 3513 744 3044 326 
Q 2575 -91 1722 -91 
Q 1428 -91 1123 -41 
Q 819 9 494 109 
L 494 744 
Q 775 591 1075 516 
Q 1375 441 1709 441 
Q 2250 441 2565 725 
Q 2881 1009 2881 1497 
Q 2881 1984 2565 2268 
Q 2250 2553 1709 2553 
Q 1456 2553 1204 2497 
Q 953 2441 691 2322 
L 691 4666 
z
" transform="scale(0.015625)"/>
       </defs>
       <use xlink:href="#DejaVuSans-2212"/>
       <use xlink:href="#DejaVuSans-31" transform="translate(83.789062 0)"/>
       <use xlink:href="#DejaVuSans-35" transform="translate(147.412109 0)"/>
      </g>
     </g>
    </g>
    <g id="xtick_2">
     <g id="line2d_2">
      <g>
       <use xlink:href="#m9994ee4c7d" x="146.4" y="366.96" style="stroke: #000000; stroke-width: 0.8"/>
      </g>
     </g>
     <g id="text_2">
      <!-- −10 -->
      <g transform="translate(135.847656 381.558438) scale(0.1 -0.1)">
       <defs>
        <path id="DejaVuSans-30" d="M 2034 4250 
Q 1547 4250 1301 3770 
Q 1056 3291 1056 2328 
Q 1056 1369 1301 889 
Q 1547 409 2034 409 
Q 2525 409 2770 889 
Q 3016 1369 3016 2328 
Q 3016 3291 2770 3770 
Q 2525 4250 2034 4250 
z
M 2034 4750 
Q 2819 4750 3233 4129 
Q 3647 3509 3647 2328 
Q 3647 1150 3233 529 
Q 2819 -91 2034 -91 
Q 1250 -91 836 529 
Q 422 1150 422 2328 
Q 422 3509 836 4129 
Q 1250 4750 2034 4750 
z
" transform="scale(0.015625)"/>
       </defs>
       <use xlink:href="#DejaVuSans-2212"/>
       <use xlink:href="#DejaVuSans-31" transform="translate(83.789062 0)"/>
       <use xlink:href="#DejaVuSans-30" transform="translate(147.412109 0)"/>
      </g>
     </g>
    </g>
    <g id="xtick_3">
     <g id="line2d_3">
      <g>
       <use xlink:href="#m9994ee4c7d" x="220.8" y="366.96" style="stroke: #000000; stroke-width: 0.8"/>
      </g>
     </g>
     <g id="text_3">
      <!-- −5 -->
      <g transform="translate(213.428906 381.558438) scale(0.1 -0.1)">
       <use xlink:href="#DejaVuSans-2212"/>
       <use xlink:href="#DejaVuSans-35" transform="translate(83.789062 0)"/>
      </g>
     </g>
    </g>
    <g id="xtick_4">
     <g id="line2d_4">
      <g>
       <use xlink:href="#m9994ee4c7d" x="295.2" y="366.96" style="stroke: #000000; stroke-width: 0.8"/>
      </g>
     </g>
     <g id="text_4">
      <!-- 0 -->
      <g transform="translate(292.01875 381.558438) scale(0.1 -0.1)">
       <use xlink:href="#DejaVuSans-30"/>
      </g>
     </g>
    </g>
    <g id="xtick_5">
     <g id="line2d_5">
      <g>
       <use xlink:href="#m9994ee4c7d" x="369.6" y="366.96" style="stroke: #000000; stroke-width: 0.8"/>
      </g>
     </g>
     <g id="text_5">
      <!-- 5 -->
      <g transform="translate(366.41875 381.558438) scale(0.1 -0.1)">
       <use xlink:href="#DejaVuSans-35"/>
      </g>
     </g>
    </g>
    <g id="xtick_6">
     <g id="line2d_6">
      <g>
       <use xlink:href="#m9994ee4c7d" x="444" y="366.96" style="stroke: #000000; stroke-width: 0.8"/>
      </g>
     </g>
     <g id="text_6">
      <!-- 10 -->
      <g transform="translate(437.6375 381.558438) scale(0.1 -0.1)">
       <use xlink:href="#DejaVuSans-31"/>
       <use xlink:href="#DejaVuSans-30" transform="translate(63.623047 0)"/>
      </g>
     </g>
    </g>
    <g id="xtick_7">
     <g id="line2d_7">
      <g>
       <use xlink:href="#m9994ee4c7d" x="518.4" y="366.96" style="stroke: #000000; stroke-width: 0.8"/>
      </g>
     </g>
     <g id="text_7">
      <!-- 15 -->
      <g transform="translate(512.0375 381.558438) scale(0.1 -0.1)">
       <use xlink:href="#DejaVuSans-31"/>
       <use xlink:href="#DejaVuSans-35" transform="translate(63.623047 0)"/>
      </g>
     </g>
    </g>
    <g id="text_8">
     <!-- $z$ [$R_E$] -->
     <g transform="translate(281.25 395.236563) scale(0.1 -0.1)">
      <defs>
       <path id="DejaVuSans-Oblique-7a" d="M 744 3500 
L 3475 3500 
L 3372 2975 
L 738 459 
L 2913 459 
L 2822 0 
L -19 0 
L 84 525 
L 2719 3041 
L 653 3041 
L 744 3500 
z
" transform="scale(0.015625)"/>
       <path id="DejaVuSans-20" transform="scale(0.015625)"/>
       <path id="DejaVuSans-5b" d="M 550 4863 
L 1875 4863 
L 1875 4416 
L 1125 4416 
L 1125 -397 
L 1875 -397 
L 1875 -844 
L 550 -844 
L 550 4863 
z
" transform="scale(0.015625)"/>
       <path id="DejaVuSans-Oblique-52" d="M 1613 4147 
L 1294 2491 
L 2106 2491 
Q 2584 2491 2879 2755 
Q 3175 3019 3175 3444 
Q 3175 3784 2976 3965 
Q 2778 4147 2406 4147 
L 1613 4147 
z
M 2772 2241 
Q 2972 2194 3105 2009 
Q 3238 1825 3413 1275 
L 3809 0 
L 3144 0 
L 2778 1197 
Q 2638 1659 2453 1815 
Q 2269 1972 1888 1972 
L 1191 1972 
L 806 0 
L 172 0 
L 1081 4666 
L 2503 4666 
Q 3150 4666 3495 4373 
Q 3841 4081 3841 3531 
Q 3841 3044 3547 2687 
Q 3253 2331 2772 2241 
z
" transform="scale(0.015625)"/>
       <path id="DejaVuSans-Oblique-45" d="M 1081 4666 
L 4031 4666 
L 3928 4134 
L 1606 4134 
L 1338 2753 
L 3566 2753 
L 3463 2222 
L 1234 2222 
L 909 531 
L 3284 531 
L 3181 0 
L 172 0 
L 1081 4666 
z
" transform="scale(0.015625)"/>
       <path id="DejaVuSans-5d" d="M 1947 4863 
L 1947 -844 
L 622 -844 
L 622 -397 
L 1369 -397 
L 1369 4416 
L 622 4416 
L 622 4863 
L 1947 4863 
z
" transform="scale(0.015625)"/>
      </defs>
      <use xlink:href="#DejaVuSans-Oblique-7a" transform="translate(0 0.015625)"/>
      <use xlink:href="#DejaVuSans-20" transform="translate(52.490234 0.015625)"/>
      <use xlink:href="#DejaVuSans-5b" transform="translate(84.277344 0.015625)"/>
      <use xlink:href="#DejaVuSans-Oblique-52" transform="translate(123.291016 0.015625)"/>
      <use xlink:href="#DejaVuSans-Oblique-45" transform="translate(192.773438 -16.390625) scale(0.7)"/>
      <use xlink:href="#DejaVuSans-5d" transform="translate(239.736328 0.015625)"/>
     </g>
    </g>
   </g>
   <g id="matplotlib.axis_2">
    <g id="ytick_1">
     <g id="line2d_8">
      <defs>
       <path id="m682eb7b368" d="M 0 0 
L -3.5 0 
" style="stroke: #000000; stroke-width: 0.8"/>
      </defs>
      <g>
       <use xlink:href="#m682eb7b368" x="72" y="366.96" style="stroke: #000000; stroke-width: 0.8"/>
      </g>
     </g>
     <g id="text_9">
      <!-- −10 -->
      <g transform="translate(43.895313 370.759219) scale(0.1 -0.1)">
       <use xlink:href="#DejaVuSans-2212"/>
       <use xlink:href="#DejaVuSans-31" transform="translate(83.789062 0)"/>
       <use xlink:href="#DejaVuSans-30" transform="translate(147.412109 0)"/>
      </g>
     </g>
    </g>
    <g id="ytick_2">
     <g id="line2d_9">
      <g>
       <use xlink:href="#m682eb7b368" x="72" y="307.44" style="stroke: #000000; stroke-width: 0.8"/>
      </g>
     </g>
     <g id="text_10">
      <!-- −5 -->
      <g transform="translate(50.257812 311.239219) scale(0.1 -0.1)">
       <use xlink:href="#DejaVuSans-2212"/>
       <use xlink:href="#DejaVuSans-35" transform="translate(83.789062 0)"/>
      </g>
     </g>
    </g>
    <g id="ytick_3">
     <g id="line2d_10">
      <g>
       <use xlink:href="#m682eb7b368" x="72" y="247.92" style="stroke: #000000; stroke-width: 0.8"/>
      </g>
     </g>
     <g id="text_11">
      <!-- 0 -->
      <g transform="translate(58.6375 251.719219) scale(0.1 -0.1)">
       <use xlink:href="#DejaVuSans-30"/>
      </g>
     </g>
    </g>
    <g id="ytick_4">
     <g id="line2d_11">
      <g>
       <use xlink:href="#m682eb7b368" x="72" y="188.4" style="stroke: #000000; stroke-width: 0.8"/>
      </g>
     </g>
     <g id="text_12">
      <!-- 5 -->
      <g transform="translate(58.6375 192.199219) scale(0.1 -0.1)">
       <use xlink:href="#DejaVuSans-35"/>
      </g>
     </g>
    </g>
    <g id="ytick_5">
     <g id="line2d_12">
      <g>
       <use xlink:href="#m682eb7b368" x="72" y="128.88" style="stroke: #000000; stroke-width: 0.8"/>
      </g>
     </g>
     <g id="text_13">
      <!-- 10 -->
      <g transform="translate(52.275 132.679219) scale(0.1 -0.1)">
       <use xlink:href="#DejaVuSans-31"/>
       <use xlink:href="#DejaVuSans-30" transform="translate(63.623047 0)"/>
      </g>
     </g>
    </g>
    <g id="ytick_6">
     <g id="line2d_13">
      <g>
       <use xlink:href="#m682eb7b368" x="72" y="69.36" style="stroke: #000000; stroke-width: 0.8"/>
      </g>
     </g>
     <g id="text_14">
      <!-- 15 -->
      <g transform="translate(52.275 73.159219) scale(0.1 -0.1)">
       <use xlink:href="#DejaVuSans-31"/>
       <use xlink:href="#DejaVuSans-35" transform="translate(63.623047 0)"/>
      </g>
     </g>
    </g>
    <g id="text_15">
     <!-- $x$ [$R_E$] -->
     <g transform="translate(37.815625 232.46) rotate(-90) scale(0.1 -0.1)">
      <defs>
       <path id="DejaVuSans-Oblique-78" d="M 3841 3500 
L 2234 1784 
L 3219 0 
L 2559 0 
L 1819 1388 
L 531 0 
L -166 0 
L 1556 1844 
L 641 3500 
L 1300 3500 
L 1972 2234 
L 3144 3500 
L 3841 3500 
z
" transform="scale(0.015625)"/>
      </defs>
      <use xlink:href="#DejaVuSans-Oblique-78" transform="translate(0 0.015625)"/>
      <use xlink:href="#DejaVuSans-20" transform="translate(59.179688 0.015625)"/>
      <use xlink:href="#DejaVuSans-5b" transform="translate(90.966797 0.015625)"/>
      <use xlink:href="#DejaVuSans-Oblique-52" transform="translate(129.980469 0.015625)"/>
      <use xlink:href="#DejaVuSans-Oblique-45" transform="translate(199.462891 -16.390625) scale(0.7)"/>
      <use xlink:href="#DejaVuSans-5d" transform="translate(246.425781 0.015625)"/>
     </g>
    </g>
   </g>
   <g id="line2d_14">
    <path d="M 294.419737 267.782695 
L 293.682747 267.261559 
L 292.259266 266.613844 
L 285.795095 263.994702 
L 283.20734 262.61397 
L 281.080503 261.236707 
L 279.125669 259.716192 
L 277.352868 258.054204 
L 275.773507 256.254168 
L 274.400678 254.320353 
L 273.380976 252.52237 
L 272.543765 250.62961 
L 271.904468 248.647071 
L 271.482332 246.581827 
L 271.301455 244.444653 
L 271.360882 242.568143 
L 271.641738 240.667252 
L 272.16944 238.765564 
L 272.817548 237.204143 
L 273.672161 235.691677 
L 274.747921 234.262186 
L 276.056082 232.958581 
L 277.273674 232.041436 
L 278.641845 231.270134 
L 280.153707 230.680465 
L 281.795643 230.311852 
L 283.545785 230.206537 
L 284.910821 230.326679 
L 286.301904 230.638097 
L 287.698066 231.158793 
L 289.074541 231.905689 
L 290.402755 232.894015 
L 291.650449 234.136681 
L 292.781935 235.643641 
L 293.12666 236.205913 
L 293.378946 236.329038 
L 293.638662 234.639086 
L 294.036704 233.053044 
L 294.867061 230.879296 
L 295.2 230.211392 
L 295.2 253.894573 
L 294.724366 256.029446 
L 293.976206 258.329726 
L 293.310533 259.946407 
L 293.102231 259.772107 
L 292.757844 257.403177 
L 292.669547 255.359028 
L 292.819739 253.238103 
L 293.158808 251.557241 
L 293.696875 250.041025 
L 294.380537 248.828333 
L 295.129647 247.980391 
L 295.881557 247.479134 
L 296.627123 247.26076 
L 297.412924 247.270299 
L 298.302892 247.508743 
L 299.238041 247.995492 
L 300.083779 248.692828 
L 300.77133 249.554911 
L 301.260037 250.519819 
L 301.567327 251.656657 
L 301.644918 252.800181 
L 301.502619 254.056152 
L 301.10947 255.413847 
L 300.437078 256.871124 
L 299.456954 258.452139 
L 296.384041 263.013863 
L 295.848819 264.4366 
L 295.848819 264.4366 
" clip-path="url(#p4a9d3ad859)" style="fill: none; stroke-dasharray: 9.6,2.4,1.5,2.4; stroke-dashoffset: 0; stroke: #333333; stroke-width: 1.5"/>
   </g>
   <g id="line2d_15">
    <path d="M 294.670034 261.411037 
L 294.088739 260.818831 
L 293.081195 260.181194 
L 290.643133 258.990082 
L 287.167401 257.216198 
L 284.550573 255.626715 
L 282.260928 253.980303 
L 280.255041 252.269532 
L 278.540577 250.525901 
L 277.075054 248.732403 
L 275.822434 246.853534 
L 274.810199 244.936949 
L 274.05131 243.043839 
L 273.5088 241.107544 
L 273.196469 239.168986 
L 273.116787 237.27287 
L 273.259661 235.463982 
L 273.602624 233.783348 
L 274.17447 232.114604 
L 274.912568 230.643404 
L 275.767226 229.390631 
L 276.810419 228.242175 
L 277.899362 227.343208 
L 279.140207 226.595772 
L 280.528915 226.04186 
L 281.858798 225.755327 
L 283.286589 225.696455 
L 284.579061 225.865481 
L 285.924341 226.279761 
L 287.07678 226.850339 
L 288.248489 227.669307 
L 289.429129 228.793547 
L 290.371895 229.967161 
L 291.305157 231.450857 
L 292.2202 233.338774 
L 293.106515 235.782795 
L 293.322141 236.50807 
L 293.25468 228.75533 
L 293.56893 221.77263 
L 294.531695 205.032802 
L 295.2 189.207142 
L 295.2 193.104117 
L 295.620992 229.910259 
L 295.55484 240.332745 
L 295.300673 246.485768 
L 294.914582 250.96716 
L 294.421042 254.565997 
L 293.618531 258.553486 
L 293.199062 260.07989 
L 293.493451 255.663291 
L 293.902558 252.602293 
L 294.447723 250.111486 
L 295.096934 248.165429 
L 295.798149 246.74397 
L 296.482745 245.822433 
L 297.07222 245.362473 
L 297.464553 245.297801 
L 297.640944 245.471051 
L 297.638595 245.817203 
L 297.402838 246.325056 
L 296.878958 246.928543 
L 296.055927 247.524588 
L 295.036568 247.976091 
L 293.979582 248.207989 
L 292.93495 248.216479 
L 292.045406 248.01474 
L 291.369141 247.652285 
L 290.938036 247.186893 
L 290.76141 246.678105 
L 290.821023 246.20668 
L 291.100185 245.773364 
L 291.593673 245.438122 
L 292.24106 245.272186 
L 292.981558 245.318054 
L 293.675113 245.577795 
L 294.300699 246.053992 
L 294.787041 246.71818 
L 295.121082 247.575014 
L 295.303825 248.699092 
L 295.338999 250.452445 
L 295.324822 251.09751 
L 295.324822 251.09751 
" clip-path="url(#p4a9d3ad859)" style="fill: none; stroke: #333333; stroke-width: 1.5; stroke-linecap: square"/>
   </g>
   <g id="patch_3">
    <path d="M 72 366.96 
L 72 69.36 
" style="fill: none; stroke: #000000; stroke-width: 0.8; stroke-linejoin: miter; stroke-linecap: square"/>
   </g>
   <g id="patch_4">
    <path d="M 518.4 366.96 
L 518.4 69.36 
" style="fill: none; stroke: #000000; stroke-width: 0.8; stroke-linejoin: miter; stroke-linecap: square"/>
   </g>
   <g id="patch_5">
    <path d="M 72 366.96 
L 518.4 366.96 
" style="fill: none; stroke: #000000; stroke-width: 0.8; stroke-linejoin: miter; stroke-linecap: square"/>
   </g>
   <g id="patch_6">
    <path d="M 72 69.36 
L 518.4 69.36 
" style="fill: none; stroke: #000000; stroke-width: 0.8; stroke-linejoin: miter; stroke-linecap: square"/>
   </g>
   <g id="text_16">
    <!-- Liu12 cusps model vs mine -->
    <g transform="translate(213.597187 20.474625) scale(0.12 -0.12)">
     <defs>
      <path id="DejaVuSans-4c" d="M 628 4666 
L 1259 4666 
L 1259 531 
L 3531 531 
L 3531 0 
L 628 0 
L 628 4666 
z
" transform="scale(0.015625)"/>
      <path id="DejaVuSans-69" d="M 603 3500 
L 1178 3500 
L 1178 0 
L 603 0 
L 603 3500 
z
M 603 4863 
L 1178 4863 
L 1178 4134 
L 603 4134 
L 603 4863 
z
" transform="scale(0.015625)"/>
      <path id="DejaVuSans-75" d="M 544 1381 
L 544 3500 
L 1119 3500 
L 1119 1403 
Q 1119 906 1312 657 
Q 1506 409 1894 409 
Q 2359 409 2629 706 
Q 2900 1003 2900 1516 
L 2900 3500 
L 3475 3500 
L 3475 0 
L 2900 0 
L 2900 538 
Q 2691 219 2414 64 
Q 2138 -91 1772 -91 
Q 1169 -91 856 284 
Q 544 659 544 1381 
z
M 1991 3584 
L 1991 3584 
z
" transform="scale(0.015625)"/>
      <path id="DejaVuSans-32" d="M 1228 531 
L 3431 531 
L 3431 0 
L 469 0 
L 469 531 
Q 828 903 1448 1529 
Q 2069 2156 2228 2338 
Q 2531 2678 2651 2914 
Q 2772 3150 2772 3378 
Q 2772 3750 2511 3984 
Q 2250 4219 1831 4219 
Q 1534 4219 1204 4116 
Q 875 4013 500 3803 
L 500 4441 
Q 881 4594 1212 4672 
Q 1544 4750 1819 4750 
Q 2544 4750 2975 4387 
Q 3406 4025 3406 3419 
Q 3406 3131 3298 2873 
Q 3191 2616 2906 2266 
Q 2828 2175 2409 1742 
Q 1991 1309 1228 531 
z
" transform="scale(0.015625)"/>
      <path id="DejaVuSans-63" d="M 3122 3366 
L 3122 2828 
Q 2878 2963 2633 3030 
Q 2388 3097 2138 3097 
Q 1578 3097 1268 2742 
Q 959 2388 959 1747 
Q 959 1106 1268 751 
Q 1578 397 2138 397 
Q 2388 397 2633 464 
Q 2878 531 3122 666 
L 3122 134 
Q 2881 22 2623 -34 
Q 2366 -91 2075 -91 
Q 1284 -91 818 406 
Q 353 903 353 1747 
Q 353 2603 823 3093 
Q 1294 3584 2113 3584 
Q 2378 3584 2631 3529 
Q 2884 3475 3122 3366 
z
" transform="scale(0.015625)"/>
      <path id="DejaVuSans-73" d="M 2834 3397 
L 2834 2853 
Q 2591 2978 2328 3040 
Q 2066 3103 1784 3103 
Q 1356 3103 1142 2972 
Q 928 2841 928 2578 
Q 928 2378 1081 2264 
Q 1234 2150 1697 2047 
L 1894 2003 
Q 2506 1872 2764 1633 
Q 3022 1394 3022 966 
Q 3022 478 2636 193 
Q 2250 -91 1575 -91 
Q 1294 -91 989 -36 
Q 684 19 347 128 
L 347 722 
Q 666 556 975 473 
Q 1284 391 1588 391 
Q 1994 391 2212 530 
Q 2431 669 2431 922 
Q 2431 1156 2273 1281 
Q 2116 1406 1581 1522 
L 1381 1569 
Q 847 1681 609 1914 
Q 372 2147 372 2553 
Q 372 3047 722 3315 
Q 1072 3584 1716 3584 
Q 2034 3584 2315 3537 
Q 2597 3491 2834 3397 
z
" transform="scale(0.015625)"/>
      <path id="DejaVuSans-70" d="M 1159 525 
L 1159 -1331 
L 581 -1331 
L 581 3500 
L 1159 3500 
L 1159 2969 
Q 1341 3281 1617 3432 
Q 1894 3584 2278 3584 
Q 2916 3584 3314 3078 
Q 3713 2572 3713 1747 
Q 3713 922 3314 415 
Q 2916 -91 2278 -91 
Q 1894 -91 1617 61 
Q 1341 213 1159 525 
z
M 3116 1747 
Q 3116 2381 2855 2742 
Q 2594 3103 2138 3103 
Q 1681 3103 1420 2742 
Q 1159 2381 1159 1747 
Q 1159 1113 1420 752 
Q 1681 391 2138 391 
Q 2594 391 2855 752 
Q 3116 1113 3116 1747 
z
" transform="scale(0.015625)"/>
      <path id="DejaVuSans-6d" d="M 3328 2828 
Q 3544 3216 3844 3400 
Q 4144 3584 4550 3584 
Q 5097 3584 5394 3201 
Q 5691 2819 5691 2113 
L 5691 0 
L 5113 0 
L 5113 2094 
Q 5113 2597 4934 2840 
Q 4756 3084 4391 3084 
Q 3944 3084 3684 2787 
Q 3425 2491 3425 1978 
L 3425 0 
L 2847 0 
L 2847 2094 
Q 2847 2600 2669 2842 
Q 2491 3084 2119 3084 
Q 1678 3084 1418 2786 
Q 1159 2488 1159 1978 
L 1159 0 
L 581 0 
L 581 3500 
L 1159 3500 
L 1159 2956 
Q 1356 3278 1631 3431 
Q 1906 3584 2284 3584 
Q 2666 3584 2933 3390 
Q 3200 3197 3328 2828 
z
" transform="scale(0.015625)"/>
      <path id="DejaVuSans-6f" d="M 1959 3097 
Q 1497 3097 1228 2736 
Q 959 2375 959 1747 
Q 959 1119 1226 758 
Q 1494 397 1959 397 
Q 2419 397 2687 759 
Q 2956 1122 2956 1747 
Q 2956 2369 2687 2733 
Q 2419 3097 1959 3097 
z
M 1959 3584 
Q 2709 3584 3137 3096 
Q 3566 2609 3566 1747 
Q 3566 888 3137 398 
Q 2709 -91 1959 -91 
Q 1206 -91 779 398 
Q 353 888 353 1747 
Q 353 2609 779 3096 
Q 1206 3584 1959 3584 
z
" transform="scale(0.015625)"/>
      <path id="DejaVuSans-64" d="M 2906 2969 
L 2906 4863 
L 3481 4863 
L 3481 0 
L 2906 0 
L 2906 525 
Q 2725 213 2448 61 
Q 2172 -91 1784 -91 
Q 1150 -91 751 415 
Q 353 922 353 1747 
Q 353 2572 751 3078 
Q 1150 3584 1784 3584 
Q 2172 3584 2448 3432 
Q 2725 3281 2906 2969 
z
M 947 1747 
Q 947 1113 1208 752 
Q 1469 391 1925 391 
Q 2381 391 2643 752 
Q 2906 1113 2906 1747 
Q 2906 2381 2643 2742 
Q 2381 3103 1925 3103 
Q 1469 3103 1208 2742 
Q 947 2381 947 1747 
z
" transform="scale(0.015625)"/>
      <path id="DejaVuSans-65" d="M 3597 1894 
L 3597 1613 
L 953 1613 
Q 991 1019 1311 708 
Q 1631 397 2203 397 
Q 2534 397 2845 478 
Q 3156 559 3463 722 
L 3463 178 
Q 3153 47 2828 -22 
Q 2503 -91 2169 -91 
Q 1331 -91 842 396 
Q 353 884 353 1716 
Q 353 2575 817 3079 
Q 1281 3584 2069 3584 
Q 2775 3584 3186 3129 
Q 3597 2675 3597 1894 
z
M 3022 2063 
Q 3016 2534 2758 2815 
Q 2500 3097 2075 3097 
Q 1594 3097 1305 2825 
Q 1016 2553 972 2059 
L 3022 2063 
z
" transform="scale(0.015625)"/>
      <path id="DejaVuSans-6c" d="M 603 4863 
L 1178 4863 
L 1178 0 
L 603 0 
L 603 4863 
z
" transform="scale(0.015625)"/>
      <path id="DejaVuSans-76" d="M 191 3500 
L 800 3500 
L 1894 563 
L 2988 3500 
L 3597 3500 
L 2284 0 
L 1503 0 
L 191 3500 
z
" transform="scale(0.015625)"/>
      <path id="DejaVuSans-6e" d="M 3513 2113 
L 3513 0 
L 2938 0 
L 2938 2094 
Q 2938 2591 2744 2837 
Q 2550 3084 2163 3084 
Q 1697 3084 1428 2787 
Q 1159 2491 1159 1978 
L 1159 0 
L 581 0 
L 581 3500 
L 1159 3500 
L 1159 2956 
Q 1366 3272 1645 3428 
Q 1925 3584 2291 3584 
Q 2894 3584 3203 3211 
Q 3513 2838 3513 2113 
z
" transform="scale(0.015625)"/>
     </defs>
     <use xlink:href="#DejaVuSans-4c"/>
     <use xlink:href="#DejaVuSans-69" transform="translate(55.712891 0)"/>
     <use xlink:href="#DejaVuSans-75" transform="translate(83.496094 0)"/>
     <use xlink:href="#DejaVuSans-31" transform="translate(146.875 0)"/>
     <use xlink:href="#DejaVuSans-32" transform="translate(210.498047 0)"/>
     <use xlink:href="#DejaVuSans-20" transform="translate(274.121094 0)"/>
     <use xlink:href="#DejaVuSans-63" transform="translate(305.908203 0)"/>
     <use xlink:href="#DejaVuSans-75" transform="translate(360.888672 0)"/>
     <use xlink:href="#DejaVuSans-73" transform="translate(424.267578 0)"/>
     <use xlink:href="#DejaVuSans-70" transform="translate(476.367188 0)"/>
     <use xlink:href="#DejaVuSans-73" transform="translate(539.84375 0)"/>
     <use xlink:href="#DejaVuSans-20" transform="translate(591.943359 0)"/>
     <use xlink:href="#DejaVuSans-6d" transform="translate(623.730469 0)"/>
     <use xlink:href="#DejaVuSans-6f" transform="translate(721.142578 0)"/>
     <use xlink:href="#DejaVuSans-64" transform="translate(782.324219 0)"/>
     <use xlink:href="#DejaVuSans-65" transform="translate(845.800781 0)"/>
     <use xlink:href="#DejaVuSans-6c" transform="translate(907.324219 0)"/>
     <use xlink:href="#DejaVuSans-20" transform="translate(935.107422 0)"/>
     <use xlink:href="#DejaVuSans-76" transform="translate(966.894531 0)"/>
     <use xlink:href="#DejaVuSans-73" transform="translate(1026.074219 0)"/>
     <use xlink:href="#DejaVuSans-20" transform="translate(1078.173828 0)"/>
     <use xlink:href="#DejaVuSans-6d" transform="translate(1109.960938 0)"/>
     <use xlink:href="#DejaVuSans-69" transform="translate(1207.373047 0)"/>
     <use xlink:href="#DejaVuSans-6e" transform="translate(1235.15625 0)"/>
     <use xlink:href="#DejaVuSans-65" transform="translate(1298.535156 0)"/>
    </g>
    <!-- $\dfrac{d_N}{d_S} = 1.5$, $\ell_N = \ell_S = 1$ and $\dfrac{s_N}{s_S} = 1.5$ -->
    <g transform="translate(197.76 42.69825) scale(0.12 -0.12)">
     <defs>
      <path id="DejaVuSans-Oblique-64" d="M 2675 525 
Q 2444 222 2128 65 
Q 1813 -91 1428 -91 
Q 903 -91 598 267 
Q 294 625 294 1247 
Q 294 1766 478 2236 
Q 663 2706 1013 3078 
Q 1244 3325 1534 3454 
Q 1825 3584 2144 3584 
Q 2481 3584 2739 3421 
Q 2997 3259 3138 2956 
L 3513 4863 
L 4091 4863 
L 3144 0 
L 2566 0 
L 2675 525 
z
M 891 1350 
Q 891 897 1095 644 
Q 1300 391 1663 391 
Q 1931 391 2161 520 
Q 2391 650 2566 903 
Q 2750 1166 2856 1509 
Q 2963 1853 2963 2188 
Q 2963 2622 2758 2865 
Q 2553 3109 2194 3109 
Q 1922 3109 1687 2981 
Q 1453 2853 1288 2613 
Q 1106 2353 998 2009 
Q 891 1666 891 1350 
z
" transform="scale(0.015625)"/>
      <path id="DejaVuSans-Oblique-4e" d="M 1081 4666 
L 1931 4666 
L 3219 666 
L 4000 4666 
L 4616 4666 
L 3706 0 
L 2853 0 
L 1569 4025 
L 788 0 
L 172 0 
L 1081 4666 
z
" transform="scale(0.015625)"/>
      <path id="DejaVuSans-Oblique-53" d="M 3859 4513 
L 3738 3897 
Q 3422 4066 3111 4152 
Q 2800 4238 2509 4238 
Q 1944 4238 1609 3991 
Q 1275 3744 1275 3334 
Q 1275 3109 1398 2989 
Q 1522 2869 2034 2731 
L 2413 2638 
Q 3053 2472 3303 2217 
Q 3553 1963 3553 1503 
Q 3553 797 2998 353 
Q 2444 -91 1538 -91 
Q 1166 -91 791 -17 
Q 416 56 38 206 
L 166 856 
Q 513 641 861 531 
Q 1209 422 1556 422 
Q 2147 422 2503 684 
Q 2859 947 2859 1369 
Q 2859 1650 2717 1795 
Q 2575 1941 2106 2059 
L 1728 2156 
Q 1081 2325 845 2545 
Q 609 2766 609 3163 
Q 609 3859 1145 4304 
Q 1681 4750 2541 4750 
Q 2875 4750 3203 4690 
Q 3531 4631 3859 4513 
z
" transform="scale(0.015625)"/>
      <path id="DejaVuSans-3d" d="M 678 2906 
L 4684 2906 
L 4684 2381 
L 678 2381 
L 678 2906 
z
M 678 1631 
L 4684 1631 
L 4684 1100 
L 678 1100 
L 678 1631 
z
" transform="scale(0.015625)"/>
      <path id="DejaVuSans-2e" d="M 684 794 
L 1344 794 
L 1344 0 
L 684 0 
L 684 794 
z
" transform="scale(0.015625)"/>
      <path id="DejaVuSans-2c" d="M 750 794 
L 1409 794 
L 1409 256 
L 897 -744 
L 494 -744 
L 750 256 
L 750 794 
z
" transform="scale(0.015625)"/>
      <path id="DejaVuSans-Oblique-2113" d="M 950 838 
Q 1078 213 1350 213 
Q 1531 213 1766 572 
L 2181 572 
Q 1994 253 1775 88 
Q 1538 -91 1319 -91 
Q 831 -91 634 344 
L 400 0 
L -88 0 
Q 250 459 500 888 
Q 469 1131 469 1397 
Q 469 1872 566 2347 
Q 931 4131 1256 4497 
Q 1481 4750 1866 4750 
Q 2256 4750 2256 4209 
Q 2253 3966 2197 3675 
Q 1972 2484 950 838 
z
M 947 1656 
Q 1531 2744 1709 3613 
Q 1803 4072 1803 4191 
Q 1803 4406 1725 4406 
Q 1384 4134 1081 2516 
Q 997 2063 947 1656 
z
" transform="scale(0.015625)"/>
      <path id="DejaVuSans-61" d="M 2194 1759 
Q 1497 1759 1228 1600 
Q 959 1441 959 1056 
Q 959 750 1161 570 
Q 1363 391 1709 391 
Q 2188 391 2477 730 
Q 2766 1069 2766 1631 
L 2766 1759 
L 2194 1759 
z
M 3341 1997 
L 3341 0 
L 2766 0 
L 2766 531 
Q 2569 213 2275 61 
Q 1981 -91 1556 -91 
Q 1019 -91 701 211 
Q 384 513 384 1019 
Q 384 1609 779 1909 
Q 1175 2209 1959 2209 
L 2766 2209 
L 2766 2266 
Q 2766 2663 2505 2880 
Q 2244 3097 1772 3097 
Q 1472 3097 1187 3025 
Q 903 2953 641 2809 
L 641 3341 
Q 956 3463 1253 3523 
Q 1550 3584 1831 3584 
Q 2591 3584 2966 3190 
Q 3341 2797 3341 1997 
z
" transform="scale(0.015625)"/>
      <path id="DejaVuSans-Oblique-73" d="M 3200 3397 
L 3091 2853 
Q 2863 2978 2609 3040 
Q 2356 3103 2088 3103 
Q 1634 3103 1373 2948 
Q 1113 2794 1113 2528 
Q 1113 2219 1719 2053 
Q 1766 2041 1788 2034 
L 1972 1978 
Q 2547 1819 2739 1644 
Q 2931 1469 2931 1166 
Q 2931 609 2489 259 
Q 2047 -91 1331 -91 
Q 1053 -91 747 -37 
Q 441 16 72 128 
L 184 722 
Q 500 559 806 475 
Q 1113 391 1394 391 
Q 1816 391 2080 572 
Q 2344 753 2344 1031 
Q 2344 1331 1650 1516 
L 1591 1531 
L 1394 1581 
Q 956 1697 753 1886 
Q 550 2075 550 2369 
Q 550 2928 970 3256 
Q 1391 3584 2113 3584 
Q 2397 3584 2667 3537 
Q 2938 3491 3200 3397 
z
" transform="scale(0.015625)"/>
     </defs>
     <use xlink:href="#DejaVuSans-Oblique-64" transform="translate(0 61.015625)"/>
     <use xlink:href="#DejaVuSans-Oblique-4e" transform="translate(63.476562 44.609375) scale(0.7)"/>
     <use xlink:href="#DejaVuSans-Oblique-64" transform="translate(4 -62.625)"/>
     <use xlink:href="#DejaVuSans-Oblique-53" transform="translate(67.476562 -79.03125) scale(0.7)"/>
     <use xlink:href="#DejaVuSans-3d" transform="translate(150.556641 0.8125)"/>
     <use xlink:href="#DejaVuSans-31" transform="translate(253.828125 0.8125)"/>
     <use xlink:href="#DejaVuSans-2e" transform="translate(317.451172 0.8125)"/>
     <use xlink:href="#DejaVuSans-35" transform="translate(349.238281 0.8125)"/>
     <use xlink:href="#DejaVuSans-2c" transform="translate(412.861328 0.8125)"/>
     <use xlink:href="#DejaVuSans-20" transform="translate(444.648438 0.8125)"/>
     <use xlink:href="#DejaVuSans-Oblique-2113" transform="translate(476.435547 0.8125)"/>
     <use xlink:href="#DejaVuSans-Oblique-4e" transform="translate(517.744141 -15.59375) scale(0.7)"/>
     <use xlink:href="#DejaVuSans-3d" transform="translate(592.324219 0.8125)"/>
     <use xlink:href="#DejaVuSans-Oblique-2113" transform="translate(695.595703 0.8125)"/>
     <use xlink:href="#DejaVuSans-Oblique-53" transform="translate(736.904297 -15.59375) scale(0.7)"/>
     <use xlink:href="#DejaVuSans-3d" transform="translate(803.554688 0.8125)"/>
     <use xlink:href="#DejaVuSans-31" transform="translate(906.826172 0.8125)"/>
     <use xlink:href="#DejaVuSans-20" transform="translate(970.449219 0.8125)"/>
     <use xlink:href="#DejaVuSans-61" transform="translate(1002.236328 0.8125)"/>
     <use xlink:href="#DejaVuSans-6e" transform="translate(1063.515625 0.8125)"/>
     <use xlink:href="#DejaVuSans-64" transform="translate(1126.894531 0.8125)"/>
     <use xlink:href="#DejaVuSans-20" transform="translate(1190.371094 0.8125)"/>
     <use xlink:href="#DejaVuSans-Oblique-73" transform="translate(1222.158203 61.015625)"/>
     <use xlink:href="#DejaVuSans-Oblique-4e" transform="translate(1274.257812 44.609375) scale(0.7)"/>
     <use xlink:href="#DejaVuSans-Oblique-73" transform="translate(1226.158203 -42.640625)"/>
     <use xlink:href="#DejaVuSans-Oblique-53" transform="translate(1278.257812 -59.046875) scale(0.7)"/>
     <use xlink:href="#DejaVuSans-3d" transform="translate(1361.337891 0.8125)"/>
     <use xlink:href="#DejaVuSans-31" transform="translate(1464.609375 0.8125)"/>
     <use xlink:href="#DejaVuSans-2e" transform="translate(1528.232422 0.8125)"/>
     <use xlink:href="#DejaVuSans-35" transform="translate(1560.019531 0.8125)"/>
     <path d="M 0 19.609375 
L 0 25.859375 
L 118.574219 25.859375 
L 118.574219 19.609375 
L 0 19.609375 
z
"/>
     <path d="M 1222.158203 19.609375 
L 1222.158203 25.859375 
L 1329.355469 25.859375 
L 1329.355469 19.609375 
L 1222.158203 19.609375 
z
"/>
    </g>
    <!--  -->
    <g transform="translate(295.2 63.36) scale(0.12 -0.12)"/>
   </g>
   <g id="legend_1">
    <g id="patch_7">
     <path d="M 385.889062 121.394375 
L 511.4 121.394375 
Q 513.4 121.394375 513.4 119.394375 
L 513.4 76.36 
Q 513.4 74.36 511.4 74.36 
L 385.889062 74.36 
Q 383.889062 74.36 383.889062 76.36 
L 383.889062 119.394375 
Q 383.889062 121.394375 385.889062 121.394375 
z
" style="fill: #ffffff; opacity: 0.8; stroke: #cccccc; stroke-linejoin: miter"/>
    </g>
    <g id="line2d_16">
     <path d="M 387.889062 82.458438 
L 397.889062 82.458438 
L 407.889062 82.458438 
" style="fill: none; stroke-dasharray: 9.6,2.4,1.5,2.4; stroke-dashoffset: 0; stroke: #333333; stroke-width: 1.5"/>
    </g>
    <g id="text_17">
     <!-- Liu12 cusps model -->
     <g transform="translate(415.889062 85.958438) scale(0.1 -0.1)">
      <use xlink:href="#DejaVuSans-4c"/>
      <use xlink:href="#DejaVuSans-69" transform="translate(55.712891 0)"/>
      <use xlink:href="#DejaVuSans-75" transform="translate(83.496094 0)"/>
      <use xlink:href="#DejaVuSans-31" transform="translate(146.875 0)"/>
      <use xlink:href="#DejaVuSans-32" transform="translate(210.498047 0)"/>
      <use xlink:href="#DejaVuSans-20" transform="translate(274.121094 0)"/>
      <use xlink:href="#DejaVuSans-63" transform="translate(305.908203 0)"/>
      <use xlink:href="#DejaVuSans-75" transform="translate(360.888672 0)"/>
      <use xlink:href="#DejaVuSans-73" transform="translate(424.267578 0)"/>
      <use xlink:href="#DejaVuSans-70" transform="translate(476.367188 0)"/>
      <use xlink:href="#DejaVuSans-73" transform="translate(539.84375 0)"/>
      <use xlink:href="#DejaVuSans-20" transform="translate(591.943359 0)"/>
      <use xlink:href="#DejaVuSans-6d" transform="translate(623.730469 0)"/>
      <use xlink:href="#DejaVuSans-6f" transform="translate(721.142578 0)"/>
      <use xlink:href="#DejaVuSans-64" transform="translate(782.324219 0)"/>
      <use xlink:href="#DejaVuSans-65" transform="translate(845.800781 0)"/>
      <use xlink:href="#DejaVuSans-6c" transform="translate(907.324219 0)"/>
     </g>
    </g>
    <g id="line2d_17">
     <path d="M 387.889062 97.136563 
L 397.889062 97.136563 
L 407.889062 97.136563 
" style="fill: none; stroke: #333333; stroke-width: 1.5; stroke-linecap: square"/>
    </g>
    <g id="text_18">
     <!-- My cusps model -->
     <g transform="translate(415.889062 100.636563) scale(0.1 -0.1)">
      <defs>
       <path id="DejaVuSans-4d" d="M 628 4666 
L 1569 4666 
L 2759 1491 
L 3956 4666 
L 4897 4666 
L 4897 0 
L 4281 0 
L 4281 4097 
L 3078 897 
L 2444 897 
L 1241 4097 
L 1241 0 
L 628 0 
L 628 4666 
z
" transform="scale(0.015625)"/>
       <path id="DejaVuSans-79" d="M 2059 -325 
Q 1816 -950 1584 -1140 
Q 1353 -1331 966 -1331 
L 506 -1331 
L 506 -850 
L 844 -850 
Q 1081 -850 1212 -737 
Q 1344 -625 1503 -206 
L 1606 56 
L 191 3500 
L 800 3500 
L 1894 763 
L 2988 3500 
L 3597 3500 
L 2059 -325 
z
" transform="scale(0.015625)"/>
      </defs>
      <use xlink:href="#DejaVuSans-4d"/>
      <use xlink:href="#DejaVuSans-79" transform="translate(86.279297 0)"/>
      <use xlink:href="#DejaVuSans-20" transform="translate(145.458984 0)"/>
      <use xlink:href="#DejaVuSans-63" transform="translate(177.246094 0)"/>
      <use xlink:href="#DejaVuSans-75" transform="translate(232.226562 0)"/>
      <use xlink:href="#DejaVuSans-73" transform="translate(295.605469 0)"/>
      <use xlink:href="#DejaVuSans-70" transform="translate(347.705078 0)"/>
      <use xlink:href="#DejaVuSans-73" transform="translate(411.181641 0)"/>
      <use xlink:href="#DejaVuSans-20" transform="translate(463.28125 0)"/>
      <use xlink:href="#DejaVuSans-6d" transform="translate(495.068359 0)"/>
      <use xlink:href="#DejaVuSans-6f" transform="translate(592.480469 0)"/>
      <use xlink:href="#DejaVuSans-64" transform="translate(653.662109 0)"/>
      <use xlink:href="#DejaVuSans-65" transform="translate(717.138672 0)"/>
      <use xlink:href="#DejaVuSans-6c" transform="translate(778.662109 0)"/>
     </g>
    </g>
    <g id="PathCollection_2">
     <g>
      <use xlink:href="#m2b668b1160" x="397.889062" y="112.689687" style="fill: #333333; stroke: #333333; stroke-width: 1.5"/>
     </g>
    </g>
    <g id="text_19">
     <!-- Earth -->
     <g transform="translate(415.889062 115.314687) scale(0.1 -0.1)">
      <defs>
       <path id="DejaVuSans-45" d="M 628 4666 
L 3578 4666 
L 3578 4134 
L 1259 4134 
L 1259 2753 
L 3481 2753 
L 3481 2222 
L 1259 2222 
L 1259 531 
L 3634 531 
L 3634 0 
L 628 0 
L 628 4666 
z
" transform="scale(0.015625)"/>
       <path id="DejaVuSans-72" d="M 2631 2963 
Q 2534 3019 2420 3045 
Q 2306 3072 2169 3072 
Q 1681 3072 1420 2755 
Q 1159 2438 1159 1844 
L 1159 0 
L 581 0 
L 581 3500 
L 1159 3500 
L 1159 2956 
Q 1341 3275 1631 3429 
Q 1922 3584 2338 3584 
Q 2397 3584 2469 3576 
Q 2541 3569 2628 3553 
L 2631 2963 
z
" transform="scale(0.015625)"/>
       <path id="DejaVuSans-74" d="M 1172 4494 
L 1172 3500 
L 2356 3500 
L 2356 3053 
L 1172 3053 
L 1172 1153 
Q 1172 725 1289 603 
Q 1406 481 1766 481 
L 2356 481 
L 2356 0 
L 1766 0 
Q 1100 0 847 248 
Q 594 497 594 1153 
L 594 3053 
L 172 3053 
L 172 3500 
L 594 3500 
L 594 4494 
L 1172 4494 
z
" transform="scale(0.015625)"/>
       <path id="DejaVuSans-68" d="M 3513 2113 
L 3513 0 
L 2938 0 
L 2938 2094 
Q 2938 2591 2744 2837 
Q 2550 3084 2163 3084 
Q 1697 3084 1428 2787 
Q 1159 2491 1159 1978 
L 1159 0 
L 581 0 
L 581 4863 
L 1159 4863 
L 1159 2956 
Q 1366 3272 1645 3428 
Q 1925 3584 2291 3584 
Q 2894 3584 3203 3211 
Q 3513 2838 3513 2113 
z
" transform="scale(0.015625)"/>
      </defs>
      <use xlink:href="#DejaVuSans-45"/>
      <use xlink:href="#DejaVuSans-61" transform="translate(63.183594 0)"/>
      <use xlink:href="#DejaVuSans-72" transform="translate(124.462891 0)"/>
      <use xlink:href="#DejaVuSans-74" transform="translate(165.576172 0)"/>
      <use xlink:href="#DejaVuSans-68" transform="translate(204.785156 0)"/>
     </g>
    </g>
   </g>
  </g>
 </g>
 <defs>
  <clipPath id="p4a9d3ad859">
   <rect x="72" y="69.36" width="446.4" height="297.6"/>
  </clipPath>
 </defs>
</svg>
