<?xml version="1.0" encoding="utf-8" standalone="no"?>
<!DOCTYPE svg PUBLIC "-//W3C//DTD SVG 1.1//EN"
  "http://www.w3.org/Graphics/SVG/1.1/DTD/svg11.dtd">
<svg xmlns:xlink="http://www.w3.org/1999/xlink" width="576pt" height="432pt" viewBox="0 0 576 432" xmlns="http://www.w3.org/2000/svg" version="1.1">
 <metadata>
  <rdf:RDF xmlns:dc="http://purl.org/dc/elements/1.1/" xmlns:cc="http://creativecommons.org/ns#" xmlns:rdf="http://www.w3.org/1999/02/22-rdf-syntax-ns#">
   <cc:Work>
    <dc:type rdf:resource="http://purl.org/dc/dcmitype/StillImage"/>
    <dc:date>2025-06-26T10:31:21.698277</dc:date>
    <dc:format>image/svg+xml</dc:format>
    <dc:creator>
     <cc:Agent>
      <dc:title>Matplotlib v3.10.3, https://matplotlib.org/</dc:title>
     </cc:Agent>
    </dc:creator>
   </cc:Work>
  </rdf:RDF>
 </metadata>
 <defs>
  <style type="text/css">*{stroke-linejoin: round; stroke-linecap: butt}</style>
 </defs>
 <g id="figure_1">
  <g id="patch_1">
   <path d="M 0 432 
L 576 432 
L 576 0 
L 0 0 
z
" style="fill: #ffffff"/>
  </g>
  <g id="axes_1">
   <g id="patch_2">
    <path d="M 72 366.96 
L 518.4 366.96 
L 518.4 69.36 
L 72 69.36 
z
" style="fill: #ffffff"/>
   </g>
   <g id="PathCollection_1">
    <defs>
     <path id="m9ec8043af0" d="M -3 3 
L 3 -3 
M -3 -3 
L 3 3 
" style="stroke: #333333; stroke-width: 1.5"/>
    </defs>
    <g clip-path="url(#p947cbbeee4)">
     <use xlink:href="#m9ec8043af0" x="295.2" y="247.92" style="fill: #333333; stroke: #333333; stroke-width: 1.5"/>
    </g>
   </g>
   <g id="matplotlib.axis_1">
    <g id="xtick_1">
     <g id="line2d_1">
      <defs>
       <path id="mf75db5d824" d="M 0 0 
L 0 3.5 
" style="stroke: #000000; stroke-width: 0.8"/>
      </defs>
      <g>
       <use xlink:href="#mf75db5d824" x="72" y="366.96" style="stroke: #000000; stroke-width: 0.8"/>
      </g>
     </g>
     <g id="text_1">
      <!-- −15 -->
      <g transform="translate(61.447656 381.558438) scale(0.1 -0.1)">
       <defs>
        <path id="DejaVuSans-2212" d="M 678 2272 
L 4684 2272 
L 4684 1741 
L 678 1741 
L 678 2272 
z
" transform="scale(0.015625)"/>
        <path id="DejaVuSans-31" d="M 794 531 
L 1825 531 
L 1825 4091 
L 703 3866 
L 703 4441 
L 1819 4666 
L 2450 4666 
L 2450 531 
L 3481 531 
L 3481 0 
L 794 0 
L 794 531 
z
" transform="scale(0.015625)"/>
        <path id="DejaVuSans-35" d="M 691 4666 
L 3169 4666 
L 3169 4134 
L 1269 4134 
L 1269 2991 
Q 1406 3038 1543 3061 
Q 1681 3084 1819 3084 
Q 2600 3084 3056 2656 
Q 3513 2228 3513 1497 
Q 3513 744 3044 326 
Q 2575 -91 1722 -91 
Q 1428 -91 1123 -41 
Q 819 9 494 109 
L 494 744 
Q 775 591 1075 516 
Q 1375 441 1709 441 
Q 2250 441 2565 725 
Q 2881 1009 2881 1497 
Q 2881 1984 2565 2268 
Q 2250 2553 1709 2553 
Q 1456 2553 1204 2497 
Q 953 2441 691 2322 
L 691 4666 
z
" transform="scale(0.015625)"/>
       </defs>
       <use xlink:href="#DejaVuSans-2212"/>
       <use xlink:href="#DejaVuSans-31" transform="translate(83.789062 0)"/>
       <use xlink:href="#DejaVuSans-35" transform="translate(147.412109 0)"/>
      </g>
     </g>
    </g>
    <g id="xtick_2">
     <g id="line2d_2">
      <g>
       <use xlink:href="#mf75db5d824" x="146.4" y="366.96" style="stroke: #000000; stroke-width: 0.8"/>
      </g>
     </g>
     <g id="text_2">
      <!-- −10 -->
      <g transform="translate(135.847656 381.558438) scale(0.1 -0.1)">
       <defs>
        <path id="DejaVuSans-30" d="M 2034 4250 
Q 1547 4250 1301 3770 
Q 1056 3291 1056 2328 
Q 1056 1369 1301 889 
Q 1547 409 2034 409 
Q 2525 409 2770 889 
Q 3016 1369 3016 2328 
Q 3016 3291 2770 3770 
Q 2525 4250 2034 4250 
z
M 2034 4750 
Q 2819 4750 3233 4129 
Q 3647 3509 3647 2328 
Q 3647 1150 3233 529 
Q 2819 -91 2034 -91 
Q 1250 -91 836 529 
Q 422 1150 422 2328 
Q 422 3509 836 4129 
Q 1250 4750 2034 4750 
z
" transform="scale(0.015625)"/>
       </defs>
       <use xlink:href="#DejaVuSans-2212"/>
       <use xlink:href="#DejaVuSans-31" transform="translate(83.789062 0)"/>
       <use xlink:href="#DejaVuSans-30" transform="translate(147.412109 0)"/>
      </g>
     </g>
    </g>
    <g id="xtick_3">
     <g id="line2d_3">
      <g>
       <use xlink:href="#mf75db5d824" x="220.8" y="366.96" style="stroke: #000000; stroke-width: 0.8"/>
      </g>
     </g>
     <g id="text_3">
      <!-- −5 -->
      <g transform="translate(213.428906 381.558438) scale(0.1 -0.1)">
       <use xlink:href="#DejaVuSans-2212"/>
       <use xlink:href="#DejaVuSans-35" transform="translate(83.789062 0)"/>
      </g>
     </g>
    </g>
    <g id="xtick_4">
     <g id="line2d_4">
      <g>
       <use xlink:href="#mf75db5d824" x="295.2" y="366.96" style="stroke: #000000; stroke-width: 0.8"/>
      </g>
     </g>
     <g id="text_4">
      <!-- 0 -->
      <g transform="translate(292.01875 381.558438) scale(0.1 -0.1)">
       <use xlink:href="#DejaVuSans-30"/>
      </g>
     </g>
    </g>
    <g id="xtick_5">
     <g id="line2d_5">
      <g>
       <use xlink:href="#mf75db5d824" x="369.6" y="366.96" style="stroke: #000000; stroke-width: 0.8"/>
      </g>
     </g>
     <g id="text_5">
      <!-- 5 -->
      <g transform="translate(366.41875 381.558438) scale(0.1 -0.1)">
       <use xlink:href="#DejaVuSans-35"/>
      </g>
     </g>
    </g>
    <g id="xtick_6">
     <g id="line2d_6">
      <g>
       <use xlink:href="#mf75db5d824" x="444" y="366.96" style="stroke: #000000; stroke-width: 0.8"/>
      </g>
     </g>
     <g id="text_6">
      <!-- 10 -->
      <g transform="translate(437.6375 381.558438) scale(0.1 -0.1)">
       <use xlink:href="#DejaVuSans-31"/>
       <use xlink:href="#DejaVuSans-30" transform="translate(63.623047 0)"/>
      </g>
     </g>
    </g>
    <g id="xtick_7">
     <g id="line2d_7">
      <g>
       <use xlink:href="#mf75db5d824" x="518.4" y="366.96" style="stroke: #000000; stroke-width: 0.8"/>
      </g>
     </g>
     <g id="text_7">
      <!-- 15 -->
      <g transform="translate(512.0375 381.558438) scale(0.1 -0.1)">
       <use xlink:href="#DejaVuSans-31"/>
       <use xlink:href="#DejaVuSans-35" transform="translate(63.623047 0)"/>
      </g>
     </g>
    </g>
    <g id="text_8">
     <!-- [$R_E$] -->
     <g transform="translate(285.45 395.236563) scale(0.1 -0.1)">
      <defs>
       <path id="DejaVuSans-5b" d="M 550 4863 
L 1875 4863 
L 1875 4416 
L 1125 4416 
L 1125 -397 
L 1875 -397 
L 1875 -844 
L 550 -844 
L 550 4863 
z
" transform="scale(0.015625)"/>
       <path id="DejaVuSans-Oblique-52" d="M 1613 4147 
L 1294 2491 
L 2106 2491 
Q 2584 2491 2879 2755 
Q 3175 3019 3175 3444 
Q 3175 3784 2976 3965 
Q 2778 4147 2406 4147 
L 1613 4147 
z
M 2772 2241 
Q 2972 2194 3105 2009 
Q 3238 1825 3413 1275 
L 3809 0 
L 3144 0 
L 2778 1197 
Q 2638 1659 2453 1815 
Q 2269 1972 1888 1972 
L 1191 1972 
L 806 0 
L 172 0 
L 1081 4666 
L 2503 4666 
Q 3150 4666 3495 4373 
Q 3841 4081 3841 3531 
Q 3841 3044 3547 2687 
Q 3253 2331 2772 2241 
z
" transform="scale(0.015625)"/>
       <path id="DejaVuSans-Oblique-45" d="M 1081 4666 
L 4031 4666 
L 3928 4134 
L 1606 4134 
L 1338 2753 
L 3566 2753 
L 3463 2222 
L 1234 2222 
L 909 531 
L 3284 531 
L 3181 0 
L 172 0 
L 1081 4666 
z
" transform="scale(0.015625)"/>
       <path id="DejaVuSans-5d" d="M 1947 4863 
L 1947 -844 
L 622 -844 
L 622 -397 
L 1369 -397 
L 1369 4416 
L 622 4416 
L 622 4863 
L 1947 4863 
z
" transform="scale(0.015625)"/>
      </defs>
      <use xlink:href="#DejaVuSans-5b" transform="translate(0 0.015625)"/>
      <use xlink:href="#DejaVuSans-Oblique-52" transform="translate(39.013672 0.015625)"/>
      <use xlink:href="#DejaVuSans-Oblique-45" transform="translate(108.496094 -16.390625) scale(0.7)"/>
      <use xlink:href="#DejaVuSans-5d" transform="translate(155.458984 0.015625)"/>
     </g>
    </g>
   </g>
   <g id="matplotlib.axis_2">
    <g id="ytick_1">
     <g id="line2d_8">
      <defs>
       <path id="mc4380c3168" d="M 0 0 
L -3.5 0 
" style="stroke: #000000; stroke-width: 0.8"/>
      </defs>
      <g>
       <use xlink:href="#mc4380c3168" x="72" y="366.96" style="stroke: #000000; stroke-width: 0.8"/>
      </g>
     </g>
     <g id="text_9">
      <!-- −10 -->
      <g transform="translate(43.895313 370.759219) scale(0.1 -0.1)">
       <use xlink:href="#DejaVuSans-2212"/>
       <use xlink:href="#DejaVuSans-31" transform="translate(83.789062 0)"/>
       <use xlink:href="#DejaVuSans-30" transform="translate(147.412109 0)"/>
      </g>
     </g>
    </g>
    <g id="ytick_2">
     <g id="line2d_9">
      <g>
       <use xlink:href="#mc4380c3168" x="72" y="307.44" style="stroke: #000000; stroke-width: 0.8"/>
      </g>
     </g>
     <g id="text_10">
      <!-- −5 -->
      <g transform="translate(50.257812 311.239219) scale(0.1 -0.1)">
       <use xlink:href="#DejaVuSans-2212"/>
       <use xlink:href="#DejaVuSans-35" transform="translate(83.789062 0)"/>
      </g>
     </g>
    </g>
    <g id="ytick_3">
     <g id="line2d_10">
      <g>
       <use xlink:href="#mc4380c3168" x="72" y="247.92" style="stroke: #000000; stroke-width: 0.8"/>
      </g>
     </g>
     <g id="text_11">
      <!-- 0 -->
      <g transform="translate(58.6375 251.719219) scale(0.1 -0.1)">
       <use xlink:href="#DejaVuSans-30"/>
      </g>
     </g>
    </g>
    <g id="ytick_4">
     <g id="line2d_11">
      <g>
       <use xlink:href="#mc4380c3168" x="72" y="188.4" style="stroke: #000000; stroke-width: 0.8"/>
      </g>
     </g>
     <g id="text_12">
      <!-- 5 -->
      <g transform="translate(58.6375 192.199219) scale(0.1 -0.1)">
       <use xlink:href="#DejaVuSans-35"/>
      </g>
     </g>
    </g>
    <g id="ytick_5">
     <g id="line2d_12">
      <g>
       <use xlink:href="#mc4380c3168" x="72" y="128.88" style="stroke: #000000; stroke-width: 0.8"/>
      </g>
     </g>
     <g id="text_13">
      <!-- 10 -->
      <g transform="translate(52.275 132.679219) scale(0.1 -0.1)">
       <use xlink:href="#DejaVuSans-31"/>
       <use xlink:href="#DejaVuSans-30" transform="translate(63.623047 0)"/>
      </g>
     </g>
    </g>
    <g id="ytick_6">
     <g id="line2d_13">
      <g>
       <use xlink:href="#mc4380c3168" x="72" y="69.36" style="stroke: #000000; stroke-width: 0.8"/>
      </g>
     </g>
     <g id="text_14">
      <!-- 15 -->
      <g transform="translate(52.275 73.159219) scale(0.1 -0.1)">
       <use xlink:href="#DejaVuSans-31"/>
       <use xlink:href="#DejaVuSans-35" transform="translate(63.623047 0)"/>
      </g>
     </g>
    </g>
    <g id="text_15">
     <!-- $x$ [$R_E$] -->
     <g transform="translate(37.815625 232.46) rotate(-90) scale(0.1 -0.1)">
      <defs>
       <path id="DejaVuSans-Oblique-78" d="M 3841 3500 
L 2234 1784 
L 3219 0 
L 2559 0 
L 1819 1388 
L 531 0 
L -166 0 
L 1556 1844 
L 641 3500 
L 1300 3500 
L 1972 2234 
L 3144 3500 
L 3841 3500 
z
" transform="scale(0.015625)"/>
       <path id="DejaVuSans-20" transform="scale(0.015625)"/>
      </defs>
      <use xlink:href="#DejaVuSans-Oblique-78" transform="translate(0 0.015625)"/>
      <use xlink:href="#DejaVuSans-20" transform="translate(59.179688 0.015625)"/>
      <use xlink:href="#DejaVuSans-5b" transform="translate(90.966797 0.015625)"/>
      <use xlink:href="#DejaVuSans-Oblique-52" transform="translate(129.980469 0.015625)"/>
      <use xlink:href="#DejaVuSans-Oblique-45" transform="translate(199.462891 -16.390625) scale(0.7)"/>
      <use xlink:href="#DejaVuSans-5d" transform="translate(246.425781 0.015625)"/>
     </g>
    </g>
   </g>
   <g id="line2d_14">
    <path d="M -1 323.144735 
L 4.791231 315.417237 
L 12.131297 306.063752 
L 19.380984 297.242284 
L 26.546151 288.91877 
L 33.632006 281.06264 
L 40.643163 273.646406 
L 47.58368 266.645307 
L 54.457108 260.037007 
L 61.266514 253.801325 
L 68.014521 247.92 
L 74.703329 242.37649 
L 81.334739 237.155791 
L 87.910175 232.244274 
L 94.430703 227.629552 
L 100.897045 223.300348 
L 107.309593 219.24639 
L 113.668422 215.458308 
L 119.973303 211.927545 
L 126.223709 208.64628 
L 132.418828 205.607353 
L 138.557566 202.804203 
L 144.638556 200.230806 
L 150.660165 197.881622 
L 154.485426 194.947798 
L 161.355906 189.054869 
L 168.293174 183.489983 
L 175.31423 178.238312 
L 182.432958 173.288792 
L 189.66047 168.633428 
L 197.005426 164.26672 
L 204.474321 160.185194 
L 212.07175 156.387023 
L 219.800654 152.871713 
L 227.662539 149.639852 
L 235.657683 146.692909 
L 243.785322 144.033078 
L 252.043822 141.663153 
L 260.430837 139.586441 
L 268.943455 137.806695 
L 277.578327 136.328078 
L 286.331796 135.155141 
L 295.2 134.292831 
L 295.2 143.089568 
L 303.384743 143.845786 
L 311.475577 144.852436 
L 319.477992 146.104246 
L 327.398197 147.59704 
L 335.243179 149.327815 
L 343.020766 151.294827 
L 350.739697 153.49771 
L 358.409683 155.937611 
L 366.041475 158.617358 
L 373.646932 161.541649 
L 381.239091 164.717284 
L 388.832241 168.153432 
L 396.442005 171.861944 
L 404.085419 175.857718 
L 411.781029 180.15914 
L 419.548991 184.788585 
L 427.411183 189.77303 
L 439.638015 197.916872 
L 445.02628 200.463663 
L 450.48873 203.194094 
L 456.025503 206.115701 
L 461.636848 209.236501 
L 467.323135 212.565032 
L 473.084868 216.110417 
L 478.922697 219.882417 
L 484.83743 223.891505 
L 490.830054 228.148942 
L 496.901744 232.666857 
L 503.053885 237.458354 
L 509.288091 242.537609 
L 515.606226 247.92 
L 522.010425 253.622244 
L 528.503122 259.662551 
L 535.08708 266.060804 
L 541.765419 272.838765 
L 548.541651 280.0203 
L 555.419723 287.631654 
L 562.404057 295.701747 
L 569.499604 304.262534 
L 577 313.728528 
L 577 313.728528 
" clip-path="url(#p947cbbeee4)" style="fill: none; stroke: #333333; stroke-width: 1.5; stroke-linecap: square"/>
   </g>
   <g id="line2d_15">
    <path d="M -1 341.057136 
L 4.279897 331.710145 
L 9.986774 322.057116 
L 15.655551 312.892136 
L 21.289878 304.182533 
L 26.893007 295.898975 
L 32.467823 288.015075 
L 38.016873 280.507044 
L 43.542396 273.353399 
L 49.046341 266.534697 
L 54.53039 260.033319 
L 59.995973 253.833267 
L 65.444288 247.92 
L 70.876309 242.280275 
L 76.292802 236.902021 
L 81.694334 231.774218 
L 87.081284 226.886794 
L 92.45385 222.230532 
L 97.812056 217.796989 
L 103.155761 213.578421 
L 108.484661 209.567719 
L 113.798298 205.758347 
L 119.096063 202.14429 
L 124.377201 198.720007 
L 129.640812 195.480384 
L 134.885856 192.4207 
L 151.00685 179.699527 
L 159.07779 173.913153 
L 167.231923 168.510228 
L 175.473351 163.477408 
L 183.804804 158.803843 
L 192.227803 154.480775 
L 200.742801 150.50121 
L 209.349317 146.859645 
L 218.046056 143.551845 
L 226.83102 140.574658 
L 235.701612 137.925871 
L 244.654729 135.604088 
L 253.686848 133.608635 
L 262.794107 131.939495 
L 271.972377 130.597246 
L 281.217329 129.583037 
L 290.524501 128.89856 
L 295.2 128.680649 
L 295.2 133.079018 
L 304.194849 133.544777 
L 313.140158 134.311223 
L 322.036092 135.376225 
L 330.88318 136.738553 
L 339.682353 138.397917 
L 348.434977 140.355036 
L 357.142894 142.61172 
L 365.808451 145.170963 
L 374.434546 148.037067 
L 383.024658 151.215783 
L 391.582894 154.714476 
L 400.114025 158.542329 
L 408.623535 162.710569 
L 417.117664 167.23275 
L 425.603462 172.125071 
L 434.088847 177.406766 
L 442.582664 183.100556 
L 451.094759 189.233196 
L 455.463234 192.438325 
L 460.391606 195.596813 
L 465.345947 198.914952 
L 470.326102 202.398464 
L 475.331981 206.053457 
L 480.363558 209.886463 
L 485.420885 213.904476 
L 490.504088 218.115002 
L 495.613387 222.52611 
L 500.749094 227.146489 
L 505.911625 231.98551 
L 511.10151 237.053303 
L 516.319401 242.360834 
L 521.566085 247.92 
L 526.842496 253.743727 
L 532.149725 259.84609 
L 537.489039 266.242446 
L 542.861895 272.949579 
L 548.269955 279.985875 
L 553.715114 287.371516 
L 559.199514 295.128706 
L 564.725572 303.281924 
L 570.296011 311.858223 
L 577 322.710754 
L 577 322.710754 
" clip-path="url(#p947cbbeee4)" style="fill: none; stroke-dasharray: 5.55,2.4; stroke-dashoffset: 0; stroke: #333333; stroke-width: 1.5"/>
   </g>
   <g id="line2d_16">
    <path d="M -1 373.113234 
L 0.857573 367.899966 
L 4.864294 357.21729 
L 8.877386 347.042287 
L 12.89886 337.336743 
L 16.930501 328.066547 
L 20.973897 319.20117 
L 25.030458 310.713206 
L 29.101429 302.578 
L 33.187913 294.773312 
L 37.290876 287.279037 
L 41.411167 280.076962 
L 45.549522 273.150552 
L 49.706579 266.484768 
L 53.882884 260.065909 
L 58.078895 253.881465 
L 62.294997 247.92 
L 66.531501 242.171042 
L 70.788652 236.624988 
L 75.066634 231.273016 
L 79.365576 226.107017 
L 83.685552 221.119522 
L 88.026588 216.303646 
L 92.388666 211.653037 
L 96.771725 207.161823 
L 101.175663 202.824575 
L 105.600344 198.63627 
L 110.045594 194.59225 
L 114.511211 190.688198 
L 118.996958 186.920108 
L 123.502574 183.284259 
L 132.572227 176.3957 
L 141.717561 169.997666 
L 150.935612 164.068629 
L 160.223101 158.589919 
L 169.576473 153.545325 
L 178.991922 148.920773 
L 188.465422 144.704047 
L 197.992756 140.884566 
L 207.569531 137.453181 
L 217.191206 134.402025 
L 226.853105 131.724365 
L 236.550441 129.414498 
L 246.278325 127.467654 
L 256.03179 125.879914 
L 265.805798 124.648157 
L 275.595259 123.769999 
L 285.395045 123.243768 
L 295.2 123.068467 
L 295.2 123.068467 
L 305.004955 123.243768 
L 314.804741 123.769999 
L 324.594202 124.648157 
L 334.36821 125.879914 
L 344.121675 127.467654 
L 353.849559 129.414498 
L 363.546895 131.724365 
L 373.208794 134.402025 
L 382.830469 137.453181 
L 392.407244 140.884566 
L 401.934578 144.704047 
L 411.408078 148.920773 
L 420.823527 153.545325 
L 430.176899 158.589919 
L 439.464388 164.068629 
L 448.682439 169.997666 
L 457.827773 176.3957 
L 462.372231 179.777195 
L 466.897426 183.284259 
L 471.403042 186.920108 
L 475.888789 190.688198 
L 480.354406 194.59225 
L 484.799656 198.63627 
L 489.224337 202.824575 
L 493.628275 207.161823 
L 498.011334 211.653037 
L 502.373412 216.303646 
L 506.714448 221.119522 
L 511.034424 226.107017 
L 515.333366 231.273016 
L 519.611348 236.624988 
L 523.868499 242.171042 
L 528.105003 247.92 
L 532.321105 253.881465 
L 536.517116 260.065909 
L 540.693421 266.484768 
L 544.850478 273.150552 
L 548.988833 280.076962 
L 553.109124 287.279037 
L 557.212087 294.773312 
L 561.298571 302.578 
L 565.369542 310.713206 
L 569.426103 319.20117 
L 573.469499 328.066547 
L 577 336.18444 
L 577 336.18444 
" clip-path="url(#p947cbbeee4)" style="fill: none; stroke-dasharray: 9.6,2.4,1.5,2.4; stroke-dashoffset: 0; stroke: #333333; stroke-width: 1.5"/>
   </g>
   <g id="line2d_17">
    <path d="M 295.2 366.96 
L 295.2 69.36 
" clip-path="url(#p947cbbeee4)" style="fill: none; stroke-dasharray: 5.55,2.4; stroke-dashoffset: 0; stroke: #808080; stroke-opacity: 0.2; stroke-width: 1.5"/>
   </g>
   <g id="patch_3">
    <path d="M 72 366.96 
L 72 69.36 
" style="fill: none; stroke: #000000; stroke-width: 0.8; stroke-linejoin: miter; stroke-linecap: square"/>
   </g>
   <g id="patch_4">
    <path d="M 518.4 366.96 
L 518.4 69.36 
" style="fill: none; stroke: #000000; stroke-width: 0.8; stroke-linejoin: miter; stroke-linecap: square"/>
   </g>
   <g id="patch_5">
    <path d="M 72 366.96 
L 518.4 366.96 
" style="fill: none; stroke: #000000; stroke-width: 0.8; stroke-linejoin: miter; stroke-linecap: square"/>
   </g>
   <g id="patch_6">
    <path d="M 72 69.36 
L 518.4 69.36 
" style="fill: none; stroke: #000000; stroke-width: 0.8; stroke-linejoin: miter; stroke-linecap: square"/>
   </g>
   <g id="text_16">
    <!-- Liu12 cusps model in different planes containing the $\hat x$-axis rotated by $\phi$ -->
    <g transform="translate(78.3 25.73025) scale(0.12 -0.12)">
     <defs>
      <path id="DejaVuSans-4c" d="M 628 4666 
L 1259 4666 
L 1259 531 
L 3531 531 
L 3531 0 
L 628 0 
L 628 4666 
z
" transform="scale(0.015625)"/>
      <path id="DejaVuSans-69" d="M 603 3500 
L 1178 3500 
L 1178 0 
L 603 0 
L 603 3500 
z
M 603 4863 
L 1178 4863 
L 1178 4134 
L 603 4134 
L 603 4863 
z
" transform="scale(0.015625)"/>
      <path id="DejaVuSans-75" d="M 544 1381 
L 544 3500 
L 1119 3500 
L 1119 1403 
Q 1119 906 1312 657 
Q 1506 409 1894 409 
Q 2359 409 2629 706 
Q 2900 1003 2900 1516 
L 2900 3500 
L 3475 3500 
L 3475 0 
L 2900 0 
L 2900 538 
Q 2691 219 2414 64 
Q 2138 -91 1772 -91 
Q 1169 -91 856 284 
Q 544 659 544 1381 
z
M 1991 3584 
L 1991 3584 
z
" transform="scale(0.015625)"/>
      <path id="DejaVuSans-32" d="M 1228 531 
L 3431 531 
L 3431 0 
L 469 0 
L 469 531 
Q 828 903 1448 1529 
Q 2069 2156 2228 2338 
Q 2531 2678 2651 2914 
Q 2772 3150 2772 3378 
Q 2772 3750 2511 3984 
Q 2250 4219 1831 4219 
Q 1534 4219 1204 4116 
Q 875 4013 500 3803 
L 500 4441 
Q 881 4594 1212 4672 
Q 1544 4750 1819 4750 
Q 2544 4750 2975 4387 
Q 3406 4025 3406 3419 
Q 3406 3131 3298 2873 
Q 3191 2616 2906 2266 
Q 2828 2175 2409 1742 
Q 1991 1309 1228 531 
z
" transform="scale(0.015625)"/>
      <path id="DejaVuSans-63" d="M 3122 3366 
L 3122 2828 
Q 2878 2963 2633 3030 
Q 2388 3097 2138 3097 
Q 1578 3097 1268 2742 
Q 959 2388 959 1747 
Q 959 1106 1268 751 
Q 1578 397 2138 397 
Q 2388 397 2633 464 
Q 2878 531 3122 666 
L 3122 134 
Q 2881 22 2623 -34 
Q 2366 -91 2075 -91 
Q 1284 -91 818 406 
Q 353 903 353 1747 
Q 353 2603 823 3093 
Q 1294 3584 2113 3584 
Q 2378 3584 2631 3529 
Q 2884 3475 3122 3366 
z
" transform="scale(0.015625)"/>
      <path id="DejaVuSans-73" d="M 2834 3397 
L 2834 2853 
Q 2591 2978 2328 3040 
Q 2066 3103 1784 3103 
Q 1356 3103 1142 2972 
Q 928 2841 928 2578 
Q 928 2378 1081 2264 
Q 1234 2150 1697 2047 
L 1894 2003 
Q 2506 1872 2764 1633 
Q 3022 1394 3022 966 
Q 3022 478 2636 193 
Q 2250 -91 1575 -91 
Q 1294 -91 989 -36 
Q 684 19 347 128 
L 347 722 
Q 666 556 975 473 
Q 1284 391 1588 391 
Q 1994 391 2212 530 
Q 2431 669 2431 922 
Q 2431 1156 2273 1281 
Q 2116 1406 1581 1522 
L 1381 1569 
Q 847 1681 609 1914 
Q 372 2147 372 2553 
Q 372 3047 722 3315 
Q 1072 3584 1716 3584 
Q 2034 3584 2315 3537 
Q 2597 3491 2834 3397 
z
" transform="scale(0.015625)"/>
      <path id="DejaVuSans-70" d="M 1159 525 
L 1159 -1331 
L 581 -1331 
L 581 3500 
L 1159 3500 
L 1159 2969 
Q 1341 3281 1617 3432 
Q 1894 3584 2278 3584 
Q 2916 3584 3314 3078 
Q 3713 2572 3713 1747 
Q 3713 922 3314 415 
Q 2916 -91 2278 -91 
Q 1894 -91 1617 61 
Q 1341 213 1159 525 
z
M 3116 1747 
Q 3116 2381 2855 2742 
Q 2594 3103 2138 3103 
Q 1681 3103 1420 2742 
Q 1159 2381 1159 1747 
Q 1159 1113 1420 752 
Q 1681 391 2138 391 
Q 2594 391 2855 752 
Q 3116 1113 3116 1747 
z
" transform="scale(0.015625)"/>
      <path id="DejaVuSans-6d" d="M 3328 2828 
Q 3544 3216 3844 3400 
Q 4144 3584 4550 3584 
Q 5097 3584 5394 3201 
Q 5691 2819 5691 2113 
L 5691 0 
L 5113 0 
L 5113 2094 
Q 5113 2597 4934 2840 
Q 4756 3084 4391 3084 
Q 3944 3084 3684 2787 
Q 3425 2491 3425 1978 
L 3425 0 
L 2847 0 
L 2847 2094 
Q 2847 2600 2669 2842 
Q 2491 3084 2119 3084 
Q 1678 3084 1418 2786 
Q 1159 2488 1159 1978 
L 1159 0 
L 581 0 
L 581 3500 
L 1159 3500 
L 1159 2956 
Q 1356 3278 1631 3431 
Q 1906 3584 2284 3584 
Q 2666 3584 2933 3390 
Q 3200 3197 3328 2828 
z
" transform="scale(0.015625)"/>
      <path id="DejaVuSans-6f" d="M 1959 3097 
Q 1497 3097 1228 2736 
Q 959 2375 959 1747 
Q 959 1119 1226 758 
Q 1494 397 1959 397 
Q 2419 397 2687 759 
Q 2956 1122 2956 1747 
Q 2956 2369 2687 2733 
Q 2419 3097 1959 3097 
z
M 1959 3584 
Q 2709 3584 3137 3096 
Q 3566 2609 3566 1747 
Q 3566 888 3137 398 
Q 2709 -91 1959 -91 
Q 1206 -91 779 398 
Q 353 888 353 1747 
Q 353 2609 779 3096 
Q 1206 3584 1959 3584 
z
" transform="scale(0.015625)"/>
      <path id="DejaVuSans-64" d="M 2906 2969 
L 2906 4863 
L 3481 4863 
L 3481 0 
L 2906 0 
L 2906 525 
Q 2725 213 2448 61 
Q 2172 -91 1784 -91 
Q 1150 -91 751 415 
Q 353 922 353 1747 
Q 353 2572 751 3078 
Q 1150 3584 1784 3584 
Q 2172 3584 2448 3432 
Q 2725 3281 2906 2969 
z
M 947 1747 
Q 947 1113 1208 752 
Q 1469 391 1925 391 
Q 2381 391 2643 752 
Q 2906 1113 2906 1747 
Q 2906 2381 2643 2742 
Q 2381 3103 1925 3103 
Q 1469 3103 1208 2742 
Q 947 2381 947 1747 
z
" transform="scale(0.015625)"/>
      <path id="DejaVuSans-65" d="M 3597 1894 
L 3597 1613 
L 953 1613 
Q 991 1019 1311 708 
Q 1631 397 2203 397 
Q 2534 397 2845 478 
Q 3156 559 3463 722 
L 3463 178 
Q 3153 47 2828 -22 
Q 2503 -91 2169 -91 
Q 1331 -91 842 396 
Q 353 884 353 1716 
Q 353 2575 817 3079 
Q 1281 3584 2069 3584 
Q 2775 3584 3186 3129 
Q 3597 2675 3597 1894 
z
M 3022 2063 
Q 3016 2534 2758 2815 
Q 2500 3097 2075 3097 
Q 1594 3097 1305 2825 
Q 1016 2553 972 2059 
L 3022 2063 
z
" transform="scale(0.015625)"/>
      <path id="DejaVuSans-6c" d="M 603 4863 
L 1178 4863 
L 1178 0 
L 603 0 
L 603 4863 
z
" transform="scale(0.015625)"/>
      <path id="DejaVuSans-6e" d="M 3513 2113 
L 3513 0 
L 2938 0 
L 2938 2094 
Q 2938 2591 2744 2837 
Q 2550 3084 2163 3084 
Q 1697 3084 1428 2787 
Q 1159 2491 1159 1978 
L 1159 0 
L 581 0 
L 581 3500 
L 1159 3500 
L 1159 2956 
Q 1366 3272 1645 3428 
Q 1925 3584 2291 3584 
Q 2894 3584 3203 3211 
Q 3513 2838 3513 2113 
z
" transform="scale(0.015625)"/>
      <path id="DejaVuSans-66" d="M 2375 4863 
L 2375 4384 
L 1825 4384 
Q 1516 4384 1395 4259 
Q 1275 4134 1275 3809 
L 1275 3500 
L 2222 3500 
L 2222 3053 
L 1275 3053 
L 1275 0 
L 697 0 
L 697 3053 
L 147 3053 
L 147 3500 
L 697 3500 
L 697 3744 
Q 697 4328 969 4595 
Q 1241 4863 1831 4863 
L 2375 4863 
z
" transform="scale(0.015625)"/>
      <path id="DejaVuSans-72" d="M 2631 2963 
Q 2534 3019 2420 3045 
Q 2306 3072 2169 3072 
Q 1681 3072 1420 2755 
Q 1159 2438 1159 1844 
L 1159 0 
L 581 0 
L 581 3500 
L 1159 3500 
L 1159 2956 
Q 1341 3275 1631 3429 
Q 1922 3584 2338 3584 
Q 2397 3584 2469 3576 
Q 2541 3569 2628 3553 
L 2631 2963 
z
" transform="scale(0.015625)"/>
      <path id="DejaVuSans-74" d="M 1172 4494 
L 1172 3500 
L 2356 3500 
L 2356 3053 
L 1172 3053 
L 1172 1153 
Q 1172 725 1289 603 
Q 1406 481 1766 481 
L 2356 481 
L 2356 0 
L 1766 0 
Q 1100 0 847 248 
Q 594 497 594 1153 
L 594 3053 
L 172 3053 
L 172 3500 
L 594 3500 
L 594 4494 
L 1172 4494 
z
" transform="scale(0.015625)"/>
      <path id="DejaVuSans-61" d="M 2194 1759 
Q 1497 1759 1228 1600 
Q 959 1441 959 1056 
Q 959 750 1161 570 
Q 1363 391 1709 391 
Q 2188 391 2477 730 
Q 2766 1069 2766 1631 
L 2766 1759 
L 2194 1759 
z
M 3341 1997 
L 3341 0 
L 2766 0 
L 2766 531 
Q 2569 213 2275 61 
Q 1981 -91 1556 -91 
Q 1019 -91 701 211 
Q 384 513 384 1019 
Q 384 1609 779 1909 
Q 1175 2209 1959 2209 
L 2766 2209 
L 2766 2266 
Q 2766 2663 2505 2880 
Q 2244 3097 1772 3097 
Q 1472 3097 1187 3025 
Q 903 2953 641 2809 
L 641 3341 
Q 956 3463 1253 3523 
Q 1550 3584 1831 3584 
Q 2591 3584 2966 3190 
Q 3341 2797 3341 1997 
z
" transform="scale(0.015625)"/>
      <path id="DejaVuSans-67" d="M 2906 1791 
Q 2906 2416 2648 2759 
Q 2391 3103 1925 3103 
Q 1463 3103 1205 2759 
Q 947 2416 947 1791 
Q 947 1169 1205 825 
Q 1463 481 1925 481 
Q 2391 481 2648 825 
Q 2906 1169 2906 1791 
z
M 3481 434 
Q 3481 -459 3084 -895 
Q 2688 -1331 1869 -1331 
Q 1566 -1331 1297 -1286 
Q 1028 -1241 775 -1147 
L 775 -588 
Q 1028 -725 1275 -790 
Q 1522 -856 1778 -856 
Q 2344 -856 2625 -561 
Q 2906 -266 2906 331 
L 2906 616 
Q 2728 306 2450 153 
Q 2172 0 1784 0 
Q 1141 0 747 490 
Q 353 981 353 1791 
Q 353 2603 747 3093 
Q 1141 3584 1784 3584 
Q 2172 3584 2450 3431 
Q 2728 3278 2906 2969 
L 2906 3500 
L 3481 3500 
L 3481 434 
z
" transform="scale(0.015625)"/>
      <path id="DejaVuSans-68" d="M 3513 2113 
L 3513 0 
L 2938 0 
L 2938 2094 
Q 2938 2591 2744 2837 
Q 2550 3084 2163 3084 
Q 1697 3084 1428 2787 
Q 1159 2491 1159 1978 
L 1159 0 
L 581 0 
L 581 4863 
L 1159 4863 
L 1159 2956 
Q 1366 3272 1645 3428 
Q 1925 3584 2291 3584 
Q 2894 3584 3203 3211 
Q 3513 2838 3513 2113 
z
" transform="scale(0.015625)"/>
      <path id="DejaVuSans-302" d="M -1831 5119 
L -1369 5119 
L -603 3944 
L -1038 3944 
L -1600 4709 
L -2163 3944 
L -2597 3944 
L -1831 5119 
z
M -1600 3584 
L -1600 3584 
z
" transform="scale(0.015625)"/>
      <path id="DejaVuSans-2d" d="M 313 2009 
L 1997 2009 
L 1997 1497 
L 313 1497 
L 313 2009 
z
" transform="scale(0.015625)"/>
      <path id="DejaVuSans-78" d="M 3513 3500 
L 2247 1797 
L 3578 0 
L 2900 0 
L 1881 1375 
L 863 0 
L 184 0 
L 1544 1831 
L 300 3500 
L 978 3500 
L 1906 2253 
L 2834 3500 
L 3513 3500 
z
" transform="scale(0.015625)"/>
      <path id="DejaVuSans-62" d="M 3116 1747 
Q 3116 2381 2855 2742 
Q 2594 3103 2138 3103 
Q 1681 3103 1420 2742 
Q 1159 2381 1159 1747 
Q 1159 1113 1420 752 
Q 1681 391 2138 391 
Q 2594 391 2855 752 
Q 3116 1113 3116 1747 
z
M 1159 2969 
Q 1341 3281 1617 3432 
Q 1894 3584 2278 3584 
Q 2916 3584 3314 3078 
Q 3713 2572 3713 1747 
Q 3713 922 3314 415 
Q 2916 -91 2278 -91 
Q 1894 -91 1617 61 
Q 1341 213 1159 525 
L 1159 0 
L 581 0 
L 581 4863 
L 1159 4863 
L 1159 2969 
z
" transform="scale(0.015625)"/>
      <path id="DejaVuSans-79" d="M 2059 -325 
Q 1816 -950 1584 -1140 
Q 1353 -1331 966 -1331 
L 506 -1331 
L 506 -850 
L 844 -850 
Q 1081 -850 1212 -737 
Q 1344 -625 1503 -206 
L 1606 56 
L 191 3500 
L 800 3500 
L 1894 763 
L 2988 3500 
L 3597 3500 
L 2059 -325 
z
" transform="scale(0.015625)"/>
      <path id="DejaVuSans-Oblique-3d5" d="M 2991 4863 
L 2738 3572 
Q 3363 3572 3684 3094 
Q 4016 2606 3850 1747 
Q 3681 888 3159 400 
Q 2653 -78 2028 -78 
L 1784 -1331 
L 1213 -1331 
L 1456 -78 
Q 834 -78 509 400 
Q 178 888 347 1747 
Q 513 2606 1034 3094 
Q 1544 3572 2166 3572 
L 2419 4863 
L 2991 4863 
z
M 2128 434 
Q 2481 434 2784 756 
Q 3116 1116 3244 1747 
Q 3369 2372 3169 2738 
Q 2991 3059 2638 3059 
L 2128 434 
z
M 1556 434 
L 2066 3059 
Q 1716 3059 1413 2738 
Q 1072 2372 953 1747 
Q 834 1116 1028 756 
Q 1203 434 1556 434 
z
" transform="scale(0.015625)"/>
     </defs>
     <use xlink:href="#DejaVuSans-4c" transform="translate(0 0.828125)"/>
     <use xlink:href="#DejaVuSans-69" transform="translate(55.712891 0.828125)"/>
     <use xlink:href="#DejaVuSans-75" transform="translate(83.496094 0.828125)"/>
     <use xlink:href="#DejaVuSans-31" transform="translate(146.875 0.828125)"/>
     <use xlink:href="#DejaVuSans-32" transform="translate(210.498047 0.828125)"/>
     <use xlink:href="#DejaVuSans-20" transform="translate(274.121094 0.828125)"/>
     <use xlink:href="#DejaVuSans-63" transform="translate(305.908203 0.828125)"/>
     <use xlink:href="#DejaVuSans-75" transform="translate(360.888672 0.828125)"/>
     <use xlink:href="#DejaVuSans-73" transform="translate(424.267578 0.828125)"/>
     <use xlink:href="#DejaVuSans-70" transform="translate(476.367188 0.828125)"/>
     <use xlink:href="#DejaVuSans-73" transform="translate(539.84375 0.828125)"/>
     <use xlink:href="#DejaVuSans-20" transform="translate(591.943359 0.828125)"/>
     <use xlink:href="#DejaVuSans-6d" transform="translate(623.730469 0.828125)"/>
     <use xlink:href="#DejaVuSans-6f" transform="translate(721.142578 0.828125)"/>
     <use xlink:href="#DejaVuSans-64" transform="translate(782.324219 0.828125)"/>
     <use xlink:href="#DejaVuSans-65" transform="translate(845.800781 0.828125)"/>
     <use xlink:href="#DejaVuSans-6c" transform="translate(907.324219 0.828125)"/>
     <use xlink:href="#DejaVuSans-20" transform="translate(935.107422 0.828125)"/>
     <use xlink:href="#DejaVuSans-69" transform="translate(966.894531 0.828125)"/>
     <use xlink:href="#DejaVuSans-6e" transform="translate(994.677734 0.828125)"/>
     <use xlink:href="#DejaVuSans-20" transform="translate(1058.056641 0.828125)"/>
     <use xlink:href="#DejaVuSans-64" transform="translate(1089.84375 0.828125)"/>
     <use xlink:href="#DejaVuSans-69" transform="translate(1153.320312 0.828125)"/>
     <use xlink:href="#DejaVuSans-66" transform="translate(1181.103516 0.828125)"/>
     <use xlink:href="#DejaVuSans-66" transform="translate(1216.308594 0.828125)"/>
     <use xlink:href="#DejaVuSans-65" transform="translate(1251.513672 0.828125)"/>
     <use xlink:href="#DejaVuSans-72" transform="translate(1313.037109 0.828125)"/>
     <use xlink:href="#DejaVuSans-65" transform="translate(1354.150391 0.828125)"/>
     <use xlink:href="#DejaVuSans-6e" transform="translate(1415.673828 0.828125)"/>
     <use xlink:href="#DejaVuSans-74" transform="translate(1479.052734 0.828125)"/>
     <use xlink:href="#DejaVuSans-20" transform="translate(1518.261719 0.828125)"/>
     <use xlink:href="#DejaVuSans-70" transform="translate(1550.048828 0.828125)"/>
     <use xlink:href="#DejaVuSans-6c" transform="translate(1613.525391 0.828125)"/>
     <use xlink:href="#DejaVuSans-61" transform="translate(1641.308594 0.828125)"/>
     <use xlink:href="#DejaVuSans-6e" transform="translate(1702.587891 0.828125)"/>
     <use xlink:href="#DejaVuSans-65" transform="translate(1765.966797 0.828125)"/>
     <use xlink:href="#DejaVuSans-73" transform="translate(1827.490234 0.828125)"/>
     <use xlink:href="#DejaVuSans-20" transform="translate(1879.589844 0.828125)"/>
     <use xlink:href="#DejaVuSans-63" transform="translate(1911.376953 0.828125)"/>
     <use xlink:href="#DejaVuSans-6f" transform="translate(1966.357422 0.828125)"/>
     <use xlink:href="#DejaVuSans-6e" transform="translate(2027.539062 0.828125)"/>
     <use xlink:href="#DejaVuSans-74" transform="translate(2090.917969 0.828125)"/>
     <use xlink:href="#DejaVuSans-61" transform="translate(2130.126953 0.828125)"/>
     <use xlink:href="#DejaVuSans-69" transform="translate(2191.40625 0.828125)"/>
     <use xlink:href="#DejaVuSans-6e" transform="translate(2219.189453 0.828125)"/>
     <use xlink:href="#DejaVuSans-69" transform="translate(2282.568359 0.828125)"/>
     <use xlink:href="#DejaVuSans-6e" transform="translate(2310.351562 0.828125)"/>
     <use xlink:href="#DejaVuSans-67" transform="translate(2373.730469 0.828125)"/>
     <use xlink:href="#DejaVuSans-20" transform="translate(2437.207031 0.828125)"/>
     <use xlink:href="#DejaVuSans-74" transform="translate(2468.994141 0.828125)"/>
     <use xlink:href="#DejaVuSans-68" transform="translate(2508.203125 0.828125)"/>
     <use xlink:href="#DejaVuSans-65" transform="translate(2571.582031 0.828125)"/>
     <use xlink:href="#DejaVuSans-20" transform="translate(2633.105469 0.828125)"/>
     <use xlink:href="#DejaVuSans-302" transform="translate(2729.119141 12.015625)"/>
     <use xlink:href="#DejaVuSans-Oblique-78" transform="translate(2664.892578 0.828125)"/>
     <use xlink:href="#DejaVuSans-2d" transform="translate(2727.486328 0.828125)"/>
     <use xlink:href="#DejaVuSans-61" transform="translate(2763.570312 0.828125)"/>
     <use xlink:href="#DejaVuSans-78" transform="translate(2824.849609 0.828125)"/>
     <use xlink:href="#DejaVuSans-69" transform="translate(2884.029297 0.828125)"/>
     <use xlink:href="#DejaVuSans-73" transform="translate(2911.8125 0.828125)"/>
     <use xlink:href="#DejaVuSans-20" transform="translate(2963.912109 0.828125)"/>
     <use xlink:href="#DejaVuSans-72" transform="translate(2995.699219 0.828125)"/>
     <use xlink:href="#DejaVuSans-6f" transform="translate(3036.8125 0.828125)"/>
     <use xlink:href="#DejaVuSans-74" transform="translate(3097.994141 0.828125)"/>
     <use xlink:href="#DejaVuSans-61" transform="translate(3137.203125 0.828125)"/>
     <use xlink:href="#DejaVuSans-74" transform="translate(3198.482422 0.828125)"/>
     <use xlink:href="#DejaVuSans-65" transform="translate(3237.691406 0.828125)"/>
     <use xlink:href="#DejaVuSans-64" transform="translate(3299.214844 0.828125)"/>
     <use xlink:href="#DejaVuSans-20" transform="translate(3362.691406 0.828125)"/>
     <use xlink:href="#DejaVuSans-62" transform="translate(3394.478516 0.828125)"/>
     <use xlink:href="#DejaVuSans-79" transform="translate(3457.955078 0.828125)"/>
     <use xlink:href="#DejaVuSans-20" transform="translate(3517.134766 0.828125)"/>
     <use xlink:href="#DejaVuSans-Oblique-3d5" transform="translate(3548.921875 0.828125)"/>
    </g>
    <!-- $d_N = d_S$, $\ell_N = \ell_S$ and $\dfrac{s_N}{s_S} = 2$ -->
    <g transform="translate(218.34 45.09825) scale(0.12 -0.12)">
     <defs>
      <path id="DejaVuSans-Oblique-64" d="M 2675 525 
Q 2444 222 2128 65 
Q 1813 -91 1428 -91 
Q 903 -91 598 267 
Q 294 625 294 1247 
Q 294 1766 478 2236 
Q 663 2706 1013 3078 
Q 1244 3325 1534 3454 
Q 1825 3584 2144 3584 
Q 2481 3584 2739 3421 
Q 2997 3259 3138 2956 
L 3513 4863 
L 4091 4863 
L 3144 0 
L 2566 0 
L 2675 525 
z
M 891 1350 
Q 891 897 1095 644 
Q 1300 391 1663 391 
Q 1931 391 2161 520 
Q 2391 650 2566 903 
Q 2750 1166 2856 1509 
Q 2963 1853 2963 2188 
Q 2963 2622 2758 2865 
Q 2553 3109 2194 3109 
Q 1922 3109 1687 2981 
Q 1453 2853 1288 2613 
Q 1106 2353 998 2009 
Q 891 1666 891 1350 
z
" transform="scale(0.015625)"/>
      <path id="DejaVuSans-Oblique-4e" d="M 1081 4666 
L 1931 4666 
L 3219 666 
L 4000 4666 
L 4616 4666 
L 3706 0 
L 2853 0 
L 1569 4025 
L 788 0 
L 172 0 
L 1081 4666 
z
" transform="scale(0.015625)"/>
      <path id="DejaVuSans-3d" d="M 678 2906 
L 4684 2906 
L 4684 2381 
L 678 2381 
L 678 2906 
z
M 678 1631 
L 4684 1631 
L 4684 1100 
L 678 1100 
L 678 1631 
z
" transform="scale(0.015625)"/>
      <path id="DejaVuSans-Oblique-53" d="M 3859 4513 
L 3738 3897 
Q 3422 4066 3111 4152 
Q 2800 4238 2509 4238 
Q 1944 4238 1609 3991 
Q 1275 3744 1275 3334 
Q 1275 3109 1398 2989 
Q 1522 2869 2034 2731 
L 2413 2638 
Q 3053 2472 3303 2217 
Q 3553 1963 3553 1503 
Q 3553 797 2998 353 
Q 2444 -91 1538 -91 
Q 1166 -91 791 -17 
Q 416 56 38 206 
L 166 856 
Q 513 641 861 531 
Q 1209 422 1556 422 
Q 2147 422 2503 684 
Q 2859 947 2859 1369 
Q 2859 1650 2717 1795 
Q 2575 1941 2106 2059 
L 1728 2156 
Q 1081 2325 845 2545 
Q 609 2766 609 3163 
Q 609 3859 1145 4304 
Q 1681 4750 2541 4750 
Q 2875 4750 3203 4690 
Q 3531 4631 3859 4513 
z
" transform="scale(0.015625)"/>
      <path id="DejaVuSans-2c" d="M 750 794 
L 1409 794 
L 1409 256 
L 897 -744 
L 494 -744 
L 750 256 
L 750 794 
z
" transform="scale(0.015625)"/>
      <path id="DejaVuSans-Oblique-2113" d="M 950 838 
Q 1078 213 1350 213 
Q 1531 213 1766 572 
L 2181 572 
Q 1994 253 1775 88 
Q 1538 -91 1319 -91 
Q 831 -91 634 344 
L 400 0 
L -88 0 
Q 250 459 500 888 
Q 469 1131 469 1397 
Q 469 1872 566 2347 
Q 931 4131 1256 4497 
Q 1481 4750 1866 4750 
Q 2256 4750 2256 4209 
Q 2253 3966 2197 3675 
Q 1972 2484 950 838 
z
M 947 1656 
Q 1531 2744 1709 3613 
Q 1803 4072 1803 4191 
Q 1803 4406 1725 4406 
Q 1384 4134 1081 2516 
Q 997 2063 947 1656 
z
" transform="scale(0.015625)"/>
      <path id="DejaVuSans-Oblique-73" d="M 3200 3397 
L 3091 2853 
Q 2863 2978 2609 3040 
Q 2356 3103 2088 3103 
Q 1634 3103 1373 2948 
Q 1113 2794 1113 2528 
Q 1113 2219 1719 2053 
Q 1766 2041 1788 2034 
L 1972 1978 
Q 2547 1819 2739 1644 
Q 2931 1469 2931 1166 
Q 2931 609 2489 259 
Q 2047 -91 1331 -91 
Q 1053 -91 747 -37 
Q 441 16 72 128 
L 184 722 
Q 500 559 806 475 
Q 1113 391 1394 391 
Q 1816 391 2080 572 
Q 2344 753 2344 1031 
Q 2344 1331 1650 1516 
L 1591 1531 
L 1394 1581 
Q 956 1697 753 1886 
Q 550 2075 550 2369 
Q 550 2928 970 3256 
Q 1391 3584 2113 3584 
Q 2397 3584 2667 3537 
Q 2938 3491 3200 3397 
z
" transform="scale(0.015625)"/>
     </defs>
     <use xlink:href="#DejaVuSans-Oblique-64" transform="translate(0 0.796875)"/>
     <use xlink:href="#DejaVuSans-Oblique-4e" transform="translate(63.476562 -15.609375) scale(0.7)"/>
     <use xlink:href="#DejaVuSans-3d" transform="translate(138.056641 0.796875)"/>
     <use xlink:href="#DejaVuSans-Oblique-64" transform="translate(241.328125 0.796875)"/>
     <use xlink:href="#DejaVuSans-Oblique-53" transform="translate(304.804688 -15.609375) scale(0.7)"/>
     <use xlink:href="#DejaVuSans-2c" transform="translate(351.972656 0.796875)"/>
     <use xlink:href="#DejaVuSans-20" transform="translate(383.759766 0.796875)"/>
     <use xlink:href="#DejaVuSans-Oblique-2113" transform="translate(415.546875 0.796875)"/>
     <use xlink:href="#DejaVuSans-Oblique-4e" transform="translate(456.855469 -15.609375) scale(0.7)"/>
     <use xlink:href="#DejaVuSans-3d" transform="translate(531.435547 0.796875)"/>
     <use xlink:href="#DejaVuSans-Oblique-2113" transform="translate(634.707031 0.796875)"/>
     <use xlink:href="#DejaVuSans-Oblique-53" transform="translate(676.015625 -15.609375) scale(0.7)"/>
     <use xlink:href="#DejaVuSans-20" transform="translate(723.183594 0.796875)"/>
     <use xlink:href="#DejaVuSans-61" transform="translate(754.970703 0.796875)"/>
     <use xlink:href="#DejaVuSans-6e" transform="translate(816.25 0.796875)"/>
     <use xlink:href="#DejaVuSans-64" transform="translate(879.628906 0.796875)"/>
     <use xlink:href="#DejaVuSans-20" transform="translate(943.105469 0.796875)"/>
     <use xlink:href="#DejaVuSans-Oblique-73" transform="translate(974.892578 61)"/>
     <use xlink:href="#DejaVuSans-Oblique-4e" transform="translate(1026.992188 44.59375) scale(0.7)"/>
     <use xlink:href="#DejaVuSans-Oblique-73" transform="translate(978.892578 -42.65625)"/>
     <use xlink:href="#DejaVuSans-Oblique-53" transform="translate(1030.992188 -59.0625) scale(0.7)"/>
     <use xlink:href="#DejaVuSans-3d" transform="translate(1114.072266 0.796875)"/>
     <use xlink:href="#DejaVuSans-32" transform="translate(1217.34375 0.796875)"/>
     <path d="M 974.892578 19.59375 
L 974.892578 25.84375 
L 1082.089844 25.84375 
L 1082.089844 19.59375 
L 974.892578 19.59375 
z
"/>
    </g>
    <!--  -->
    <g transform="translate(295.2 63.36) scale(0.12 -0.12)"/>
   </g>
   <g id="legend_1">
    <g id="patch_7">
     <path d="M 426.2 150.81625 
L 511.4 150.81625 
Q 513.4 150.81625 513.4 148.81625 
L 513.4 76.36 
Q 513.4 74.36 511.4 74.36 
L 426.2 74.36 
Q 424.2 74.36 424.2 76.36 
L 424.2 148.81625 
Q 424.2 150.81625 426.2 150.81625 
z
" style="fill: #ffffff; opacity: 0.8; stroke: #cccccc; stroke-linejoin: miter"/>
    </g>
    <g id="line2d_18">
     <path d="M 428.2 82.46 
L 438.2 82.46 
L 448.2 82.46 
" style="fill: none; stroke: #333333; stroke-width: 1.5; stroke-linecap: square"/>
    </g>
    <g id="text_17">
     <!-- $\phi = 0.00$ -->
     <g transform="translate(456.2 85.96) scale(0.1 -0.1)">
      <defs>
       <path id="DejaVuSans-2e" d="M 684 794 
L 1344 794 
L 1344 0 
L 684 0 
L 684 794 
z
" transform="scale(0.015625)"/>
      </defs>
      <use xlink:href="#DejaVuSans-Oblique-3d5" transform="translate(0 0.015625)"/>
      <use xlink:href="#DejaVuSans-3d" transform="translate(85.449219 0.015625)"/>
      <use xlink:href="#DejaVuSans-30" transform="translate(188.720703 0.015625)"/>
      <use xlink:href="#DejaVuSans-2e" transform="translate(252.34375 0.015625)"/>
      <use xlink:href="#DejaVuSans-30" transform="translate(284.130859 0.015625)"/>
      <use xlink:href="#DejaVuSans-30" transform="translate(347.753906 0.015625)"/>
     </g>
    </g>
    <g id="line2d_19">
     <path d="M 428.2 97.16 
L 438.2 97.16 
L 448.2 97.16 
" style="fill: none; stroke-dasharray: 5.55,2.4; stroke-dashoffset: 0; stroke: #333333; stroke-width: 1.5"/>
    </g>
    <g id="text_18">
     <!-- $\phi = 0.79$ -->
     <g transform="translate(456.2 100.66) scale(0.1 -0.1)">
      <defs>
       <path id="DejaVuSans-37" d="M 525 4666 
L 3525 4666 
L 3525 4397 
L 1831 0 
L 1172 0 
L 2766 4134 
L 525 4134 
L 525 4666 
z
" transform="scale(0.015625)"/>
       <path id="DejaVuSans-39" d="M 703 97 
L 703 672 
Q 941 559 1184 500 
Q 1428 441 1663 441 
Q 2288 441 2617 861 
Q 2947 1281 2994 2138 
Q 2813 1869 2534 1725 
Q 2256 1581 1919 1581 
Q 1219 1581 811 2004 
Q 403 2428 403 3163 
Q 403 3881 828 4315 
Q 1253 4750 1959 4750 
Q 2769 4750 3195 4129 
Q 3622 3509 3622 2328 
Q 3622 1225 3098 567 
Q 2575 -91 1691 -91 
Q 1453 -91 1209 -44 
Q 966 3 703 97 
z
M 1959 2075 
Q 2384 2075 2632 2365 
Q 2881 2656 2881 3163 
Q 2881 3666 2632 3958 
Q 2384 4250 1959 4250 
Q 1534 4250 1286 3958 
Q 1038 3666 1038 3163 
Q 1038 2656 1286 2365 
Q 1534 2075 1959 2075 
z
" transform="scale(0.015625)"/>
      </defs>
      <use xlink:href="#DejaVuSans-Oblique-3d5" transform="translate(0 0.015625)"/>
      <use xlink:href="#DejaVuSans-3d" transform="translate(85.449219 0.015625)"/>
      <use xlink:href="#DejaVuSans-30" transform="translate(188.720703 0.015625)"/>
      <use xlink:href="#DejaVuSans-2e" transform="translate(252.34375 0.015625)"/>
      <use xlink:href="#DejaVuSans-37" transform="translate(276.380859 0.015625)"/>
      <use xlink:href="#DejaVuSans-39" transform="translate(340.003906 0.015625)"/>
     </g>
    </g>
    <g id="line2d_20">
     <path d="M 428.2 111.86 
L 438.2 111.86 
L 448.2 111.86 
" style="fill: none; stroke-dasharray: 9.6,2.4,1.5,2.4; stroke-dashoffset: 0; stroke: #333333; stroke-width: 1.5"/>
    </g>
    <g id="text_19">
     <!-- $\phi = 1.57$ -->
     <g transform="translate(456.2 115.36) scale(0.1 -0.1)">
      <use xlink:href="#DejaVuSans-Oblique-3d5" transform="translate(0 0.015625)"/>
      <use xlink:href="#DejaVuSans-3d" transform="translate(85.449219 0.015625)"/>
      <use xlink:href="#DejaVuSans-31" transform="translate(188.720703 0.015625)"/>
      <use xlink:href="#DejaVuSans-2e" transform="translate(252.34375 0.015625)"/>
      <use xlink:href="#DejaVuSans-35" transform="translate(284.130859 0.015625)"/>
      <use xlink:href="#DejaVuSans-37" transform="translate(340.503906 0.015625)"/>
     </g>
    </g>
    <g id="PathCollection_2">
     <g>
      <use xlink:href="#m9ec8043af0" x="438.2" y="127.433438" style="fill: #333333; stroke: #333333; stroke-width: 1.5"/>
     </g>
    </g>
    <g id="text_20">
     <!-- Earth -->
     <g transform="translate(456.2 130.058438) scale(0.1 -0.1)">
      <defs>
       <path id="DejaVuSans-45" d="M 628 4666 
L 3578 4666 
L 3578 4134 
L 1259 4134 
L 1259 2753 
L 3481 2753 
L 3481 2222 
L 1259 2222 
L 1259 531 
L 3634 531 
L 3634 0 
L 628 0 
L 628 4666 
z
" transform="scale(0.015625)"/>
      </defs>
      <use xlink:href="#DejaVuSans-45"/>
      <use xlink:href="#DejaVuSans-61" transform="translate(63.183594 0)"/>
      <use xlink:href="#DejaVuSans-72" transform="translate(124.462891 0)"/>
      <use xlink:href="#DejaVuSans-74" transform="translate(165.576172 0)"/>
      <use xlink:href="#DejaVuSans-68" transform="translate(204.785156 0)"/>
     </g>
    </g>
    <g id="line2d_21">
     <path d="M 428.2 141.236563 
L 438.2 141.236563 
L 448.2 141.236563 
" style="fill: none; stroke-dasharray: 5.55,2.4; stroke-dashoffset: 0; stroke: #808080; stroke-opacity: 0.2; stroke-width: 1.5"/>
    </g>
    <g id="text_21">
     <!-- Point $\theta = 0$ -->
     <g transform="translate(456.2 144.736563) scale(0.1 -0.1)">
      <defs>
       <path id="DejaVuSans-50" d="M 1259 4147 
L 1259 2394 
L 2053 2394 
Q 2494 2394 2734 2622 
Q 2975 2850 2975 3272 
Q 2975 3691 2734 3919 
Q 2494 4147 2053 4147 
L 1259 4147 
z
M 628 4666 
L 2053 4666 
Q 2838 4666 3239 4311 
Q 3641 3956 3641 3272 
Q 3641 2581 3239 2228 
Q 2838 1875 2053 1875 
L 1259 1875 
L 1259 0 
L 628 0 
L 628 4666 
z
" transform="scale(0.015625)"/>
       <path id="DejaVuSans-Oblique-3b8" d="M 2913 2219 
L 925 2219 
Q 791 1284 928 888 
Q 1100 400 1566 400 
Q 2034 400 2391 891 
Q 2703 1322 2913 2219 
z
M 3009 2750 
Q 3094 3638 2984 3950 
Q 2813 4444 2353 4444 
Q 1875 4444 1525 3956 
Q 1250 3563 1034 2750 
L 3009 2750 
z
M 2444 4913 
Q 3194 4913 3494 4250 
Q 3794 3591 3566 2422 
Q 3341 1256 2781 594 
Q 2225 -72 1475 -72 
Q 722 -72 425 594 
Q 128 1256 353 2422 
Q 581 3591 1134 4250 
Q 1691 4913 2444 4913 
z
" transform="scale(0.015625)"/>
      </defs>
      <use xlink:href="#DejaVuSans-50" transform="translate(0 0.234375)"/>
      <use xlink:href="#DejaVuSans-6f" transform="translate(60.302734 0.234375)"/>
      <use xlink:href="#DejaVuSans-69" transform="translate(121.484375 0.234375)"/>
      <use xlink:href="#DejaVuSans-6e" transform="translate(149.267578 0.234375)"/>
      <use xlink:href="#DejaVuSans-74" transform="translate(212.646484 0.234375)"/>
      <use xlink:href="#DejaVuSans-20" transform="translate(251.855469 0.234375)"/>
      <use xlink:href="#DejaVuSans-Oblique-3b8" transform="translate(283.642578 0.234375)"/>
      <use xlink:href="#DejaVuSans-3d" transform="translate(364.306641 0.234375)"/>
      <use xlink:href="#DejaVuSans-30" transform="translate(467.578125 0.234375)"/>
     </g>
    </g>
   </g>
  </g>
 </g>
 <defs>
  <clipPath id="p947cbbeee4">
   <rect x="72" y="69.36" width="446.4" height="297.6"/>
  </clipPath>
 </defs>
</svg>
