<?xml version="1.0" encoding="utf-8" standalone="no"?>
<!DOCTYPE svg PUBLIC "-//W3C//DTD SVG 1.1//EN"
  "http://www.w3.org/Graphics/SVG/1.1/DTD/svg11.dtd">
<svg xmlns:xlink="http://www.w3.org/1999/xlink" width="576pt" height="432pt" viewBox="0 0 576 432" xmlns="http://www.w3.org/2000/svg" version="1.1">
 <metadata>
  <rdf:RDF xmlns:dc="http://purl.org/dc/elements/1.1/" xmlns:cc="http://creativecommons.org/ns#" xmlns:rdf="http://www.w3.org/1999/02/22-rdf-syntax-ns#">
   <cc:Work>
    <dc:type rdf:resource="http://purl.org/dc/dcmitype/StillImage"/>
    <dc:date>2025-06-24T21:02:15.715613</dc:date>
    <dc:format>image/svg+xml</dc:format>
    <dc:creator>
     <cc:Agent>
      <dc:title>Matplotlib v3.10.3, https://matplotlib.org/</dc:title>
     </cc:Agent>
    </dc:creator>
   </cc:Work>
  </rdf:RDF>
 </metadata>
 <defs>
  <style type="text/css">*{stroke-linejoin: round; stroke-linecap: butt}</style>
 </defs>
 <g id="figure_1">
  <g id="patch_1">
   <path d="M 0 432 
L 576 432 
L 576 0 
L 0 0 
z
" style="fill: #ffffff"/>
  </g>
  <g id="axes_1">
   <g id="patch_2">
    <path d="M 72 366.96 
L 518.4 366.96 
L 518.4 69.36 
L 72 69.36 
z
" style="fill: #ffffff"/>
   </g>
   <g id="matplotlib.axis_1">
    <g id="xtick_1">
     <g id="line2d_1">
      <defs>
       <path id="me6a93e10f9" d="M 0 0 
L 0 3.5 
" style="stroke: #000000; stroke-width: 0.8"/>
      </defs>
      <g>
       <use xlink:href="#me6a93e10f9" x="72" y="366.96" style="stroke: #000000; stroke-width: 0.8"/>
      </g>
     </g>
     <g id="text_1">
      <!-- −15 -->
      <g transform="translate(61.447656 381.558438) scale(0.1 -0.1)">
       <defs>
        <path id="DejaVuSans-2212" d="M 678 2272 
L 4684 2272 
L 4684 1741 
L 678 1741 
L 678 2272 
z
" transform="scale(0.015625)"/>
        <path id="DejaVuSans-31" d="M 794 531 
L 1825 531 
L 1825 4091 
L 703 3866 
L 703 4441 
L 1819 4666 
L 2450 4666 
L 2450 531 
L 3481 531 
L 3481 0 
L 794 0 
L 794 531 
z
" transform="scale(0.015625)"/>
        <path id="DejaVuSans-35" d="M 691 4666 
L 3169 4666 
L 3169 4134 
L 1269 4134 
L 1269 2991 
Q 1406 3038 1543 3061 
Q 1681 3084 1819 3084 
Q 2600 3084 3056 2656 
Q 3513 2228 3513 1497 
Q 3513 744 3044 326 
Q 2575 -91 1722 -91 
Q 1428 -91 1123 -41 
Q 819 9 494 109 
L 494 744 
Q 775 591 1075 516 
Q 1375 441 1709 441 
Q 2250 441 2565 725 
Q 2881 1009 2881 1497 
Q 2881 1984 2565 2268 
Q 2250 2553 1709 2553 
Q 1456 2553 1204 2497 
Q 953 2441 691 2322 
L 691 4666 
z
" transform="scale(0.015625)"/>
       </defs>
       <use xlink:href="#DejaVuSans-2212"/>
       <use xlink:href="#DejaVuSans-31" transform="translate(83.789062 0)"/>
       <use xlink:href="#DejaVuSans-35" transform="translate(147.412109 0)"/>
      </g>
     </g>
    </g>
    <g id="xtick_2">
     <g id="line2d_2">
      <g>
       <use xlink:href="#me6a93e10f9" x="146.4" y="366.96" style="stroke: #000000; stroke-width: 0.8"/>
      </g>
     </g>
     <g id="text_2">
      <!-- −10 -->
      <g transform="translate(135.847656 381.558438) scale(0.1 -0.1)">
       <defs>
        <path id="DejaVuSans-30" d="M 2034 4250 
Q 1547 4250 1301 3770 
Q 1056 3291 1056 2328 
Q 1056 1369 1301 889 
Q 1547 409 2034 409 
Q 2525 409 2770 889 
Q 3016 1369 3016 2328 
Q 3016 3291 2770 3770 
Q 2525 4250 2034 4250 
z
M 2034 4750 
Q 2819 4750 3233 4129 
Q 3647 3509 3647 2328 
Q 3647 1150 3233 529 
Q 2819 -91 2034 -91 
Q 1250 -91 836 529 
Q 422 1150 422 2328 
Q 422 3509 836 4129 
Q 1250 4750 2034 4750 
z
" transform="scale(0.015625)"/>
       </defs>
       <use xlink:href="#DejaVuSans-2212"/>
       <use xlink:href="#DejaVuSans-31" transform="translate(83.789062 0)"/>
       <use xlink:href="#DejaVuSans-30" transform="translate(147.412109 0)"/>
      </g>
     </g>
    </g>
    <g id="xtick_3">
     <g id="line2d_3">
      <g>
       <use xlink:href="#me6a93e10f9" x="220.8" y="366.96" style="stroke: #000000; stroke-width: 0.8"/>
      </g>
     </g>
     <g id="text_3">
      <!-- −5 -->
      <g transform="translate(213.428906 381.558438) scale(0.1 -0.1)">
       <use xlink:href="#DejaVuSans-2212"/>
       <use xlink:href="#DejaVuSans-35" transform="translate(83.789062 0)"/>
      </g>
     </g>
    </g>
    <g id="xtick_4">
     <g id="line2d_4">
      <g>
       <use xlink:href="#me6a93e10f9" x="295.2" y="366.96" style="stroke: #000000; stroke-width: 0.8"/>
      </g>
     </g>
     <g id="text_4">
      <!-- 0 -->
      <g transform="translate(292.01875 381.558438) scale(0.1 -0.1)">
       <use xlink:href="#DejaVuSans-30"/>
      </g>
     </g>
    </g>
    <g id="xtick_5">
     <g id="line2d_5">
      <g>
       <use xlink:href="#me6a93e10f9" x="369.6" y="366.96" style="stroke: #000000; stroke-width: 0.8"/>
      </g>
     </g>
     <g id="text_5">
      <!-- 5 -->
      <g transform="translate(366.41875 381.558438) scale(0.1 -0.1)">
       <use xlink:href="#DejaVuSans-35"/>
      </g>
     </g>
    </g>
    <g id="xtick_6">
     <g id="line2d_6">
      <g>
       <use xlink:href="#me6a93e10f9" x="444" y="366.96" style="stroke: #000000; stroke-width: 0.8"/>
      </g>
     </g>
     <g id="text_6">
      <!-- 10 -->
      <g transform="translate(437.6375 381.558438) scale(0.1 -0.1)">
       <use xlink:href="#DejaVuSans-31"/>
       <use xlink:href="#DejaVuSans-30" transform="translate(63.623047 0)"/>
      </g>
     </g>
    </g>
    <g id="xtick_7">
     <g id="line2d_7">
      <g>
       <use xlink:href="#me6a93e10f9" x="518.4" y="366.96" style="stroke: #000000; stroke-width: 0.8"/>
      </g>
     </g>
     <g id="text_7">
      <!-- 15 -->
      <g transform="translate(512.0375 381.558438) scale(0.1 -0.1)">
       <use xlink:href="#DejaVuSans-31"/>
       <use xlink:href="#DejaVuSans-35" transform="translate(63.623047 0)"/>
      </g>
     </g>
    </g>
   </g>
   <g id="matplotlib.axis_2">
    <g id="ytick_1">
     <g id="line2d_8">
      <defs>
       <path id="m08bd370a6a" d="M 0 0 
L -3.5 0 
" style="stroke: #000000; stroke-width: 0.8"/>
      </defs>
      <g>
       <use xlink:href="#m08bd370a6a" x="72" y="366.96" style="stroke: #000000; stroke-width: 0.8"/>
      </g>
     </g>
     <g id="text_8">
      <!-- −10 -->
      <g transform="translate(43.895313 370.759219) scale(0.1 -0.1)">
       <use xlink:href="#DejaVuSans-2212"/>
       <use xlink:href="#DejaVuSans-31" transform="translate(83.789062 0)"/>
       <use xlink:href="#DejaVuSans-30" transform="translate(147.412109 0)"/>
      </g>
     </g>
    </g>
    <g id="ytick_2">
     <g id="line2d_9">
      <g>
       <use xlink:href="#m08bd370a6a" x="72" y="307.44" style="stroke: #000000; stroke-width: 0.8"/>
      </g>
     </g>
     <g id="text_9">
      <!-- −5 -->
      <g transform="translate(50.257812 311.239219) scale(0.1 -0.1)">
       <use xlink:href="#DejaVuSans-2212"/>
       <use xlink:href="#DejaVuSans-35" transform="translate(83.789062 0)"/>
      </g>
     </g>
    </g>
    <g id="ytick_3">
     <g id="line2d_10">
      <g>
       <use xlink:href="#m08bd370a6a" x="72" y="247.92" style="stroke: #000000; stroke-width: 0.8"/>
      </g>
     </g>
     <g id="text_10">
      <!-- 0 -->
      <g transform="translate(58.6375 251.719219) scale(0.1 -0.1)">
       <use xlink:href="#DejaVuSans-30"/>
      </g>
     </g>
    </g>
    <g id="ytick_4">
     <g id="line2d_11">
      <g>
       <use xlink:href="#m08bd370a6a" x="72" y="188.4" style="stroke: #000000; stroke-width: 0.8"/>
      </g>
     </g>
     <g id="text_11">
      <!-- 5 -->
      <g transform="translate(58.6375 192.199219) scale(0.1 -0.1)">
       <use xlink:href="#DejaVuSans-35"/>
      </g>
     </g>
    </g>
    <g id="ytick_5">
     <g id="line2d_12">
      <g>
       <use xlink:href="#m08bd370a6a" x="72" y="128.88" style="stroke: #000000; stroke-width: 0.8"/>
      </g>
     </g>
     <g id="text_12">
      <!-- 10 -->
      <g transform="translate(52.275 132.679219) scale(0.1 -0.1)">
       <use xlink:href="#DejaVuSans-31"/>
       <use xlink:href="#DejaVuSans-30" transform="translate(63.623047 0)"/>
      </g>
     </g>
    </g>
    <g id="ytick_6">
     <g id="line2d_13">
      <g>
       <use xlink:href="#m08bd370a6a" x="72" y="69.36" style="stroke: #000000; stroke-width: 0.8"/>
      </g>
     </g>
     <g id="text_13">
      <!-- 15 -->
      <g transform="translate(52.275 73.159219) scale(0.1 -0.1)">
       <use xlink:href="#DejaVuSans-31"/>
       <use xlink:href="#DejaVuSans-35" transform="translate(63.623047 0)"/>
      </g>
     </g>
    </g>
   </g>
   <g id="line2d_14">
    <path d="M -1 356.692528 
L 5.732691 348.130952 
L 15.463339 336.524463 
L 25.150687 325.698988 
L 34.804552 315.606088 
L 44.433616 306.203495 
L 54.045503 297.454361 
L 63.646829 289.326613 
L 73.243252 281.792411 
L 82.839507 274.827678 
L 92.439433 268.411693 
L 102.045995 262.526743 
L 106.475972 257.418808 
L 111.955637 247.92 
L 117.417496 238.971898 
L 122.916623 230.508438 
L 128.497744 222.479875 
L 134.196644 214.849092 
L 140.041393 207.58873 
L 146.053422 200.678954 
L 152.248475 194.105695 
L 158.637445 187.85928 
L 165.227108 181.933356 
L 172.020779 176.324046 
L 179.018884 171.029298 
L 186.219465 166.048373 
L 193.618625 161.381458 
L 201.210919 157.029374 
L 208.989693 152.993354 
L 216.947386 149.274889 
L 225.075784 145.875619 
L 233.366247 142.797268 
L 241.809904 140.041607 
L 250.397816 137.610445 
L 259.121122 135.505639 
L 267.971158 133.729127 
L 276.939558 132.282972 
L 286.018345 131.169413 
L 295.2 130.390936 
L 295.2 130.390936 
L 304.381655 131.169413 
L 313.460442 132.282972 
L 322.428842 133.729127 
L 331.278878 135.505639 
L 340.002184 137.610445 
L 348.590096 140.041607 
L 357.033753 142.797268 
L 365.324216 145.875619 
L 373.452614 149.274889 
L 381.410307 152.993354 
L 389.189081 157.029374 
L 396.781375 161.381458 
L 404.180535 166.048373 
L 411.381116 171.029298 
L 418.379221 176.324046 
L 425.172892 181.933356 
L 431.762555 187.85928 
L 438.151525 194.105695 
L 444.346578 200.678954 
L 450.358607 207.58873 
L 456.203356 214.849092 
L 461.902256 222.479875 
L 467.483377 230.508438 
L 472.982504 238.971898 
L 478.444363 247.92 
L 483.924028 257.418808 
L 488.354005 262.526743 
L 497.960567 268.411693 
L 507.560493 274.827678 
L 517.156748 281.792411 
L 526.753171 289.326613 
L 536.354497 297.454361 
L 545.966384 306.203495 
L 555.595448 315.606088 
L 565.249313 325.698988 
L 577 338.985566 
L 577 338.985566 
" clip-path="url(#p3def076cf8)" style="fill: none; stroke: #333333; stroke-width: 1.5; stroke-linecap: square"/>
   </g>
   <g id="line2d_15">
    <path d="M -1 363.032952 
L 1.6228 358.437555 
L 8.409431 347.204289 
L 15.182909 336.613288 
L 21.948772 326.621196 
L 28.711938 317.189776 
L 35.476743 308.285265 
L 42.246981 299.877837 
L 49.025929 291.941139 
L 55.816373 284.451895 
L 62.620623 277.389564 
L 69.440531 270.736043 
L 76.277498 264.475415 
L 80.539822 258.724219 
L 87.414846 247.92 
L 94.334181 237.810075 
L 101.324244 228.326237 
L 108.406132 219.413731 
L 115.596331 211.028493 
L 122.907346 203.134979 
L 130.348245 195.704458 
L 137.925148 188.713658 
L 145.64165 182.143681 
L 153.499202 175.979151 
L 161.497442 170.207524 
L 169.634488 164.81854 
L 177.9072 159.803784 
L 186.311408 155.156341 
L 194.842111 150.870521 
L 203.493654 146.941635 
L 212.259885 143.365833 
L 221.134282 140.139967 
L 230.110078 137.261499 
L 239.180357 134.728427 
L 248.338145 132.539232 
L 257.57648 130.692852 
L 266.888483 129.188666 
L 276.267409 128.02649 
L 285.706695 127.206591 
L 295.2 126.729702 
L 295.2 126.729702 
L 304.693305 127.206591 
L 314.132591 128.02649 
L 323.511517 129.188666 
L 332.82352 130.692852 
L 342.061855 132.539232 
L 351.219643 134.728427 
L 360.289922 137.261499 
L 369.265718 140.139967 
L 378.140115 143.365833 
L 386.906346 146.941635 
L 395.557889 150.870521 
L 404.088592 155.156341 
L 412.4928 159.803784 
L 420.765512 164.81854 
L 428.902558 170.207524 
L 436.900798 175.979151 
L 444.75835 182.143681 
L 452.474852 188.713658 
L 460.051755 195.704458 
L 467.492654 203.134979 
L 474.803669 211.028493 
L 481.993868 219.413731 
L 489.075756 228.326237 
L 496.065819 237.810075 
L 502.985154 247.92 
L 509.860178 258.724219 
L 514.122502 264.475415 
L 520.959469 270.736043 
L 527.779377 277.389564 
L 534.583627 284.451895 
L 541.374071 291.941139 
L 548.153019 299.877837 
L 554.923257 308.285265 
L 561.688062 317.189776 
L 568.451228 326.621196 
L 577 339.401041 
L 577 339.401041 
" clip-path="url(#p3def076cf8)" style="fill: none; stroke-dasharray: 5.55,2.4; stroke-dashoffset: 0; stroke: #333333; stroke-width: 1.5"/>
   </g>
   <g id="line2d_16">
    <path d="M -1 373.113234 
L 0.857573 367.899966 
L 4.864294 357.21729 
L 8.877386 347.042287 
L 12.89886 337.336743 
L 16.930501 328.066547 
L 20.973897 319.20117 
L 25.030458 310.713206 
L 29.101429 302.578 
L 33.187913 294.773312 
L 37.290876 287.279037 
L 41.411167 280.076962 
L 45.549522 273.150552 
L 49.706579 266.484768 
L 53.882884 260.065909 
L 58.078895 253.881465 
L 62.294997 247.92 
L 66.531501 242.171042 
L 70.788652 236.624988 
L 75.066634 231.273016 
L 79.365576 226.107017 
L 83.685552 221.119522 
L 88.026588 216.303646 
L 92.388666 211.653037 
L 96.771725 207.161823 
L 101.175663 202.824575 
L 105.600344 198.63627 
L 110.045594 194.59225 
L 114.511211 190.688198 
L 118.996958 186.920108 
L 123.502574 183.284259 
L 132.572227 176.3957 
L 141.717561 169.997666 
L 150.935612 164.068629 
L 160.223101 158.589919 
L 169.576473 153.545325 
L 178.991922 148.920773 
L 188.465422 144.704047 
L 197.992756 140.884566 
L 207.569531 137.453181 
L 217.191206 134.402025 
L 226.853105 131.724365 
L 236.550441 129.414498 
L 246.278325 127.467654 
L 256.03179 125.879914 
L 265.805798 124.648157 
L 275.595259 123.769999 
L 285.395045 123.243768 
L 295.2 123.068467 
L 295.2 123.068467 
L 305.004955 123.243768 
L 314.804741 123.769999 
L 324.594202 124.648157 
L 334.36821 125.879914 
L 344.121675 127.467654 
L 353.849559 129.414498 
L 363.546895 131.724365 
L 373.208794 134.402025 
L 382.830469 137.453181 
L 392.407244 140.884566 
L 401.934578 144.704047 
L 411.408078 148.920773 
L 420.823527 153.545325 
L 430.176899 158.589919 
L 439.464388 164.068629 
L 448.682439 169.997666 
L 457.827773 176.3957 
L 462.372231 179.777195 
L 466.897426 183.284259 
L 471.403042 186.920108 
L 475.888789 190.688198 
L 480.354406 194.59225 
L 484.799656 198.63627 
L 489.224337 202.824575 
L 493.628275 207.161823 
L 498.011334 211.653037 
L 502.373412 216.303646 
L 506.714448 221.119522 
L 511.034424 226.107017 
L 515.333366 231.273016 
L 519.611348 236.624988 
L 523.868499 242.171042 
L 528.105003 247.92 
L 532.321105 253.881465 
L 536.517116 260.065909 
L 540.693421 266.484768 
L 544.850478 273.150552 
L 548.988833 280.076962 
L 553.109124 287.279037 
L 557.212087 294.773312 
L 561.298571 302.578 
L 565.369542 310.713206 
L 569.426103 319.20117 
L 573.469499 328.066547 
L 577 336.18444 
L 577 336.18444 
" clip-path="url(#p3def076cf8)" style="fill: none; stroke-dasharray: 9.6,2.4,1.5,2.4; stroke-dashoffset: 0; stroke: #333333; stroke-width: 1.5"/>
   </g>
   <g id="patch_3">
    <path d="M 72 366.96 
L 72 69.36 
" style="fill: none; stroke: #000000; stroke-width: 0.8; stroke-linejoin: miter; stroke-linecap: square"/>
   </g>
   <g id="patch_4">
    <path d="M 518.4 366.96 
L 518.4 69.36 
" style="fill: none; stroke: #000000; stroke-width: 0.8; stroke-linejoin: miter; stroke-linecap: square"/>
   </g>
   <g id="patch_5">
    <path d="M 72 366.96 
L 518.4 366.96 
" style="fill: none; stroke: #000000; stroke-width: 0.8; stroke-linejoin: miter; stroke-linecap: square"/>
   </g>
   <g id="patch_6">
    <path d="M 72 69.36 
L 518.4 69.36 
" style="fill: none; stroke: #000000; stroke-width: 0.8; stroke-linejoin: miter; stroke-linecap: square"/>
   </g>
   <g id="text_14">
    <!-- Lin10 cusps model in different planes containing the $\hat x$-axis rotated by $\phi$ -->
    <g transform="translate(78.3 20.45025) scale(0.12 -0.12)">
     <defs>
      <path id="DejaVuSans-4c" d="M 628 4666 
L 1259 4666 
L 1259 531 
L 3531 531 
L 3531 0 
L 628 0 
L 628 4666 
z
" transform="scale(0.015625)"/>
      <path id="DejaVuSans-69" d="M 603 3500 
L 1178 3500 
L 1178 0 
L 603 0 
L 603 3500 
z
M 603 4863 
L 1178 4863 
L 1178 4134 
L 603 4134 
L 603 4863 
z
" transform="scale(0.015625)"/>
      <path id="DejaVuSans-6e" d="M 3513 2113 
L 3513 0 
L 2938 0 
L 2938 2094 
Q 2938 2591 2744 2837 
Q 2550 3084 2163 3084 
Q 1697 3084 1428 2787 
Q 1159 2491 1159 1978 
L 1159 0 
L 581 0 
L 581 3500 
L 1159 3500 
L 1159 2956 
Q 1366 3272 1645 3428 
Q 1925 3584 2291 3584 
Q 2894 3584 3203 3211 
Q 3513 2838 3513 2113 
z
" transform="scale(0.015625)"/>
      <path id="DejaVuSans-20" transform="scale(0.015625)"/>
      <path id="DejaVuSans-63" d="M 3122 3366 
L 3122 2828 
Q 2878 2963 2633 3030 
Q 2388 3097 2138 3097 
Q 1578 3097 1268 2742 
Q 959 2388 959 1747 
Q 959 1106 1268 751 
Q 1578 397 2138 397 
Q 2388 397 2633 464 
Q 2878 531 3122 666 
L 3122 134 
Q 2881 22 2623 -34 
Q 2366 -91 2075 -91 
Q 1284 -91 818 406 
Q 353 903 353 1747 
Q 353 2603 823 3093 
Q 1294 3584 2113 3584 
Q 2378 3584 2631 3529 
Q 2884 3475 3122 3366 
z
" transform="scale(0.015625)"/>
      <path id="DejaVuSans-75" d="M 544 1381 
L 544 3500 
L 1119 3500 
L 1119 1403 
Q 1119 906 1312 657 
Q 1506 409 1894 409 
Q 2359 409 2629 706 
Q 2900 1003 2900 1516 
L 2900 3500 
L 3475 3500 
L 3475 0 
L 2900 0 
L 2900 538 
Q 2691 219 2414 64 
Q 2138 -91 1772 -91 
Q 1169 -91 856 284 
Q 544 659 544 1381 
z
M 1991 3584 
L 1991 3584 
z
" transform="scale(0.015625)"/>
      <path id="DejaVuSans-73" d="M 2834 3397 
L 2834 2853 
Q 2591 2978 2328 3040 
Q 2066 3103 1784 3103 
Q 1356 3103 1142 2972 
Q 928 2841 928 2578 
Q 928 2378 1081 2264 
Q 1234 2150 1697 2047 
L 1894 2003 
Q 2506 1872 2764 1633 
Q 3022 1394 3022 966 
Q 3022 478 2636 193 
Q 2250 -91 1575 -91 
Q 1294 -91 989 -36 
Q 684 19 347 128 
L 347 722 
Q 666 556 975 473 
Q 1284 391 1588 391 
Q 1994 391 2212 530 
Q 2431 669 2431 922 
Q 2431 1156 2273 1281 
Q 2116 1406 1581 1522 
L 1381 1569 
Q 847 1681 609 1914 
Q 372 2147 372 2553 
Q 372 3047 722 3315 
Q 1072 3584 1716 3584 
Q 2034 3584 2315 3537 
Q 2597 3491 2834 3397 
z
" transform="scale(0.015625)"/>
      <path id="DejaVuSans-70" d="M 1159 525 
L 1159 -1331 
L 581 -1331 
L 581 3500 
L 1159 3500 
L 1159 2969 
Q 1341 3281 1617 3432 
Q 1894 3584 2278 3584 
Q 2916 3584 3314 3078 
Q 3713 2572 3713 1747 
Q 3713 922 3314 415 
Q 2916 -91 2278 -91 
Q 1894 -91 1617 61 
Q 1341 213 1159 525 
z
M 3116 1747 
Q 3116 2381 2855 2742 
Q 2594 3103 2138 3103 
Q 1681 3103 1420 2742 
Q 1159 2381 1159 1747 
Q 1159 1113 1420 752 
Q 1681 391 2138 391 
Q 2594 391 2855 752 
Q 3116 1113 3116 1747 
z
" transform="scale(0.015625)"/>
      <path id="DejaVuSans-6d" d="M 3328 2828 
Q 3544 3216 3844 3400 
Q 4144 3584 4550 3584 
Q 5097 3584 5394 3201 
Q 5691 2819 5691 2113 
L 5691 0 
L 5113 0 
L 5113 2094 
Q 5113 2597 4934 2840 
Q 4756 3084 4391 3084 
Q 3944 3084 3684 2787 
Q 3425 2491 3425 1978 
L 3425 0 
L 2847 0 
L 2847 2094 
Q 2847 2600 2669 2842 
Q 2491 3084 2119 3084 
Q 1678 3084 1418 2786 
Q 1159 2488 1159 1978 
L 1159 0 
L 581 0 
L 581 3500 
L 1159 3500 
L 1159 2956 
Q 1356 3278 1631 3431 
Q 1906 3584 2284 3584 
Q 2666 3584 2933 3390 
Q 3200 3197 3328 2828 
z
" transform="scale(0.015625)"/>
      <path id="DejaVuSans-6f" d="M 1959 3097 
Q 1497 3097 1228 2736 
Q 959 2375 959 1747 
Q 959 1119 1226 758 
Q 1494 397 1959 397 
Q 2419 397 2687 759 
Q 2956 1122 2956 1747 
Q 2956 2369 2687 2733 
Q 2419 3097 1959 3097 
z
M 1959 3584 
Q 2709 3584 3137 3096 
Q 3566 2609 3566 1747 
Q 3566 888 3137 398 
Q 2709 -91 1959 -91 
Q 1206 -91 779 398 
Q 353 888 353 1747 
Q 353 2609 779 3096 
Q 1206 3584 1959 3584 
z
" transform="scale(0.015625)"/>
      <path id="DejaVuSans-64" d="M 2906 2969 
L 2906 4863 
L 3481 4863 
L 3481 0 
L 2906 0 
L 2906 525 
Q 2725 213 2448 61 
Q 2172 -91 1784 -91 
Q 1150 -91 751 415 
Q 353 922 353 1747 
Q 353 2572 751 3078 
Q 1150 3584 1784 3584 
Q 2172 3584 2448 3432 
Q 2725 3281 2906 2969 
z
M 947 1747 
Q 947 1113 1208 752 
Q 1469 391 1925 391 
Q 2381 391 2643 752 
Q 2906 1113 2906 1747 
Q 2906 2381 2643 2742 
Q 2381 3103 1925 3103 
Q 1469 3103 1208 2742 
Q 947 2381 947 1747 
z
" transform="scale(0.015625)"/>
      <path id="DejaVuSans-65" d="M 3597 1894 
L 3597 1613 
L 953 1613 
Q 991 1019 1311 708 
Q 1631 397 2203 397 
Q 2534 397 2845 478 
Q 3156 559 3463 722 
L 3463 178 
Q 3153 47 2828 -22 
Q 2503 -91 2169 -91 
Q 1331 -91 842 396 
Q 353 884 353 1716 
Q 353 2575 817 3079 
Q 1281 3584 2069 3584 
Q 2775 3584 3186 3129 
Q 3597 2675 3597 1894 
z
M 3022 2063 
Q 3016 2534 2758 2815 
Q 2500 3097 2075 3097 
Q 1594 3097 1305 2825 
Q 1016 2553 972 2059 
L 3022 2063 
z
" transform="scale(0.015625)"/>
      <path id="DejaVuSans-6c" d="M 603 4863 
L 1178 4863 
L 1178 0 
L 603 0 
L 603 4863 
z
" transform="scale(0.015625)"/>
      <path id="DejaVuSans-66" d="M 2375 4863 
L 2375 4384 
L 1825 4384 
Q 1516 4384 1395 4259 
Q 1275 4134 1275 3809 
L 1275 3500 
L 2222 3500 
L 2222 3053 
L 1275 3053 
L 1275 0 
L 697 0 
L 697 3053 
L 147 3053 
L 147 3500 
L 697 3500 
L 697 3744 
Q 697 4328 969 4595 
Q 1241 4863 1831 4863 
L 2375 4863 
z
" transform="scale(0.015625)"/>
      <path id="DejaVuSans-72" d="M 2631 2963 
Q 2534 3019 2420 3045 
Q 2306 3072 2169 3072 
Q 1681 3072 1420 2755 
Q 1159 2438 1159 1844 
L 1159 0 
L 581 0 
L 581 3500 
L 1159 3500 
L 1159 2956 
Q 1341 3275 1631 3429 
Q 1922 3584 2338 3584 
Q 2397 3584 2469 3576 
Q 2541 3569 2628 3553 
L 2631 2963 
z
" transform="scale(0.015625)"/>
      <path id="DejaVuSans-74" d="M 1172 4494 
L 1172 3500 
L 2356 3500 
L 2356 3053 
L 1172 3053 
L 1172 1153 
Q 1172 725 1289 603 
Q 1406 481 1766 481 
L 2356 481 
L 2356 0 
L 1766 0 
Q 1100 0 847 248 
Q 594 497 594 1153 
L 594 3053 
L 172 3053 
L 172 3500 
L 594 3500 
L 594 4494 
L 1172 4494 
z
" transform="scale(0.015625)"/>
      <path id="DejaVuSans-61" d="M 2194 1759 
Q 1497 1759 1228 1600 
Q 959 1441 959 1056 
Q 959 750 1161 570 
Q 1363 391 1709 391 
Q 2188 391 2477 730 
Q 2766 1069 2766 1631 
L 2766 1759 
L 2194 1759 
z
M 3341 1997 
L 3341 0 
L 2766 0 
L 2766 531 
Q 2569 213 2275 61 
Q 1981 -91 1556 -91 
Q 1019 -91 701 211 
Q 384 513 384 1019 
Q 384 1609 779 1909 
Q 1175 2209 1959 2209 
L 2766 2209 
L 2766 2266 
Q 2766 2663 2505 2880 
Q 2244 3097 1772 3097 
Q 1472 3097 1187 3025 
Q 903 2953 641 2809 
L 641 3341 
Q 956 3463 1253 3523 
Q 1550 3584 1831 3584 
Q 2591 3584 2966 3190 
Q 3341 2797 3341 1997 
z
" transform="scale(0.015625)"/>
      <path id="DejaVuSans-67" d="M 2906 1791 
Q 2906 2416 2648 2759 
Q 2391 3103 1925 3103 
Q 1463 3103 1205 2759 
Q 947 2416 947 1791 
Q 947 1169 1205 825 
Q 1463 481 1925 481 
Q 2391 481 2648 825 
Q 2906 1169 2906 1791 
z
M 3481 434 
Q 3481 -459 3084 -895 
Q 2688 -1331 1869 -1331 
Q 1566 -1331 1297 -1286 
Q 1028 -1241 775 -1147 
L 775 -588 
Q 1028 -725 1275 -790 
Q 1522 -856 1778 -856 
Q 2344 -856 2625 -561 
Q 2906 -266 2906 331 
L 2906 616 
Q 2728 306 2450 153 
Q 2172 0 1784 0 
Q 1141 0 747 490 
Q 353 981 353 1791 
Q 353 2603 747 3093 
Q 1141 3584 1784 3584 
Q 2172 3584 2450 3431 
Q 2728 3278 2906 2969 
L 2906 3500 
L 3481 3500 
L 3481 434 
z
" transform="scale(0.015625)"/>
      <path id="DejaVuSans-68" d="M 3513 2113 
L 3513 0 
L 2938 0 
L 2938 2094 
Q 2938 2591 2744 2837 
Q 2550 3084 2163 3084 
Q 1697 3084 1428 2787 
Q 1159 2491 1159 1978 
L 1159 0 
L 581 0 
L 581 4863 
L 1159 4863 
L 1159 2956 
Q 1366 3272 1645 3428 
Q 1925 3584 2291 3584 
Q 2894 3584 3203 3211 
Q 3513 2838 3513 2113 
z
" transform="scale(0.015625)"/>
      <path id="DejaVuSans-302" d="M -1831 5119 
L -1369 5119 
L -603 3944 
L -1038 3944 
L -1600 4709 
L -2163 3944 
L -2597 3944 
L -1831 5119 
z
M -1600 3584 
L -1600 3584 
z
" transform="scale(0.015625)"/>
      <path id="DejaVuSans-Oblique-78" d="M 3841 3500 
L 2234 1784 
L 3219 0 
L 2559 0 
L 1819 1388 
L 531 0 
L -166 0 
L 1556 1844 
L 641 3500 
L 1300 3500 
L 1972 2234 
L 3144 3500 
L 3841 3500 
z
" transform="scale(0.015625)"/>
      <path id="DejaVuSans-2d" d="M 313 2009 
L 1997 2009 
L 1997 1497 
L 313 1497 
L 313 2009 
z
" transform="scale(0.015625)"/>
      <path id="DejaVuSans-78" d="M 3513 3500 
L 2247 1797 
L 3578 0 
L 2900 0 
L 1881 1375 
L 863 0 
L 184 0 
L 1544 1831 
L 300 3500 
L 978 3500 
L 1906 2253 
L 2834 3500 
L 3513 3500 
z
" transform="scale(0.015625)"/>
      <path id="DejaVuSans-62" d="M 3116 1747 
Q 3116 2381 2855 2742 
Q 2594 3103 2138 3103 
Q 1681 3103 1420 2742 
Q 1159 2381 1159 1747 
Q 1159 1113 1420 752 
Q 1681 391 2138 391 
Q 2594 391 2855 752 
Q 3116 1113 3116 1747 
z
M 1159 2969 
Q 1341 3281 1617 3432 
Q 1894 3584 2278 3584 
Q 2916 3584 3314 3078 
Q 3713 2572 3713 1747 
Q 3713 922 3314 415 
Q 2916 -91 2278 -91 
Q 1894 -91 1617 61 
Q 1341 213 1159 525 
L 1159 0 
L 581 0 
L 581 4863 
L 1159 4863 
L 1159 2969 
z
" transform="scale(0.015625)"/>
      <path id="DejaVuSans-79" d="M 2059 -325 
Q 1816 -950 1584 -1140 
Q 1353 -1331 966 -1331 
L 506 -1331 
L 506 -850 
L 844 -850 
Q 1081 -850 1212 -737 
Q 1344 -625 1503 -206 
L 1606 56 
L 191 3500 
L 800 3500 
L 1894 763 
L 2988 3500 
L 3597 3500 
L 2059 -325 
z
" transform="scale(0.015625)"/>
      <path id="DejaVuSans-Oblique-3d5" d="M 2991 4863 
L 2738 3572 
Q 3363 3572 3684 3094 
Q 4016 2606 3850 1747 
Q 3681 888 3159 400 
Q 2653 -78 2028 -78 
L 1784 -1331 
L 1213 -1331 
L 1456 -78 
Q 834 -78 509 400 
Q 178 888 347 1747 
Q 513 2606 1034 3094 
Q 1544 3572 2166 3572 
L 2419 4863 
L 2991 4863 
z
M 2128 434 
Q 2481 434 2784 756 
Q 3116 1116 3244 1747 
Q 3369 2372 3169 2738 
Q 2991 3059 2638 3059 
L 2128 434 
z
M 1556 434 
L 2066 3059 
Q 1716 3059 1413 2738 
Q 1072 2372 953 1747 
Q 834 1116 1028 756 
Q 1203 434 1556 434 
z
" transform="scale(0.015625)"/>
     </defs>
     <use xlink:href="#DejaVuSans-4c" transform="translate(0 0.828125)"/>
     <use xlink:href="#DejaVuSans-69" transform="translate(55.712891 0.828125)"/>
     <use xlink:href="#DejaVuSans-6e" transform="translate(83.496094 0.828125)"/>
     <use xlink:href="#DejaVuSans-31" transform="translate(146.875 0.828125)"/>
     <use xlink:href="#DejaVuSans-30" transform="translate(210.498047 0.828125)"/>
     <use xlink:href="#DejaVuSans-20" transform="translate(274.121094 0.828125)"/>
     <use xlink:href="#DejaVuSans-63" transform="translate(305.908203 0.828125)"/>
     <use xlink:href="#DejaVuSans-75" transform="translate(360.888672 0.828125)"/>
     <use xlink:href="#DejaVuSans-73" transform="translate(424.267578 0.828125)"/>
     <use xlink:href="#DejaVuSans-70" transform="translate(476.367188 0.828125)"/>
     <use xlink:href="#DejaVuSans-73" transform="translate(539.84375 0.828125)"/>
     <use xlink:href="#DejaVuSans-20" transform="translate(591.943359 0.828125)"/>
     <use xlink:href="#DejaVuSans-6d" transform="translate(623.730469 0.828125)"/>
     <use xlink:href="#DejaVuSans-6f" transform="translate(721.142578 0.828125)"/>
     <use xlink:href="#DejaVuSans-64" transform="translate(782.324219 0.828125)"/>
     <use xlink:href="#DejaVuSans-65" transform="translate(845.800781 0.828125)"/>
     <use xlink:href="#DejaVuSans-6c" transform="translate(907.324219 0.828125)"/>
     <use xlink:href="#DejaVuSans-20" transform="translate(935.107422 0.828125)"/>
     <use xlink:href="#DejaVuSans-69" transform="translate(966.894531 0.828125)"/>
     <use xlink:href="#DejaVuSans-6e" transform="translate(994.677734 0.828125)"/>
     <use xlink:href="#DejaVuSans-20" transform="translate(1058.056641 0.828125)"/>
     <use xlink:href="#DejaVuSans-64" transform="translate(1089.84375 0.828125)"/>
     <use xlink:href="#DejaVuSans-69" transform="translate(1153.320312 0.828125)"/>
     <use xlink:href="#DejaVuSans-66" transform="translate(1181.103516 0.828125)"/>
     <use xlink:href="#DejaVuSans-66" transform="translate(1216.308594 0.828125)"/>
     <use xlink:href="#DejaVuSans-65" transform="translate(1251.513672 0.828125)"/>
     <use xlink:href="#DejaVuSans-72" transform="translate(1313.037109 0.828125)"/>
     <use xlink:href="#DejaVuSans-65" transform="translate(1354.150391 0.828125)"/>
     <use xlink:href="#DejaVuSans-6e" transform="translate(1415.673828 0.828125)"/>
     <use xlink:href="#DejaVuSans-74" transform="translate(1479.052734 0.828125)"/>
     <use xlink:href="#DejaVuSans-20" transform="translate(1518.261719 0.828125)"/>
     <use xlink:href="#DejaVuSans-70" transform="translate(1550.048828 0.828125)"/>
     <use xlink:href="#DejaVuSans-6c" transform="translate(1613.525391 0.828125)"/>
     <use xlink:href="#DejaVuSans-61" transform="translate(1641.308594 0.828125)"/>
     <use xlink:href="#DejaVuSans-6e" transform="translate(1702.587891 0.828125)"/>
     <use xlink:href="#DejaVuSans-65" transform="translate(1765.966797 0.828125)"/>
     <use xlink:href="#DejaVuSans-73" transform="translate(1827.490234 0.828125)"/>
     <use xlink:href="#DejaVuSans-20" transform="translate(1879.589844 0.828125)"/>
     <use xlink:href="#DejaVuSans-63" transform="translate(1911.376953 0.828125)"/>
     <use xlink:href="#DejaVuSans-6f" transform="translate(1966.357422 0.828125)"/>
     <use xlink:href="#DejaVuSans-6e" transform="translate(2027.539062 0.828125)"/>
     <use xlink:href="#DejaVuSans-74" transform="translate(2090.917969 0.828125)"/>
     <use xlink:href="#DejaVuSans-61" transform="translate(2130.126953 0.828125)"/>
     <use xlink:href="#DejaVuSans-69" transform="translate(2191.40625 0.828125)"/>
     <use xlink:href="#DejaVuSans-6e" transform="translate(2219.189453 0.828125)"/>
     <use xlink:href="#DejaVuSans-69" transform="translate(2282.568359 0.828125)"/>
     <use xlink:href="#DejaVuSans-6e" transform="translate(2310.351562 0.828125)"/>
     <use xlink:href="#DejaVuSans-67" transform="translate(2373.730469 0.828125)"/>
     <use xlink:href="#DejaVuSans-20" transform="translate(2437.207031 0.828125)"/>
     <use xlink:href="#DejaVuSans-74" transform="translate(2468.994141 0.828125)"/>
     <use xlink:href="#DejaVuSans-68" transform="translate(2508.203125 0.828125)"/>
     <use xlink:href="#DejaVuSans-65" transform="translate(2571.582031 0.828125)"/>
     <use xlink:href="#DejaVuSans-20" transform="translate(2633.105469 0.828125)"/>
     <use xlink:href="#DejaVuSans-302" transform="translate(2729.119141 12.015625)"/>
     <use xlink:href="#DejaVuSans-Oblique-78" transform="translate(2664.892578 0.828125)"/>
     <use xlink:href="#DejaVuSans-2d" transform="translate(2727.486328 0.828125)"/>
     <use xlink:href="#DejaVuSans-61" transform="translate(2763.570312 0.828125)"/>
     <use xlink:href="#DejaVuSans-78" transform="translate(2824.849609 0.828125)"/>
     <use xlink:href="#DejaVuSans-69" transform="translate(2884.029297 0.828125)"/>
     <use xlink:href="#DejaVuSans-73" transform="translate(2911.8125 0.828125)"/>
     <use xlink:href="#DejaVuSans-20" transform="translate(2963.912109 0.828125)"/>
     <use xlink:href="#DejaVuSans-72" transform="translate(2995.699219 0.828125)"/>
     <use xlink:href="#DejaVuSans-6f" transform="translate(3036.8125 0.828125)"/>
     <use xlink:href="#DejaVuSans-74" transform="translate(3097.994141 0.828125)"/>
     <use xlink:href="#DejaVuSans-61" transform="translate(3137.203125 0.828125)"/>
     <use xlink:href="#DejaVuSans-74" transform="translate(3198.482422 0.828125)"/>
     <use xlink:href="#DejaVuSans-65" transform="translate(3237.691406 0.828125)"/>
     <use xlink:href="#DejaVuSans-64" transform="translate(3299.214844 0.828125)"/>
     <use xlink:href="#DejaVuSans-20" transform="translate(3362.691406 0.828125)"/>
     <use xlink:href="#DejaVuSans-62" transform="translate(3394.478516 0.828125)"/>
     <use xlink:href="#DejaVuSans-79" transform="translate(3457.955078 0.828125)"/>
     <use xlink:href="#DejaVuSans-20" transform="translate(3517.134766 0.828125)"/>
     <use xlink:href="#DejaVuSans-Oblique-3d5" transform="translate(3548.921875 0.828125)"/>
    </g>
    <!-- $\dfrac{d_N}{d_S}=3$, $\ell_N - \ell_S = 0.5$ rad and $\dfrac{s_N}{s_S} = 2$ -->
    <g transform="translate(191.64 42.69825) scale(0.12 -0.12)">
     <defs>
      <path id="DejaVuSans-Oblique-64" d="M 2675 525 
Q 2444 222 2128 65 
Q 1813 -91 1428 -91 
Q 903 -91 598 267 
Q 294 625 294 1247 
Q 294 1766 478 2236 
Q 663 2706 1013 3078 
Q 1244 3325 1534 3454 
Q 1825 3584 2144 3584 
Q 2481 3584 2739 3421 
Q 2997 3259 3138 2956 
L 3513 4863 
L 4091 4863 
L 3144 0 
L 2566 0 
L 2675 525 
z
M 891 1350 
Q 891 897 1095 644 
Q 1300 391 1663 391 
Q 1931 391 2161 520 
Q 2391 650 2566 903 
Q 2750 1166 2856 1509 
Q 2963 1853 2963 2188 
Q 2963 2622 2758 2865 
Q 2553 3109 2194 3109 
Q 1922 3109 1687 2981 
Q 1453 2853 1288 2613 
Q 1106 2353 998 2009 
Q 891 1666 891 1350 
z
" transform="scale(0.015625)"/>
      <path id="DejaVuSans-Oblique-4e" d="M 1081 4666 
L 1931 4666 
L 3219 666 
L 4000 4666 
L 4616 4666 
L 3706 0 
L 2853 0 
L 1569 4025 
L 788 0 
L 172 0 
L 1081 4666 
z
" transform="scale(0.015625)"/>
      <path id="DejaVuSans-Oblique-53" d="M 3859 4513 
L 3738 3897 
Q 3422 4066 3111 4152 
Q 2800 4238 2509 4238 
Q 1944 4238 1609 3991 
Q 1275 3744 1275 3334 
Q 1275 3109 1398 2989 
Q 1522 2869 2034 2731 
L 2413 2638 
Q 3053 2472 3303 2217 
Q 3553 1963 3553 1503 
Q 3553 797 2998 353 
Q 2444 -91 1538 -91 
Q 1166 -91 791 -17 
Q 416 56 38 206 
L 166 856 
Q 513 641 861 531 
Q 1209 422 1556 422 
Q 2147 422 2503 684 
Q 2859 947 2859 1369 
Q 2859 1650 2717 1795 
Q 2575 1941 2106 2059 
L 1728 2156 
Q 1081 2325 845 2545 
Q 609 2766 609 3163 
Q 609 3859 1145 4304 
Q 1681 4750 2541 4750 
Q 2875 4750 3203 4690 
Q 3531 4631 3859 4513 
z
" transform="scale(0.015625)"/>
      <path id="DejaVuSans-3d" d="M 678 2906 
L 4684 2906 
L 4684 2381 
L 678 2381 
L 678 2906 
z
M 678 1631 
L 4684 1631 
L 4684 1100 
L 678 1100 
L 678 1631 
z
" transform="scale(0.015625)"/>
      <path id="DejaVuSans-33" d="M 2597 2516 
Q 3050 2419 3304 2112 
Q 3559 1806 3559 1356 
Q 3559 666 3084 287 
Q 2609 -91 1734 -91 
Q 1441 -91 1130 -33 
Q 819 25 488 141 
L 488 750 
Q 750 597 1062 519 
Q 1375 441 1716 441 
Q 2309 441 2620 675 
Q 2931 909 2931 1356 
Q 2931 1769 2642 2001 
Q 2353 2234 1838 2234 
L 1294 2234 
L 1294 2753 
L 1863 2753 
Q 2328 2753 2575 2939 
Q 2822 3125 2822 3475 
Q 2822 3834 2567 4026 
Q 2313 4219 1838 4219 
Q 1578 4219 1281 4162 
Q 984 4106 628 3988 
L 628 4550 
Q 988 4650 1302 4700 
Q 1616 4750 1894 4750 
Q 2613 4750 3031 4423 
Q 3450 4097 3450 3541 
Q 3450 3153 3228 2886 
Q 3006 2619 2597 2516 
z
" transform="scale(0.015625)"/>
      <path id="DejaVuSans-2c" d="M 750 794 
L 1409 794 
L 1409 256 
L 897 -744 
L 494 -744 
L 750 256 
L 750 794 
z
" transform="scale(0.015625)"/>
      <path id="DejaVuSans-Oblique-2113" d="M 950 838 
Q 1078 213 1350 213 
Q 1531 213 1766 572 
L 2181 572 
Q 1994 253 1775 88 
Q 1538 -91 1319 -91 
Q 831 -91 634 344 
L 400 0 
L -88 0 
Q 250 459 500 888 
Q 469 1131 469 1397 
Q 469 1872 566 2347 
Q 931 4131 1256 4497 
Q 1481 4750 1866 4750 
Q 2256 4750 2256 4209 
Q 2253 3966 2197 3675 
Q 1972 2484 950 838 
z
M 947 1656 
Q 1531 2744 1709 3613 
Q 1803 4072 1803 4191 
Q 1803 4406 1725 4406 
Q 1384 4134 1081 2516 
Q 997 2063 947 1656 
z
" transform="scale(0.015625)"/>
      <path id="DejaVuSans-2e" d="M 684 794 
L 1344 794 
L 1344 0 
L 684 0 
L 684 794 
z
" transform="scale(0.015625)"/>
      <path id="DejaVuSans-Oblique-73" d="M 3200 3397 
L 3091 2853 
Q 2863 2978 2609 3040 
Q 2356 3103 2088 3103 
Q 1634 3103 1373 2948 
Q 1113 2794 1113 2528 
Q 1113 2219 1719 2053 
Q 1766 2041 1788 2034 
L 1972 1978 
Q 2547 1819 2739 1644 
Q 2931 1469 2931 1166 
Q 2931 609 2489 259 
Q 2047 -91 1331 -91 
Q 1053 -91 747 -37 
Q 441 16 72 128 
L 184 722 
Q 500 559 806 475 
Q 1113 391 1394 391 
Q 1816 391 2080 572 
Q 2344 753 2344 1031 
Q 2344 1331 1650 1516 
L 1591 1531 
L 1394 1581 
Q 956 1697 753 1886 
Q 550 2075 550 2369 
Q 550 2928 970 3256 
Q 1391 3584 2113 3584 
Q 2397 3584 2667 3537 
Q 2938 3491 3200 3397 
z
" transform="scale(0.015625)"/>
      <path id="DejaVuSans-32" d="M 1228 531 
L 3431 531 
L 3431 0 
L 469 0 
L 469 531 
Q 828 903 1448 1529 
Q 2069 2156 2228 2338 
Q 2531 2678 2651 2914 
Q 2772 3150 2772 3378 
Q 2772 3750 2511 3984 
Q 2250 4219 1831 4219 
Q 1534 4219 1204 4116 
Q 875 4013 500 3803 
L 500 4441 
Q 881 4594 1212 4672 
Q 1544 4750 1819 4750 
Q 2544 4750 2975 4387 
Q 3406 4025 3406 3419 
Q 3406 3131 3298 2873 
Q 3191 2616 2906 2266 
Q 2828 2175 2409 1742 
Q 1991 1309 1228 531 
z
" transform="scale(0.015625)"/>
     </defs>
     <use xlink:href="#DejaVuSans-Oblique-64" transform="translate(0 61.015625)"/>
     <use xlink:href="#DejaVuSans-Oblique-4e" transform="translate(63.476562 44.609375) scale(0.7)"/>
     <use xlink:href="#DejaVuSans-Oblique-64" transform="translate(4 -62.625)"/>
     <use xlink:href="#DejaVuSans-Oblique-53" transform="translate(67.476562 -79.03125) scale(0.7)"/>
     <use xlink:href="#DejaVuSans-3d" transform="translate(150.556641 0.8125)"/>
     <use xlink:href="#DejaVuSans-33" transform="translate(253.828125 0.8125)"/>
     <use xlink:href="#DejaVuSans-2c" transform="translate(317.451172 0.8125)"/>
     <use xlink:href="#DejaVuSans-20" transform="translate(349.238281 0.8125)"/>
     <use xlink:href="#DejaVuSans-Oblique-2113" transform="translate(381.025391 0.8125)"/>
     <use xlink:href="#DejaVuSans-Oblique-4e" transform="translate(422.333984 -15.59375) scale(0.7)"/>
     <use xlink:href="#DejaVuSans-2212" transform="translate(496.914062 0.8125)"/>
     <use xlink:href="#DejaVuSans-Oblique-2113" transform="translate(600.185547 0.8125)"/>
     <use xlink:href="#DejaVuSans-Oblique-53" transform="translate(641.494141 -15.59375) scale(0.7)"/>
     <use xlink:href="#DejaVuSans-3d" transform="translate(708.144531 0.8125)"/>
     <use xlink:href="#DejaVuSans-30" transform="translate(811.416016 0.8125)"/>
     <use xlink:href="#DejaVuSans-2e" transform="translate(875.039062 0.8125)"/>
     <use xlink:href="#DejaVuSans-35" transform="translate(906.826172 0.8125)"/>
     <use xlink:href="#DejaVuSans-20" transform="translate(970.449219 0.8125)"/>
     <use xlink:href="#DejaVuSans-72" transform="translate(1002.236328 0.8125)"/>
     <use xlink:href="#DejaVuSans-61" transform="translate(1043.349609 0.8125)"/>
     <use xlink:href="#DejaVuSans-64" transform="translate(1104.628906 0.8125)"/>
     <use xlink:href="#DejaVuSans-20" transform="translate(1168.105469 0.8125)"/>
     <use xlink:href="#DejaVuSans-61" transform="translate(1199.892578 0.8125)"/>
     <use xlink:href="#DejaVuSans-6e" transform="translate(1261.171875 0.8125)"/>
     <use xlink:href="#DejaVuSans-64" transform="translate(1324.550781 0.8125)"/>
     <use xlink:href="#DejaVuSans-20" transform="translate(1388.027344 0.8125)"/>
     <use xlink:href="#DejaVuSans-Oblique-73" transform="translate(1419.814453 61.015625)"/>
     <use xlink:href="#DejaVuSans-Oblique-4e" transform="translate(1471.914062 44.609375) scale(0.7)"/>
     <use xlink:href="#DejaVuSans-Oblique-73" transform="translate(1423.814453 -42.640625)"/>
     <use xlink:href="#DejaVuSans-Oblique-53" transform="translate(1475.914062 -59.046875) scale(0.7)"/>
     <use xlink:href="#DejaVuSans-3d" transform="translate(1558.994141 0.8125)"/>
     <use xlink:href="#DejaVuSans-32" transform="translate(1662.265625 0.8125)"/>
     <path d="M 0 19.609375 
L 0 25.859375 
L 118.574219 25.859375 
L 118.574219 19.609375 
L 0 19.609375 
z
"/>
     <path d="M 1419.814453 19.609375 
L 1419.814453 25.859375 
L 1527.011719 25.859375 
L 1527.011719 19.609375 
L 1419.814453 19.609375 
z
"/>
    </g>
    <!--  -->
    <g transform="translate(295.2 63.36) scale(0.12 -0.12)"/>
   </g>
   <g id="legend_1">
    <g id="patch_7">
     <path d="M 438.2 121.46 
L 511.4 121.46 
Q 513.4 121.46 513.4 119.46 
L 513.4 76.36 
Q 513.4 74.36 511.4 74.36 
L 438.2 74.36 
Q 436.2 74.36 436.2 76.36 
L 436.2 119.46 
Q 436.2 121.46 438.2 121.46 
z
" style="fill: #ffffff; opacity: 0.8; stroke: #cccccc; stroke-linejoin: miter"/>
    </g>
    <g id="line2d_17">
     <path d="M 440.2 82.46 
L 450.2 82.46 
L 460.2 82.46 
" style="fill: none; stroke: #333333; stroke-width: 1.5; stroke-linecap: square"/>
    </g>
    <g id="text_15">
     <!-- $\phi = 0.00$ -->
     <g transform="translate(468.2 85.96) scale(0.1 -0.1)">
      <use xlink:href="#DejaVuSans-Oblique-3d5" transform="translate(0 0.015625)"/>
      <use xlink:href="#DejaVuSans-3d" transform="translate(85.449219 0.015625)"/>
      <use xlink:href="#DejaVuSans-30" transform="translate(188.720703 0.015625)"/>
      <use xlink:href="#DejaVuSans-2e" transform="translate(252.34375 0.015625)"/>
      <use xlink:href="#DejaVuSans-30" transform="translate(284.130859 0.015625)"/>
      <use xlink:href="#DejaVuSans-30" transform="translate(347.753906 0.015625)"/>
     </g>
    </g>
    <g id="line2d_18">
     <path d="M 440.2 97.16 
L 450.2 97.16 
L 460.2 97.16 
" style="fill: none; stroke-dasharray: 5.55,2.4; stroke-dashoffset: 0; stroke: #333333; stroke-width: 1.5"/>
    </g>
    <g id="text_16">
     <!-- $\phi = 0.79$ -->
     <g transform="translate(468.2 100.66) scale(0.1 -0.1)">
      <defs>
       <path id="DejaVuSans-37" d="M 525 4666 
L 3525 4666 
L 3525 4397 
L 1831 0 
L 1172 0 
L 2766 4134 
L 525 4134 
L 525 4666 
z
" transform="scale(0.015625)"/>
       <path id="DejaVuSans-39" d="M 703 97 
L 703 672 
Q 941 559 1184 500 
Q 1428 441 1663 441 
Q 2288 441 2617 861 
Q 2947 1281 2994 2138 
Q 2813 1869 2534 1725 
Q 2256 1581 1919 1581 
Q 1219 1581 811 2004 
Q 403 2428 403 3163 
Q 403 3881 828 4315 
Q 1253 4750 1959 4750 
Q 2769 4750 3195 4129 
Q 3622 3509 3622 2328 
Q 3622 1225 3098 567 
Q 2575 -91 1691 -91 
Q 1453 -91 1209 -44 
Q 966 3 703 97 
z
M 1959 2075 
Q 2384 2075 2632 2365 
Q 2881 2656 2881 3163 
Q 2881 3666 2632 3958 
Q 2384 4250 1959 4250 
Q 1534 4250 1286 3958 
Q 1038 3666 1038 3163 
Q 1038 2656 1286 2365 
Q 1534 2075 1959 2075 
z
" transform="scale(0.015625)"/>
      </defs>
      <use xlink:href="#DejaVuSans-Oblique-3d5" transform="translate(0 0.015625)"/>
      <use xlink:href="#DejaVuSans-3d" transform="translate(85.449219 0.015625)"/>
      <use xlink:href="#DejaVuSans-30" transform="translate(188.720703 0.015625)"/>
      <use xlink:href="#DejaVuSans-2e" transform="translate(252.34375 0.015625)"/>
      <use xlink:href="#DejaVuSans-37" transform="translate(276.380859 0.015625)"/>
      <use xlink:href="#DejaVuSans-39" transform="translate(340.003906 0.015625)"/>
     </g>
    </g>
    <g id="line2d_19">
     <path d="M 440.2 111.86 
L 450.2 111.86 
L 460.2 111.86 
" style="fill: none; stroke-dasharray: 9.6,2.4,1.5,2.4; stroke-dashoffset: 0; stroke: #333333; stroke-width: 1.5"/>
    </g>
    <g id="text_17">
     <!-- $\phi = 1.57$ -->
     <g transform="translate(468.2 115.36) scale(0.1 -0.1)">
      <use xlink:href="#DejaVuSans-Oblique-3d5" transform="translate(0 0.015625)"/>
      <use xlink:href="#DejaVuSans-3d" transform="translate(85.449219 0.015625)"/>
      <use xlink:href="#DejaVuSans-31" transform="translate(188.720703 0.015625)"/>
      <use xlink:href="#DejaVuSans-2e" transform="translate(252.34375 0.015625)"/>
      <use xlink:href="#DejaVuSans-35" transform="translate(284.130859 0.015625)"/>
      <use xlink:href="#DejaVuSans-37" transform="translate(340.503906 0.015625)"/>
     </g>
    </g>
   </g>
  </g>
 </g>
 <defs>
  <clipPath id="p3def076cf8">
   <rect x="72" y="69.36" width="446.4" height="297.6"/>
  </clipPath>
 </defs>
</svg>
